<svg width="26" height="30" viewBox="0 0 26 30" fill="none" xmlns="http://www.w3.org/2000/svg">
<path d="M11.6934 0.0690823C10.2594 0.349955 9.01027 1.0554 8.00969 2.13317C7.02822 3.19787 6.48651 4.40627 6.35267 5.84983L6.28256 6.61406L6.01489 6.73163C5.61976 6.89493 5.25649 7.25419 5.05892 7.65917C4.90596 7.97923 4.88684 8.10987 4.85498 8.91329C4.81037 10.2458 4.93783 10.7749 5.42856 11.2713C5.7982 11.6502 6.17422 11.82 6.76055 11.8527L7.25128 11.8788L7.2959 12.1205C7.32139 12.2511 7.43611 12.6561 7.5572 13.0284C9.06126 17.6269 12.7768 19.4754 15.7913 17.1108C16.8301 16.2944 17.7542 14.9422 18.2896 13.4464C18.4298 13.048 18.5127 12.9239 18.7803 12.6953C18.9588 12.545 19.2137 12.2903 19.3412 12.127C19.5005 11.931 19.6662 11.8069 19.8255 11.7612C20.1442 11.6632 20.5521 11.3562 20.7687 11.0362C21.081 10.6051 21.1256 10.3634 21.1256 9.15497C21.1256 8.07068 21.1193 8.03802 20.9472 7.67223C20.7433 7.24112 20.4373 6.94066 19.9721 6.7251L19.6471 6.57487L19.6088 5.93474C19.4686 3.58325 17.8498 1.38853 15.5937 0.474062C14.7142 0.114807 14.249 0.029892 13.1592 0.0037632C12.4836 -0.00930023 11.9865 0.0102959 11.6934 0.0690823ZM14.3701 1.47344C16.11 1.93068 17.5184 3.28278 18.0283 4.96802C18.2195 5.60814 18.194 5.66693 17.9008 5.22929C17.5567 4.72634 16.8875 4.02089 16.4095 3.66817C14.0323 1.92415 10.8394 2.23115 8.78721 4.39974C8.51954 4.68061 8.18176 5.09866 8.03518 5.32727C7.73564 5.8041 7.6974 5.72572 7.90772 5.03334C8.15627 4.19725 8.51317 3.58978 9.14411 2.94312C9.95988 2.09398 10.8649 1.59755 11.961 1.382C12.6175 1.25789 13.6945 1.29708 14.3701 1.47344ZM10.1383 6.89493C12.4008 7.69836 14.1598 7.62651 16.6198 6.62712C16.8301 6.54221 16.8429 6.54874 17.0468 6.78389C17.4483 7.22806 17.614 8.2601 17.5184 9.70366C17.4866 10.1544 17.4483 10.5659 17.4292 10.6051C17.391 10.7096 17.3782 10.7161 17.7415 10.5267C18.2705 10.2523 18.2896 10.2915 18.1494 11.1537C18.0793 11.5914 18.0665 11.6175 17.7734 11.8396C17.0787 12.3621 15.7849 12.8324 14.7079 12.9565C14.3127 13.0023 14.198 12.9957 13.9622 12.8912C13.5862 12.7214 12.2925 12.7475 12.0248 12.9304C11.4958 13.2831 11.4831 14.0474 11.9993 14.4393C12.1586 14.5634 12.2733 14.5765 13.0254 14.5765C13.7137 14.5765 13.8985 14.5569 14.0323 14.4654C14.1343 14.4001 14.4466 14.3217 14.7971 14.2825C15.5555 14.1911 16.2757 14.0147 16.9321 13.773L17.4547 13.5771L17.2571 13.9755C16.4605 15.6085 15.1795 16.7712 13.8348 17.0912C13.3886 17.1958 12.6111 17.2023 12.1714 17.0978C10.508 16.6993 9.02939 15.0794 8.25824 12.7998C8.03518 12.1335 7.77388 10.9251 7.77388 10.5528C7.77388 10.3177 7.85036 10.3111 8.25824 10.5267C8.60877 10.7096 8.62151 10.7161 8.5769 10.6312C8.55778 10.6051 8.51317 10.2001 8.4813 9.73631C8.37296 8.2797 8.55141 7.20193 8.96566 6.75776C9.1696 6.53568 9.11225 6.52914 10.1383 6.89493Z" fill="#0E081E"/>
<path d="M7.42341 17.5616C5.9066 17.849 4.39616 18.6786 3.26811 19.8478C2.13369 21.0301 1.44539 22.356 1.10761 24.0151C0.948281 24.7728 0.948281 26.3536 1.10124 26.9545C1.55373 28.705 2.68815 29.5607 5.00161 29.9069C5.83649 30.031 20.1633 30.031 20.9982 29.9069C23.3117 29.5607 24.4461 28.705 24.8986 26.9545C25.0516 26.3536 25.0516 24.7728 24.8922 24.0151C24.5608 22.4018 23.8916 21.0823 22.8018 19.9262C21.6355 18.6916 20.2207 17.8947 18.621 17.5747C17.8754 17.431 17.869 17.431 17.7543 17.8294C17.5185 18.6655 16.6581 19.3579 15.3261 19.789C14.6123 20.0176 13.9304 20.1156 12.9999 20.1156C12.0694 20.1156 11.3875 20.0176 10.6737 19.789C9.32898 19.3579 8.48773 18.672 8.24555 17.8294C8.14995 17.5028 8.1372 17.4832 7.94601 17.4898C7.83129 17.4963 7.60186 17.5224 7.42341 17.5616Z" fill="#0E081E"/>
</svg>
