<svg width="30" height="30" viewBox="0 0 30 30" fill="none" xmlns="http://www.w3.org/2000/svg">
<path d="M10.5996 1.25391C10.0898 1.43555 9.69727 1.79883 9.47461 2.2793C9.35742 2.53125 9.35156 2.64258 9.3457 4.18945V5.83008L9.9375 5.84766L10.5293 5.86523L10.5645 5.15039C10.5879 4.75781 10.6055 4.06055 10.6055 3.59766C10.6055 2.79492 10.6113 2.75391 10.7461 2.5957L10.8867 2.43164L14.9004 2.41406C17.4082 2.4082 18.9668 2.41992 19.0605 2.45508C19.1426 2.49023 19.2598 2.58398 19.3184 2.67773C19.4121 2.81836 19.4238 3.01172 19.4414 4.34766L19.4648 5.86523L20.0566 5.84766L20.6543 5.83008L20.6719 4.48242C20.6777 3.7207 20.6602 2.95898 20.625 2.72461C20.5254 2.07422 20.1738 1.59961 19.5996 1.33594L19.3066 1.20117L15.0586 1.18945C11.6836 1.17773 10.7695 1.18945 10.5996 1.25391Z" fill="#0E081E"/>
<path d="M3.31033 7.00195C1.61111 7.3125 0.450959 8.44336 0.111115 10.1074C-0.000213291 10.6465 -0.000213292 10.9219 0.0173648 18.0645C0.034943 26.3613 -0.00021328 25.7285 0.474396 26.7129C0.925568 27.6387 1.80447 28.3301 2.96463 28.6641L3.42752 28.7988H14.9998H26.5721L27.0349 28.6641C28.1951 28.3301 29.074 27.6387 29.5252 26.7129C29.9998 25.7285 29.9646 26.3613 29.9822 18.0645C29.9998 10.9219 29.9998 10.6465 29.8885 10.1074C29.5428 8.42578 28.3885 7.3125 26.6599 6.99609C26.0271 6.88476 3.93143 6.88476 3.31033 7.00195ZM17.2849 11.6777C17.6951 11.9473 17.7244 12.0586 17.742 13.5762L17.7654 14.9355L19.1189 14.9531C20.6365 14.9707 20.742 15 21.0174 15.4102C21.1521 15.6035 21.1521 15.6211 21.1521 17.6953C21.1521 19.7695 21.1521 19.7871 21.0174 19.9805C20.742 20.3906 20.6365 20.4199 19.1189 20.4375L17.7596 20.4551L17.742 21.8145C17.7244 23.332 17.6951 23.4375 17.2849 23.7129C17.0916 23.8477 17.074 23.8477 14.9998 23.8477C12.9256 23.8477 12.908 23.8477 12.7146 23.7129C12.3045 23.4375 12.2752 23.332 12.2576 21.8145L12.24 20.4551L10.8806 20.4375C9.36307 20.4199 9.2576 20.3906 8.98221 19.9805C8.84744 19.7871 8.84744 19.7695 8.84744 17.6953C8.84744 15.6211 8.84744 15.6035 8.98221 15.4102C9.2576 15 9.36307 14.9707 10.8806 14.9531L12.24 14.9355L12.2576 13.5762C12.2752 12.0586 12.3045 11.9531 12.7146 11.6777C12.908 11.543 12.9256 11.543 14.9998 11.543C17.074 11.543 17.0916 11.543 17.2849 11.6777Z" fill="#0E081E"/>
<path d="M13.4766 14.3027V15.832L13.3066 16.002L13.1367 16.1719H11.6074H10.0781V17.6953V19.2188H11.6074H13.1367L13.3066 19.3887L13.4766 19.5586V21.0879V22.6172H15H16.5234V21.0879V19.5586L16.6934 19.3887L16.8633 19.2188H18.3926H19.9219V17.6953V16.1719H18.3926H16.8633L16.6934 16.002L16.5234 15.832V14.3027V12.7734H15H13.4766V14.3027Z" fill="#0E081E"/>
</svg>
