<svg width="30" height="30" viewBox="0 0 30 30" fill="none" xmlns="http://www.w3.org/2000/svg">
<path d="M10.8523 0.914064C8.44409 2.51953 6.15894 3.46289 3.61597 3.89649C2.91284 4.01367 2.77222 4.05469 2.64331 4.1836L2.49097 4.33594L2.47339 9.74414C2.45581 15.3574 2.47925 16.0313 2.70191 17.1387C3.06519 18.9434 4.02613 20.959 5.34449 22.6934C7.57105 25.6172 11.0574 28.1426 14.3738 29.2207L15.0007 29.4316L15.6453 29.2148C18.9558 28.1191 22.3425 25.6875 24.5691 22.8047C25.9285 21.0527 26.9304 18.9668 27.2996 17.1387C27.5222 16.0313 27.5457 15.3574 27.5281 9.74414L27.5105 4.33594L27.3582 4.1836C27.2234 4.04883 27.0886 4.00781 26.3914 3.89063C23.9363 3.48047 21.7273 2.58985 19.3601 1.04883L18.6511 0.585939H14.9949H11.3386L10.8523 0.914064ZM18.4402 2.54883C20.4031 3.86719 22.8933 4.95703 25.0496 5.42578L25.782 5.58985V10.4063C25.782 13.3184 25.7585 15.4629 25.7234 15.8262C25.3484 19.5293 22.5945 23.3496 18.3992 25.9805C17.6375 26.4609 16.3308 27.1113 15.5691 27.3867L15.0007 27.5977L14.4265 27.3867C13.1082 26.9004 11.5085 26.0156 10.2371 25.0547C6.82105 22.4941 4.6062 19.0664 4.28394 15.8555C4.24292 15.4453 4.21949 13.459 4.21949 10.4004V5.58985L4.94605 5.43164C6.84449 5.01563 8.92456 4.16016 10.8464 3C11.28 2.74219 11.6843 2.48438 11.7488 2.4375C11.8484 2.36133 12.2761 2.34961 15.0007 2.34375H18.1355L18.4402 2.54883Z" fill="#0E081E"/>
<path d="M11.5723 3.93188C10.7461 4.44751 9.19922 5.23267 8.26172 5.61353C7.58789 5.88306 6.43945 6.26392 5.71289 6.45728L5.41992 6.53931V11.1917C5.41992 15.469 5.42578 15.8909 5.52539 16.3772C6.14062 19.4065 8.46094 22.5002 11.7598 24.7034C12.5039 25.2014 13.7227 25.8459 14.4844 26.1565L15 26.3616L15.5625 26.1331C18.3926 24.9788 21.3164 22.5647 22.9629 20.0159C23.6719 18.9202 24.2285 17.5784 24.4746 16.3772C24.5742 15.8909 24.5801 15.469 24.5801 11.1917V6.53931L24.2871 6.45728C22.2773 5.92407 20.0742 4.96899 18.3867 3.90845L17.7656 3.51587L14.9883 3.52173L12.2168 3.52759L11.5723 3.93188ZM17.0391 8.41431C17.168 8.5022 17.168 8.51978 17.168 10.0549V11.6018H18.7148C20.25 11.6018 20.2676 11.6018 20.3555 11.7307C20.4375 11.842 20.4492 12.1409 20.4492 13.7932C20.4492 15.5042 20.4375 15.7327 20.3496 15.8323C20.2617 15.9319 20.1328 15.9377 18.709 15.9377H17.168V17.4729C17.168 18.8147 17.1562 19.0198 17.0684 19.1135C16.9805 19.2131 16.8398 19.219 15.0117 19.219C13.2656 19.219 13.0371 19.2073 12.9375 19.1194C12.8379 19.0315 12.832 18.9026 12.832 17.4788V15.9377H11.2969C9.95508 15.9377 9.75 15.926 9.65625 15.8381C9.55664 15.7502 9.55078 15.6096 9.55078 13.8049C9.55078 12.1409 9.5625 11.842 9.64453 11.7307C9.73242 11.6018 9.75 11.6018 11.2852 11.6018H12.832V10.0549C12.832 8.51978 12.832 8.5022 12.9609 8.41431C13.0723 8.33228 13.3711 8.32056 15 8.32056C16.6289 8.32056 16.9277 8.33228 17.0391 8.41431Z" fill="#0E081E"/>
</svg>
