<svg width="30" height="30" viewBox="0 0 30 30" fill="none" xmlns="http://www.w3.org/2000/svg">
<g clip-path="url(#clip0_361_106735)">
<path d="M14.3849 0.0762062C13.8458 0.216831 13.5235 0.433628 12.4044 1.418C11.7892 1.96292 11.2501 2.40238 11.1974 2.40238C11.1446 2.40238 10.3009 2.33792 9.31651 2.26175C7.29503 2.10355 7.07237 2.11527 6.41612 2.42582C5.95909 2.63675 5.54307 3.00589 5.31456 3.40433C5.20323 3.59183 4.04307 7.03128 4.04307 7.17191C4.04307 7.18363 3.3751 7.58792 2.56651 8.06253C1.53526 8.66605 0.990339 9.02347 0.785261 9.23441C0.146589 9.86722 -0.14052 10.8223 0.0704172 11.6485C0.105573 11.8008 0.42198 12.6153 0.767683 13.459L1.39464 14.9883L0.785261 16.4766C0.445417 17.291 0.129011 18.1055 0.082136 18.2813C-0.0760671 18.8907 0.0176829 19.5821 0.334089 20.168C0.615339 20.6778 1.10753 21.0586 2.74815 22.0254C3.5919 22.5235 4.29503 22.9512 4.30675 22.9746C4.32432 22.9922 4.49425 23.6836 4.6876 24.4981C4.89268 25.3418 5.1212 26.1446 5.21495 26.3555C5.4376 26.8301 5.94737 27.3457 6.41612 27.5625C7.0255 27.8555 7.28917 27.8672 9.23448 27.7266C10.2013 27.6504 11.0509 27.5977 11.1329 27.5977C11.2384 27.5977 11.5431 27.8321 12.1817 28.3946C12.6798 28.8282 13.1954 29.2735 13.3243 29.3848C14.1446 30.0469 15.2462 30.1758 16.1778 29.7071C16.3946 29.5957 16.9337 29.1739 17.6251 28.5645C18.6505 27.6621 18.7384 27.5977 18.9552 27.5977C19.0841 27.5977 19.8517 27.6504 20.6544 27.7149C22.4708 27.8614 22.7521 27.8614 23.1974 27.7207C23.8888 27.5039 24.4396 27.0469 24.756 26.4317C24.8907 26.1621 25.1603 25.166 25.547 23.5137L25.67 22.9805L27.2638 22.0254C28.9513 21.0176 29.3907 20.6778 29.6661 20.168C29.9825 19.5821 30.0763 18.8848 29.9181 18.2813C29.8712 18.1055 29.5548 17.291 29.2149 16.4766L28.5997 14.9883L29.2442 13.4297C29.6544 12.4336 29.9122 11.7305 29.9532 11.4727C30.0939 10.6817 29.8067 9.81449 29.2208 9.23441C29.0099 9.02933 28.4005 8.62503 27.2989 7.96878L25.6817 7.00785L25.3009 5.43753C25.0899 4.57621 24.8556 3.74417 24.7794 3.59183C24.5274 3.06449 23.9005 2.50199 23.3556 2.30277C22.8224 2.11527 22.547 2.10941 20.6954 2.25589C19.7052 2.33792 18.8556 2.40238 18.8028 2.40238C18.7501 2.40238 18.2638 2.00394 17.7189 1.51761C16.5646 0.486362 16.336 0.3223 15.8907 0.164097C15.4747 0.0176125 14.7716 -0.0234032 14.3849 0.0762062ZM16.6349 5.47269C18.6446 5.84183 20.3849 6.74417 21.797 8.14457C23.2442 9.58597 24.1466 11.3203 24.5333 13.377C24.6681 14.127 24.6681 15.8731 24.5333 16.6231C23.7657 20.7305 20.7306 23.7657 16.6232 24.5332C15.8732 24.668 14.1271 24.668 13.3771 24.5332C11.3204 24.1465 9.54503 23.2149 8.11534 21.7618C6.69737 20.3262 5.80089 18.5567 5.4376 16.4649C5.34385 15.8965 5.34385 14.1035 5.4376 13.5352C6.20518 9.1348 9.52745 5.9473 13.9278 5.39066C14.4903 5.32035 16.0489 5.36722 16.6349 5.47269Z" fill="#0E081E"/>
<path d="M14.1797 7.125C12.8789 7.28906 11.6309 7.74609 10.5469 8.4668C9.98438 8.8418 8.8418 9.98437 8.4668 10.5469C7.86914 11.4492 7.45312 12.4512 7.22461 13.5352C7.08398 14.2266 7.08398 15.7734 7.22461 16.4648C7.57031 18.1113 8.23828 19.3652 9.4043 20.543C10.5703 21.7266 11.8711 22.4297 13.5352 22.7754C14.2207 22.916 15.7617 22.916 16.4766 22.7754C18.0586 22.459 19.3711 21.7559 20.543 20.5957C21.7266 19.4297 22.4297 18.1289 22.7754 16.4648C22.916 15.7734 22.916 14.2266 22.7754 13.5352C22.5469 12.4512 22.1309 11.4492 21.5332 10.5469C21.1465 9.9668 20.0156 8.83594 19.4238 8.44922C18.5391 7.86328 17.5195 7.43555 16.5176 7.23633C16.084 7.14844 14.5723 7.07812 14.1797 7.125ZM19.8047 11.6016C20.0684 11.7363 20.2734 12.0703 20.2734 12.3633C20.2734 12.4629 20.2207 12.6387 20.1621 12.7617C20.0215 13.0312 14.748 18.293 14.4902 18.4219C14.2383 18.5449 13.9863 18.5391 13.7227 18.4043C13.4531 18.2637 9.94922 14.748 9.82031 14.4902C9.46289 13.7754 10.2598 12.9785 10.9746 13.3359C11.0801 13.3887 11.8301 14.0918 12.6445 14.9004L14.1211 16.377L16.4824 14.0215C17.7773 12.7324 18.9199 11.6309 19.0137 11.5781C19.2539 11.4551 19.5293 11.4609 19.8047 11.6016Z" fill="#0E081E"/>
</g>
<defs>
<clipPath id="clip0_361_106735">
<rect width="30" height="30" fill="white"/>
</clipPath>
</defs>
</svg>
