<svg width="12" height="13" viewBox="0 0 12 13" fill="none" xmlns="http://www.w3.org/2000/svg">
<path d="M2.66667 5.85H4V7.15H2.66667V5.85ZM12 2.6V11.7C12 12.415 11.4 13 10.6667 13H1.33333C0.593333 13 0 12.415 0 11.7L0.00666666 2.6C0.00666666 1.885 0.593333 1.3 1.33333 1.3H2V0H3.33333V1.3H8.66667V0H10V1.3H10.6667C11.4 1.3 12 1.885 12 2.6ZM1.33333 3.9H10.6667V2.6H1.33333V3.9ZM10.6667 11.7V5.2H1.33333V11.7H10.6667ZM8 7.15H9.33333V5.85H8V7.15ZM5.33333 7.15H6.66667V5.85H5.33333V7.15Z" fill="#5D5856"/>
</svg>
