<svg width="20" height="20" viewBox="0 0 20 20" fill="none" xmlns="http://www.w3.org/2000/svg">
<path d="M10.5391 18.0344C11.2165 18.4706 12.0229 18.6618 12.8241 18.5762C13.6253 18.4906 14.373 18.1334 14.9431 17.5639L15.4397 17.0673C15.6599 16.8447 15.7835 16.5442 15.7835 16.231C15.7835 15.9178 15.6599 15.6173 15.4397 15.3946L13.3487 13.3168C13.1283 13.0973 12.83 12.9741 12.5189 12.9741C12.2079 12.9741 11.9095 13.0973 11.6891 13.3168V13.3168C11.4664 13.537 11.1659 13.6606 10.8527 13.6606C10.5395 13.6606 10.239 13.537 10.0164 13.3168L6.68397 9.98438C6.46371 9.76174 6.34017 9.4612 6.34017 9.14802C6.34017 8.83484 6.46371 8.5343 6.68397 8.31166V8.31166C6.90343 8.09124 7.02664 7.79286 7.02664 7.48183C7.02664 7.17079 6.90343 6.87242 6.68397 6.652L4.67147 4.56109C4.44883 4.34083 4.14829 4.21729 3.83511 4.21729C3.52193 4.21729 3.22139 4.34083 2.99875 4.56109L2.50216 5.05768C1.92246 5.61966 1.55303 6.36345 1.45552 7.16493C1.35801 7.9664 1.53832 8.77707 1.96636 9.46166C4.2451 12.8447 7.15602 15.7556 10.5391 18.0344V18.0344Z" stroke="white" stroke-width="2" stroke-linecap="round" stroke-linejoin="round"/>
<path d="M9.89844 1.60767C11.0139 1.60767 12.1185 1.82738 13.1491 2.25426C14.1797 2.68114 15.1161 3.30682 15.9048 4.09559C16.6936 4.88436 17.3193 5.82077 17.7462 6.85135C18.173 7.88193 18.3928 8.98649 18.3928 10.102" stroke="white" stroke-width="2" stroke-linecap="round" stroke-linejoin="round"/>
<path d="M9.89844 4.87476C11.2848 4.87476 12.6144 5.42548 13.5947 6.40579C14.575 7.38609 15.1257 8.71567 15.1257 10.102" stroke="white" stroke-width="2" stroke-linecap="round" stroke-linejoin="round"/>
</svg>
