<svg width="32" height="32" viewBox="0 0 32 32" fill="none" xmlns="http://www.w3.org/2000/svg">
<g clip-path="url(#clip0_444_69)">
<path d="M16.5 0.0496817C16.5 0.0871811 16.4312 0.593431 16.3437 1.18718C16.2562 1.78093 16.1875 2.31218 16.1875 2.37468C16.1875 2.46218 16.2812 2.49968 16.675 2.56218C18.5875 2.86843 20.8937 3.76843 22.5625 4.87468C23.5875 5.55593 24.2375 6.08093 25.0875 6.92468C27.2875 9.09968 28.7312 11.7309 29.4062 14.7809C29.5187 15.3184 29.5562 15.4059 29.6625 15.3934C29.9687 15.3684 31.9125 15.0372 31.95 15.0059C31.975 14.9872 31.925 14.6559 31.8437 14.2747C30.6625 8.81843 27.05 4.18718 22.05 1.73093C20.4687 0.949681 18.8687 0.412181 17.375 0.155931C17.05 0.0996809 16.7187 0.0371809 16.6437 0.0184317C16.5625 -0.000318527 16.5 0.0121813 16.5 0.0496817Z" fill="white"/>
<path d="M4.90047 3.12553C4.29422 3.25053 4.01922 3.46303 2.41297 5.05678C1.56297 5.90053 0.762968 6.73803 0.650468 6.91928C-0.474532 8.64428 -0.137032 11.5068 1.63797 15.363C3.63172 19.6755 7.20672 24.0255 11.313 27.1255C13.7317 28.9505 16.613 30.5193 19.0005 31.3193C20.9755 31.9755 22.8317 32.163 24.013 31.8193C24.9005 31.563 25.0942 31.413 26.8567 29.663C28.338 28.188 28.513 27.988 28.6942 27.6005C28.8692 27.2255 28.9005 27.0943 28.9005 26.688C28.9005 26.2818 28.8692 26.1505 28.6942 25.7755C28.5067 25.3755 28.3255 25.1755 26.2317 23.088C24.388 21.2505 23.9067 20.8005 23.6255 20.6693C23.1505 20.438 22.7067 20.363 22.3005 20.438C21.6255 20.5693 21.3692 20.7568 19.8067 22.2943C18.9942 23.0943 18.2817 23.7505 18.2255 23.7505C18.0692 23.7505 16.6005 22.9943 16.0317 22.6193C13.8192 21.1818 11.313 18.738 9.70672 16.463C9.15672 15.6818 8.90047 15.2505 8.53172 14.488C8.30047 14.013 8.24422 13.8443 8.28172 13.7068C8.30672 13.5943 8.83172 13.0193 9.75047 12.0943C11.0317 10.8068 11.2067 10.6068 11.3755 10.2255C11.7067 9.50678 11.6317 8.81928 11.163 8.10678C11.0442 7.92553 9.98172 6.81928 8.80047 5.64428C6.87547 3.72553 6.61297 3.48803 6.25047 3.31928C5.80672 3.11303 5.30047 3.04428 4.90047 3.12553Z" fill="white"/>
<path d="M16.1722 6.55711C16.0847 7.00711 15.8597 8.81336 15.8847 8.83836C15.8972 8.85711 16.1347 8.91336 16.4097 8.96961C19.616 9.63211 22.1722 12.1259 22.941 15.3384C23.0097 15.6071 23.066 15.8384 23.0785 15.8446C23.1097 15.8696 25.441 15.4571 25.4722 15.4259C25.516 15.3884 25.4097 14.8571 25.241 14.2821C24.116 10.3009 20.766 7.25086 16.6785 6.48211L16.2035 6.39461L16.1722 6.55711Z" fill="white"/>
</g>
<defs>
<clipPath id="clip0_444_69">
<rect width="32" height="32" fill="white"/>
</clipPath>
</defs>
</svg>
