<svg width="36" height="36" viewBox="0 0 36 36" fill="none" xmlns="http://www.w3.org/2000/svg">
<path d="M17.9941 3C25.3 3 31.4941 9.04947 31.4941 16.3887C31.4941 23.8447 25.1991 29.0771 19.3846 32.6351C18.9609 32.8743 18.4816 33 17.9941 33C17.5066 33 17.0274 32.8743 16.6036 32.6351C10.8 29.0424 4.49414 23.8706 4.49414 16.3887C4.49414 9.04947 10.6883 3 17.9941 3Z" fill="white" stroke="white" stroke-width="1.5"/>
<path d="M23.2412 16.501C23.2412 19.4005 20.8907 21.751 17.9912 21.751C15.0917 21.751 12.7412 19.4005 12.7412 16.501C12.7412 13.6015 15.0917 11.251 17.9912 11.251C20.8907 11.251 23.2412 13.6015 23.2412 16.501Z" fill="#4DC27E"/>
</svg>
