<svg width="42" height="42" viewBox="0 0 42 42" fill="none" xmlns="http://www.w3.org/2000/svg">
<path d="M39.6615 21.0002C39.6615 10.6908 31.3041 2.3335 20.9948 2.3335C10.6855 2.3335 2.32812 10.6908 2.32812 21.0002C2.32812 30.3171 9.15422 38.0397 18.0781 39.4401V26.396H13.3385V21.0002H18.0781V16.8877C18.0781 12.2093 20.865 9.62516 25.1288 9.62516C27.1712 9.62516 29.3073 9.98975 29.3073 9.98975V14.5835H26.9535C24.6348 14.5835 23.9115 16.0225 23.9115 17.4987V21.0002H29.0885L28.2609 26.396H23.9115V39.4401C32.8354 38.0397 39.6615 30.3175 39.6615 21.0002Z" fill="#1877F2"/>
<path d="M28.2622 26.3958L29.0898 21H23.9128V17.4985C23.9128 16.0223 24.6361 14.5833 26.9548 14.5833H29.3086V9.98958C29.3086 9.98958 27.1725 9.625 25.1301 9.625C20.8663 9.625 18.0794 12.2092 18.0794 16.8875V21H13.3398V26.3958H18.0794V39.4399C19.0299 39.589 20.0037 39.6667 20.9961 39.6667C21.9885 39.6667 22.9623 39.589 23.9128 39.4399V26.3958H28.2622Z" fill="white"/>
</svg>
