<svg width="32" height="32" viewBox="0 0 32 32" fill="none" xmlns="http://www.w3.org/2000/svg">
<path d="M20.6088 24.4797C22.896 23.0309 24.7719 21.1752 26.2368 18.9129C27.4204 17.008 27.9173 14.9406 27.7273 12.7106C27.6043 11.6677 27.2959 10.6849 26.8022 9.76206C25.9311 10.607 25.0145 11.395 24.0524 12.126C23.2369 12.7328 22.3461 13.2073 21.3798 13.5494C19.8726 13.9732 18.6476 13.575 17.7048 12.3547C17.0899 11.2989 16.8671 10.1634 17.0366 8.94857C17.1793 8.20844 17.3678 7.47977 17.6019 6.76257C18.1272 5.48587 18.6241 4.19803 19.0924 2.89887C19.2196 2.44649 19.3223 1.98894 19.4008 1.5262C19.4495 1.02953 19.424 0.538045 19.3238 0.051901C18.7078 0.0124754 18.091 -0.00448841 17.4734 0.00100918C16.7577 0.110333 16.038 0.237404 15.3147 0.382226C13.925 0.775225 12.7858 1.52934 11.8968 2.64456C11.3914 3.39019 10.9802 4.18671 10.6633 5.03397C10.5242 5.21712 10.3442 5.34435 10.1237 5.41519C8.01813 5.83269 5.91085 6.23936 3.80183 6.63534C3.72258 6.7156 3.66271 6.80891 3.6219 6.91493C3.6624 7.55548 3.80802 8.17404 4.05876 8.77061C4.34016 8.80281 4.61425 8.76903 4.88119 8.66898C5.54117 8.33865 5.97803 7.82172 6.19177 7.11834C6.26577 7.38584 6.28292 7.65695 6.24322 7.93183C5.94738 8.87726 5.30487 9.40267 4.31586 9.50775C5.01363 12.0868 6.70978 13.5356 9.40415 13.8545C10.8759 13.8199 12.2122 14.2096 13.4131 15.0237C15.4117 16.7496 16.2769 18.9272 16.0087 21.5564C15.7681 23.2544 14.9115 24.5422 13.4388 25.4201C13.5546 25.1562 13.6744 24.885 13.7986 24.6066C14.4068 22.235 13.6444 20.4387 11.5114 19.2177C11.5224 19.3448 11.5653 19.4805 11.6399 19.6244C12.0355 22.2476 11.016 24.1032 8.58172 25.1913C6.48254 25.9045 4.58074 25.5656 2.87665 24.1745C0.922932 22.3939 0.246124 20.2334 0.846389 17.6927C0.666151 17.9475 0.511955 18.2186 0.383803 18.5062C-0.478642 21.1694 0.112414 23.4655 2.15697 25.3948C3.81977 26.7063 5.7214 27.4519 7.86203 27.6317C12.4615 27.9518 16.7104 26.9012 20.6088 24.4797ZM15.2891 5.79672C15.056 6.17009 14.7219 6.29716 14.2869 6.17794C13.7777 5.90369 13.6492 5.50551 13.9015 4.98324C14.0316 4.81108 14.1944 4.69249 14.3898 4.62731C15.1638 4.66909 15.4636 5.05879 15.2891 5.79672Z" fill="#7C58D3"/>
<path d="M18.5379 7.37781C18.3722 8.02888 18.278 8.68969 18.2553 9.36056C18.2067 10.2317 18.4209 11.0282 18.8978 11.75C19.2678 12.225 19.7561 12.4623 20.3626 12.4617C21.2344 12.3805 22.0225 12.0839 22.7268 11.572C24.607 10.2042 26.3117 8.6366 27.8408 6.86952C28.0547 6.4217 27.9862 6.01488 27.6351 5.64937C26.256 3.94622 24.8768 2.24322 23.4976 0.540067C22.3396 0.346394 21.1747 0.202357 20.0026 0.107956C20.1839 1.40209 20.0726 2.67313 19.6684 3.92077C19.2706 5.06788 18.8937 6.22018 18.5379 7.37781Z" fill="#7C58D3"/>
<path d="M28.1004 9.3609C28.5107 10.0709 28.8963 10.7995 29.2568 11.5469C29.9079 12.9876 30.1991 14.4958 30.1305 16.0716C29.8799 18.4308 29.0062 20.5322 27.5092 22.3756C26.484 23.6439 25.3104 24.754 23.9884 25.7055C18.6276 29.387 12.7684 30.5309 6.41064 29.1371C7.43348 29.8792 8.54699 30.4638 9.75149 30.891C14.8515 32.6539 19.8028 32.3151 24.6052 29.8743C28.9449 27.4767 31.4034 23.8247 31.9807 18.9187C32.1762 15.1221 30.8827 11.9361 28.1004 9.3609Z" fill="#4DC27E"/>
<path d="M3.53675 20.6469C4.52766 19.6837 5.52128 18.7179 6.51775 17.749C7.54662 18.699 8.55739 19.6649 9.55021 20.6469C10.1416 20.7143 10.7412 20.7143 11.3491 20.6469C11.3308 20.5949 11.2965 20.561 11.2463 20.5453C9.76744 19.0911 8.27694 17.6422 6.77485 16.1986C6.62066 16.0969 6.46646 16.0969 6.31226 16.1986C5.87382 16.6153 5.45411 17.0474 5.05298 17.4949C5.02741 17.2243 5.01868 16.9531 5.02725 16.6814C4.49622 16.6814 3.96503 16.6814 3.43401 16.6814C3.44258 17.4442 3.43401 18.2068 3.40828 18.9692C2.87725 19.4945 2.34607 20.0199 1.81504 20.5451C1.79026 20.5933 1.78169 20.6441 1.78931 20.6976C2.3729 20.7146 2.95538 20.6976 3.53675 20.6469Z" fill="#4DC27E"/>
<path d="M8.0059 21.1082C7.59481 21.1082 7.18356 21.1082 6.77246 21.1082C6.77246 21.5318 6.77246 21.9555 6.77246 22.3791C7.16641 22.3791 7.56051 22.3791 7.95446 22.3791C8.00543 21.9649 8.02258 21.5413 8.0059 21.1082Z" fill="#4DC27E"/>
<path d="M5.68643 22.6441C6.14805 22.6441 6.52228 22.2417 6.52228 21.7455C6.52228 21.2492 6.14805 20.8468 5.68643 20.8468C5.2248 20.8468 4.85059 21.2492 4.85059 21.7455C4.85059 22.2417 5.2248 22.6441 5.68643 22.6441Z" fill="#4DC27E"/>
<path d="M5.02619 24.1552C5.45443 24.1552 5.88267 24.1552 6.31092 24.1552C6.31092 23.7655 6.31092 23.3756 6.31092 22.9859C5.92046 22.8858 5.50937 22.8519 5.07747 22.8843C5.02666 23.2986 5.00951 23.7223 5.02619 24.1552Z" fill="#4DC27E"/>
<path d="M6.77262 24.1011C7.16657 24.1011 7.56067 24.1011 7.95462 24.1011C7.95462 23.6944 7.95462 23.2876 7.95462 22.881C7.93747 22.881 7.92032 22.881 7.90317 22.881C7.52637 22.881 7.14942 22.881 6.77246 22.881C6.77262 23.2876 6.77262 23.6944 6.77262 24.1011Z" fill="#4DC27E"/>
</svg>
