<svg width="25" height="25" viewBox="0 0 25 25" fill="none" xmlns="http://www.w3.org/2000/svg">
<path d="M13.3053 22.333C14.157 22.8813 15.1707 23.1217 16.1779 23.0141C17.1851 22.9065 18.1252 22.4574 18.8418 21.7415L19.466 21.1172C19.7429 20.8374 19.8983 20.4595 19.8983 20.0658C19.8983 19.6721 19.7429 19.2943 19.466 19.0144L16.8375 16.4022C16.5604 16.1264 16.1853 15.9715 15.7943 15.9715C15.4032 15.9715 15.0281 16.1264 14.751 16.4022V16.4022C14.4712 16.6791 14.0933 16.8345 13.6996 16.8345C13.3059 16.8345 12.9281 16.6791 12.6482 16.4022L8.4589 12.213C8.18201 11.9331 8.02669 11.5552 8.02669 11.1615C8.02669 10.7678 8.18201 10.39 8.4589 10.1101V10.1101C8.73479 9.833 8.88968 9.4579 8.88968 9.06689C8.88968 8.67587 8.73479 8.30077 8.4589 8.02367L5.9289 5.3951C5.64901 5.1182 5.27119 4.96289 4.87748 4.96289C4.48376 4.96289 4.10594 5.1182 3.82605 5.3951L3.20176 6.01939C2.473 6.72587 2.00857 7.66093 1.88599 8.6685C1.76341 9.67606 1.99008 10.6952 2.52819 11.5558C5.39289 15.8088 9.05233 19.4683 13.3053 22.333V22.333Z" stroke="#4DC27E" stroke-width="2.5" stroke-linecap="round" stroke-linejoin="round"/>
<path d="M12.5 1.68262C13.9023 1.68262 15.2909 1.95883 16.5865 2.49548C17.8821 3.03212 19.0593 3.8187 20.0509 4.8103C21.0425 5.8019 21.8291 6.97909 22.3657 8.27468C22.9024 9.57026 23.1786 10.9589 23.1786 12.3612" stroke="#4DC27E" stroke-width="2.5" stroke-linecap="round" stroke-linejoin="round"/>
<path d="M12.5 5.79004C14.2429 5.79004 15.9143 6.48238 17.1467 7.71477C18.3791 8.94715 19.0714 10.6186 19.0714 12.3615" stroke="#4DC27E" stroke-width="2.5" stroke-linecap="round" stroke-linejoin="round"/>
</svg>
