<svg width="30" height="31" viewBox="0 0 30 31" fill="none" xmlns="http://www.w3.org/2000/svg">
<path d="M15.4002 25.1663L14.946 24.2755L14.946 24.2755L15.4002 25.1663ZM14.5998 25.1663L15.054 24.2755L15.054 24.2755L14.5998 25.1663ZM22.75 14.1113C22.75 16.935 21.2854 19.2399 19.514 20.9953C17.7445 22.7489 15.7588 23.861 14.946 24.2755L15.8544 26.0572C16.7557 25.5977 18.9449 24.375 20.9218 22.4159C22.8968 20.4587 24.75 17.6731 24.75 14.1113H22.75ZM15 6.36133C19.2802 6.36133 22.75 9.83112 22.75 14.1113H24.75C24.75 8.72655 20.3848 4.36133 15 4.36133V6.36133ZM7.25 14.1113C7.25 9.83112 10.7198 6.36133 15 6.36133V4.36133C9.61522 4.36133 5.25 8.72655 5.25 14.1113H7.25ZM15.054 24.2755C14.2412 23.861 12.2555 22.7489 10.486 20.9953C8.71463 19.2399 7.25 16.935 7.25 14.1113H5.25C5.25 17.6731 7.1032 20.4587 9.07819 22.4159C11.0551 24.375 13.2443 25.5977 14.1456 26.0572L15.054 24.2755ZM14.946 24.2755C14.9589 24.2689 14.9777 24.2634 15 24.2634C15.0223 24.2634 15.0411 24.2689 15.054 24.2755L14.1456 26.0572C14.6847 26.3321 15.3153 26.3321 15.8544 26.0572L14.946 24.2755ZM17.75 14.1113C17.75 15.6301 16.5188 16.8613 15 16.8613V18.8613C17.6234 18.8613 19.75 16.7347 19.75 14.1113H17.75ZM15 11.3613C16.5188 11.3613 17.75 12.5925 17.75 14.1113H19.75C19.75 11.488 17.6234 9.36133 15 9.36133V11.3613ZM12.25 14.1113C12.25 12.5925 13.4812 11.3613 15 11.3613V9.36133C12.3766 9.36133 10.25 11.488 10.25 14.1113H12.25ZM15 16.8613C13.4812 16.8613 12.25 15.6301 12.25 14.1113H10.25C10.25 16.7347 12.3766 18.8613 15 18.8613V16.8613Z" fill="#4DC27E"/>
</svg>
