<svg width="30" height="32" viewBox="0 0 30 32" fill="none" xmlns="http://www.w3.org/2000/svg">
<path d="M8.07581 3.3375C4.40706 5.175 1.31331 6.75 1.20706 6.8375C0.882062 7.1125 0.850812 7.29375 0.894562 8.96875C1.03206 14.1625 2.33206 19.2312 4.53206 23.0938C6.26331 26.1375 8.47581 28.4875 11.2821 30.2563C12.4821 31.0125 14.5821 32 15.0008 32C15.4946 32 17.8258 30.8625 19.1508 29.975C20.3883 29.1437 20.9571 28.6812 22.0696 27.5687C23.5321 26.1062 24.5946 24.6937 25.6258 22.8187C27.7821 18.9 29.1196 13.3687 29.1258 8.3625C29.1258 7.34375 29.0883 7.13125 28.8571 6.88125C28.7821 6.8 25.6883 5.21875 21.9821 3.36875C16.4821 0.61875 15.2008 0 15.0008 0C14.8008 0 13.5258 0.612499 8.07581 3.3375ZM20.1133 6.65C23.9758 8.58125 25.0633 9.15 25.1571 9.2875C25.3258 9.55 25.3383 9.91875 25.2196 11.0625C24.8008 15.2312 23.5946 19.0625 21.8071 21.925C21.1133 23.05 20.4508 23.875 19.4446 24.8812C18.3571 25.9625 17.5196 26.6188 16.3446 27.3063C15.3196 27.9062 15.0946 27.9812 14.7258 27.8625C14.3196 27.725 13.0008 26.9375 12.2196 26.3562C11.3383 25.7125 9.73831 24.1125 9.08831 23.2375C6.75081 20.0938 5.30081 16 4.78206 11.1C4.66331 9.975 4.67581 9.55 4.84456 9.29375C4.93831 9.15 6.00081 8.59375 9.88831 6.65C13.0383 5.075 14.8821 4.1875 15.0008 4.1875C15.1196 4.1875 16.9633 5.075 20.1133 6.65Z" fill="white"/>
<path d="M10.8 8.2875L6.625 10.375V10.6187C6.625 11.3625 7.00625 13.6125 7.3875 15.0938C8.525 19.5625 10.6375 22.95 13.5938 25.0437C14.175 25.4562 14.8938 25.875 15.0063 25.875C15.15 25.875 16.075 25.3 16.7188 24.8125C19.5938 22.6375 21.6125 19.2438 22.6875 14.7812C23.0438 13.3313 23.375 11.3062 23.375 10.625V10.375L19.1875 8.28125C16.8875 7.13125 14.9938 6.1875 14.9875 6.19375C14.975 6.19375 13.0938 7.1375 10.8 8.2875Z" fill="white"/>
</svg>
