<svg width="40" height="40" viewBox="0 0 40 40" fill="none" xmlns="http://www.w3.org/2000/svg">
<path d="M2.85938 20.0003C2.85938 11.9191 2.85937 7.87846 5.36988 5.36793C7.88041 2.85742 11.921 2.85742 20.0022 2.85742C28.0834 2.85742 32.124 2.85742 34.6347 5.36793C37.1451 7.87846 37.1451 11.9191 37.1451 20.0003C37.1451 28.0814 37.1451 32.1221 34.6347 34.6327C32.124 37.1431 28.0834 37.1431 20.0022 37.1431C11.921 37.1431 7.88041 37.1431 5.36988 34.6327C2.85937 32.1221 2.85938 28.0814 2.85938 20.0003Z" stroke="white" stroke-width="2.5" stroke-linejoin="round"/>
<path d="M28.1234 19.9992C28.1234 24.484 24.4879 28.1195 20.0031 28.1195C15.5184 28.1195 11.8828 24.484 11.8828 19.9992C11.8828 15.5145 15.5184 11.8789 20.0031 11.8789C24.4879 11.8789 28.1234 15.5145 28.1234 19.9992Z" stroke="white" stroke-width="2.5"/>
<path d="M29.9463 10.0781H29.9297" stroke="white" stroke-width="4" stroke-linecap="round" stroke-linejoin="round"/>
</svg>
