<svg width="21" height="21" viewBox="0 0 21 21" fill="none" xmlns="http://www.w3.org/2000/svg">
<g clip-path="url(#clip0_557_636)">
<path d="M15.5412 0.737793L6.3104 0.737793C4.88278 0.73932 3.51407 1.30712 2.50459 2.3166C1.4951 3.32608 0.927308 4.69479 0.925781 6.12241L0.925781 15.3532C0.927308 16.7808 1.4951 18.1495 2.50459 19.159C3.51407 20.1685 4.88278 20.7363 6.3104 20.7378H15.5412C16.9688 20.7363 18.3375 20.1685 19.347 19.159C20.3565 18.1495 20.9243 16.7808 20.9258 15.3532V6.12241C20.9243 4.69479 20.3565 3.32608 19.347 2.3166C18.3375 1.30712 16.9688 0.73932 15.5412 0.737793ZM10.9258 15.3532C10.0129 15.3532 9.12061 15.0825 8.36161 14.5753C7.60261 14.0682 7.01105 13.3474 6.66172 12.504C6.31239 11.6607 6.22099 10.7327 6.39908 9.83738C6.57717 8.94208 7.01674 8.1197 7.66221 7.47422C8.30768 6.82875 9.13007 6.38918 10.0254 6.21109C10.9207 6.03301 11.8487 6.12441 12.692 6.47373C13.5354 6.82306 14.2562 7.41463 14.7633 8.17362C15.2705 8.93262 15.5412 9.82496 15.5412 10.7378C15.5399 11.9615 15.0532 13.1347 14.1879 14C13.3227 14.8652 12.1495 15.3519 10.9258 15.3532ZM16.695 6.12241C16.4668 6.12241 16.2437 6.05474 16.054 5.92795C15.8642 5.80116 15.7163 5.62096 15.629 5.41012C15.5417 5.19928 15.5188 4.96728 15.5633 4.74346C15.6079 4.51963 15.7178 4.31404 15.8791 4.15267C16.0405 3.9913 16.2461 3.88141 16.4699 3.83689C16.6937 3.79237 16.9257 3.81522 17.1366 3.90255C17.3474 3.98988 17.5276 4.13777 17.6544 4.32752C17.7812 4.51727 17.8489 4.74035 17.8489 4.96856C17.8489 5.27458 17.7273 5.56807 17.5109 5.78445C17.2945 6.00084 17.001 6.12241 16.695 6.12241ZM14.0027 10.7378C14.0027 11.3464 13.8222 11.9412 13.4841 12.4472C13.1461 12.9532 12.6655 13.3476 12.1033 13.5805C11.541 13.8134 10.9224 13.8743 10.3255 13.7556C9.72864 13.6369 9.18038 13.3438 8.75007 12.9135C8.31975 12.4832 8.0267 11.9349 7.90798 11.3381C7.78926 10.7412 7.85019 10.1225 8.08307 9.56031C8.31596 8.99807 8.71034 8.51752 9.21633 8.17942C9.72233 7.84133 10.3172 7.66087 10.9258 7.66087C11.7418 7.66087 12.5245 7.98504 13.1015 8.56208C13.6785 9.13911 14.0027 9.92174 14.0027 10.7378Z" fill="#0E081E"/>
</g>
<defs>
<clipPath id="clip0_557_636">
<rect width="20" height="20" fill="white" transform="translate(0.925781 0.737793)"/>
</clipPath>
</defs>
</svg>
