<svg width="40" height="40" viewBox="0 0 40 40" fill="none" xmlns="http://www.w3.org/2000/svg">
<g clip-path="url(#clip0_559_14309)">
<path d="M13.4683 3.84375C13.3745 3.88281 13.2573 4 13.2183 4.09375C13.0777 4.36719 12.4527 7.48438 12.1011 9.6875C11.8902 10.9609 11.8589 13 12.023 13.9062C12.3589 15.7891 13.2183 17.3594 14.4058 18.2891C14.8433 18.625 14.8902 18.7266 14.773 19.0234C14.7261 19.1484 14.648 19.1719 14.4292 19.1562C13.8433 19.1016 13.5308 19.7891 13.937 20.1953L14.1323 20.3906L13.187 21.8125C11.7573 23.9844 11.1245 25.3594 10.6323 27.3438C10.2105 29.0469 9.94485 31.5859 10.0152 33.1406C10.0464 33.8281 10.0855 33.9688 10.3433 34.4844C10.7652 35.3438 11.4448 35.8906 12.3823 36.1406C12.9683 36.2969 27.0464 36.2969 27.6245 36.1406C28.5777 35.8906 29.2808 35.2969 29.7105 34.3828C29.9058 33.9688 29.9527 33.7578 29.9839 33.1328C30.0308 32.1641 29.8745 29.9375 29.687 28.7656C29.2105 25.8359 28.6089 24.4219 26.7339 21.7656L25.7964 20.4375L26.023 20.2266C26.3198 19.9531 26.3277 19.6016 26.0464 19.3203C25.8823 19.1562 25.7964 19.125 25.5386 19.1641C25.3745 19.1875 25.2339 19.1953 25.2339 19.1875C25.2339 19.1875 25.2027 19.0703 25.1636 18.9297C25.0933 18.6953 25.1089 18.6719 25.5464 18.3281C26.7652 17.3828 27.6323 15.8047 27.9761 13.9062C28.1402 13 28.1089 10.9609 27.9058 9.6875C27.562 7.54688 26.8511 4.125 26.7105 3.96094C26.6167 3.84375 26.4917 3.78906 26.273 3.78906C26.023 3.78906 25.8667 3.875 25.3355 4.28125C24.9761 4.54688 24.3745 5.07031 23.9917 5.4375L23.2886 6.10156L22.6402 5.94531C20.9214 5.52344 19.0777 5.52344 17.3589 5.94531L16.7105 6.10938L16.0308 5.45312C15.187 4.64062 14.0152 3.75 13.7964 3.75781C13.7027 3.75781 13.5542 3.79688 13.4683 3.84375ZM15.4527 6.67188C15.8511 7.08594 16.2652 7.44531 16.3667 7.46875C16.4761 7.49219 16.7339 7.44531 16.9683 7.35938C17.8277 7.03906 18.648 6.92188 19.9995 6.92188C21.3511 6.92188 22.1714 7.03906 23.0308 7.35938C23.2573 7.44531 23.523 7.49219 23.6167 7.46875C23.7105 7.44531 24.2417 6.98438 24.7886 6.4375C25.3355 5.89062 25.8042 5.46094 25.8198 5.48438C25.9839 5.64844 26.7964 10.5703 26.8433 11.7188C26.9605 14.25 26.1792 16.3125 24.687 17.4297C23.2573 18.5 21.023 18.9531 18.6323 18.6641C15.8589 18.3203 14.1089 16.9375 13.4527 14.5547C13.0777 13.2031 13.0464 11.7656 13.3511 9.80469C13.4995 8.85938 14.0152 6.04688 14.1167 5.64844L14.1558 5.46875L14.4448 5.69531C14.6011 5.82031 15.0542 6.25781 15.4527 6.67188ZM16.7652 19.5234C17.8823 19.875 18.4995 19.9609 20.0386 19.9531C21.562 19.9531 22.312 19.8516 23.3589 19.4922C23.6714 19.3828 23.9448 19.3047 23.9605 19.3203C23.9683 19.3359 24.0073 19.4531 24.0308 19.5859C24.0777 19.8203 24.0698 19.8203 23.4605 20.0234C21.9761 20.5156 20.2886 20.7109 18.937 20.5547C17.7886 20.4219 15.8589 19.8906 15.8589 19.7031C15.8589 19.5703 15.9605 19.2969 16.0073 19.2969C16.0308 19.2969 16.3745 19.3984 16.7652 19.5234ZM15.9448 21.1406C16.7573 21.4141 17.9292 21.6953 18.562 21.7578C19.3823 21.8359 19.3745 21.8281 19.3745 22.2578C19.3745 22.6094 19.3589 22.6484 19.1402 22.7344C18.6089 22.9531 18.1245 23.7422 18.1245 24.375C18.1245 25.2656 18.8433 26.0703 19.7495 26.2188C20.312 26.3047 20.8433 26.1172 21.2886 25.6719C21.8433 25.1172 21.9995 24.5312 21.7808 23.8125C21.6714 23.4375 21.187 22.8672 20.8589 22.7344C20.648 22.6484 20.6245 22.6094 20.6245 22.2656C20.6245 21.8516 20.687 21.7969 21.1323 21.7969C21.6011 21.7969 22.9917 21.4922 23.8277 21.2109C24.5777 20.9531 24.6558 20.9453 24.7261 21.0625C24.773 21.1328 25.0777 21.5859 25.4214 22.0625C26.4995 23.5781 26.8042 24.0547 27.1948 24.8438C28.1245 26.6953 28.6011 28.9375 28.7183 31.9609C28.7808 33.4688 28.7183 33.8047 28.3042 34.2969C27.8511 34.8281 27.523 34.9531 26.4839 34.9844L25.5855 35.0156V34.3203C25.5777 33.7188 25.5542 33.5703 25.3355 33.1094C24.9995 32.3828 24.5542 31.9297 23.8433 31.5781C23.2808 31.3047 23.2105 31.2891 22.5073 31.2891C21.8277 31.2891 21.7105 31.3125 21.2417 31.5312C20.9605 31.6719 20.562 31.9375 20.3589 32.125L19.9995 32.4766L19.6402 32.125C18.1089 30.6641 15.6558 31.1094 14.7105 33.0312C14.437 33.5859 14.4136 33.6719 14.4136 34.3203V35.0156L13.5152 34.9844C12.4761 34.9531 12.148 34.8281 11.6948 34.2969C11.2808 33.8125 11.2183 33.4609 11.273 32.0781C11.4058 28.9141 11.9292 26.6406 12.9995 24.5625C13.4761 23.6406 15.1948 20.9375 15.3042 20.9375C15.3355 20.9375 15.6245 21.0234 15.9448 21.1406ZM20.4292 23.9453C20.6636 24.1719 20.687 24.5234 20.4761 24.7734C20.2652 25.0312 19.7339 25.0312 19.523 24.7734C19.1948 24.375 19.4839 23.75 19.9995 23.75C20.148 23.75 20.312 23.8203 20.4292 23.9453ZM18.148 32.625C18.5933 32.7734 19.148 33.3516 19.2808 33.8125C19.3902 34.1641 19.398 34.6016 19.312 34.75C19.1948 34.9297 18.7105 35 17.4995 35C16.2886 35 15.8042 34.9297 15.687 34.75C15.6011 34.6016 15.6089 34.1641 15.7183 33.7969C15.8355 33.3984 16.4917 32.7266 16.8745 32.6016C17.273 32.4766 17.7339 32.4844 18.148 32.625ZM23.148 32.625C23.5933 32.7734 24.148 33.3516 24.2808 33.8125C24.3902 34.1641 24.398 34.6016 24.312 34.75C24.1948 34.9297 23.7105 35 22.4995 35C21.2886 35 20.8042 34.9297 20.687 34.75C20.5855 34.5859 20.6167 34.1172 20.7495 33.7266C20.8902 33.3047 21.4761 32.7344 21.8902 32.6016C22.273 32.4766 22.7417 32.4844 23.148 32.625Z" fill="white"/>
<path d="M18.8835 11.9844C18.5085 12.1251 18.3991 12.2188 18.2507 12.5313C17.9147 13.2422 18.3288 14.3438 19.071 14.7344L19.3054 14.8516L19.1491 15.0704C18.9225 15.3829 18.6491 15.5391 18.2585 15.5938C17.5788 15.6876 17.0007 15.2032 16.8835 14.4454C16.7741 13.7657 16.235 13.5235 15.8054 13.9532C15.6179 14.1407 15.61 14.1876 15.6569 14.6172C15.7429 15.4922 16.2897 16.2501 17.1022 16.6329C17.9616 17.0313 19.0944 16.8594 19.7507 16.2344L20.0007 15.9844L20.2585 16.2344C20.9069 16.8594 22.0397 17.0313 22.8991 16.6329C23.7116 16.2501 24.2585 15.4922 24.3444 14.6172C24.3913 14.1876 24.3835 14.1407 24.196 13.9532C23.7663 13.5235 23.2272 13.7657 23.1179 14.4454C22.9304 15.6485 21.6022 16.0313 20.8757 15.0938L20.6882 14.8516L20.9225 14.7344C21.6882 14.336 22.1022 13.1954 21.7272 12.5001C21.4772 12.0235 21.1882 11.9141 20.1179 11.8907C19.4616 11.8829 19.0944 11.9063 18.8835 11.9844ZM20.6257 13.2344C20.6257 13.2969 20.5554 13.4219 20.4772 13.5235C20.3679 13.6641 20.2507 13.711 20.0007 13.711C19.7507 13.711 19.6335 13.6641 19.5241 13.5235C19.2507 13.1876 19.321 13.1251 20.0007 13.1251C20.485 13.1251 20.6257 13.1485 20.6257 13.2344Z" fill="white"/>
<path d="M3.47662 13.8438C2.78131 13.9688 1.88287 14.4688 1.30474 15.0391C-0.695256 17.0235 -0.296819 20.4219 2.10162 21.836L2.50006 22.0704V23.6641C2.50006 24.6563 2.53131 25.3751 2.59381 25.5626C2.70318 25.9376 3.18756 26.5079 3.50787 26.6407L3.74224 26.7344L3.76568 29.0548L3.78912 31.3751L4.08599 31.9688C4.42974 32.6798 4.88287 33.1173 5.62506 33.4688C6.10162 33.6954 6.19537 33.711 7.24224 33.7344C8.34381 33.7657 8.35162 33.7657 8.54693 33.5704C8.81256 33.3048 8.81256 32.9454 8.55474 32.6954C8.37506 32.5079 8.32037 32.5001 7.44537 32.5001C6.64068 32.5001 6.46881 32.4766 6.12506 32.3126C5.66412 32.1016 5.21881 31.6094 5.09381 31.1798C5.03131 30.9844 5.00006 30.1563 5.00006 28.8048C5.00006 26.7735 5.00006 26.7266 5.16412 26.6798C5.45318 26.586 5.88287 26.1407 6.06256 25.7423C6.24224 25.3751 6.25006 25.2657 6.25006 23.7032V22.0469L6.50006 21.9454C6.64068 21.8907 7.03131 21.5704 7.38287 21.2344L8.00787 20.6251H9.12506C10.2032 20.6251 10.2501 20.6173 10.4297 20.4298L10.6251 20.2423V18.1251V16.0079L10.4297 15.8204C10.2501 15.6329 10.2032 15.6251 9.13287 15.6251H8.03131L7.49224 15.0782C6.42974 14.0079 4.97662 13.5548 3.47662 13.8438ZM5.75006 15.3438C6.14849 15.5469 6.42193 15.7423 6.65631 16.0235C6.84381 16.2423 7.08599 16.5235 7.20318 16.6485L7.40631 16.8751H8.39068H9.37506V18.1251V19.3751H8.36724H7.35162L7.09381 19.7032C6.61724 20.3048 6.17193 20.7032 5.68756 20.9454C5.41412 21.086 5.15631 21.2501 5.10162 21.3204C5.03131 21.4141 5.00787 21.9688 5.00006 23.3438V25.2423L4.80474 25.4298C4.55474 25.6876 4.19537 25.6876 3.94537 25.4298L3.75006 25.2423V23.3438C3.74224 21.9766 3.71881 21.4141 3.64849 21.3204C3.59381 21.2579 3.29693 21.0626 2.98443 20.8985C2.31256 20.5469 1.87506 20.086 1.53131 19.3751C1.31256 18.9141 1.28912 18.7969 1.28912 18.1251C1.28912 17.4532 1.31256 17.336 1.53912 16.8594C1.85162 16.1954 2.29693 15.711 2.88287 15.4063C3.50006 15.0704 3.83599 15.0001 4.56256 15.0391C5.07818 15.0626 5.27349 15.1094 5.75006 15.3438Z" fill="white"/>
<path d="M3.69531 16.3828C3.0625 16.6016 2.5 17.4297 2.5 18.125C2.5 19.0859 3.40625 20 4.375 20C5.10156 20 5.95312 19.375 6.15625 18.6797C6.35938 18.0156 6.21875 17.4219 5.72656 16.875C5.20312 16.2891 4.46094 16.1094 3.69531 16.3828ZM4.80469 17.6953C5.19531 18.0781 4.92188 18.75 4.375 18.75C4.05469 18.75 3.75 18.4453 3.75 18.125C3.75 17.8047 4.05469 17.5 4.375 17.5C4.52344 17.5 4.6875 17.5703 4.80469 17.6953Z" fill="white"/>
<path d="M29.8827 15.3828C29.4842 15.4844 29.1639 15.6875 28.8905 16.0156C28.3983 16.5781 28.3124 17.2656 28.6327 17.9609L28.8358 18.3828L28.1639 19.0625C27.4139 19.8359 27.328 20.0703 27.6952 20.4297C28.0546 20.7969 28.2889 20.7109 29.0702 19.9453L29.7655 19.2656L29.9374 19.4375L30.1092 19.6094L29.4296 20.3047C28.6639 21.0859 28.578 21.3203 28.9452 21.6797C29.3046 22.0469 29.5389 21.9609 30.3202 21.1953L31.0155 20.5156L31.1874 20.6875L31.3592 20.8594L30.6796 21.5547C29.9139 22.3359 29.828 22.5703 30.1952 22.9297C30.5546 23.2969 30.7889 23.2109 31.5702 22.4453L32.2655 21.7656L32.4374 21.9375L32.6092 22.1094L31.9296 22.8047C31.1639 23.5859 31.078 23.8203 31.4452 24.1797C31.8046 24.5469 32.0389 24.4609 32.8202 23.6953L33.5155 23.0156L33.6874 23.1875L33.8592 23.3594L33.1796 24.0547C32.4139 24.8359 32.328 25.0703 32.6952 25.4297C33.0546 25.7969 33.2889 25.7109 34.0702 24.9453L34.7655 24.2656L35.9999 25.4766C37.2811 26.7422 37.4842 26.875 38.1405 26.875C39.1092 26.875 39.9999 25.9766 39.9999 25C39.9999 24.2734 40.078 24.3672 35.6327 19.8984C33.328 17.5859 31.3202 15.625 31.1639 15.5469C30.8358 15.375 30.2186 15.2969 29.8827 15.3828ZM34.6639 20.6484C38.3983 24.3828 38.7499 24.75 38.7499 24.9844C38.7499 25.3281 38.453 25.625 38.1092 25.625C37.8749 25.625 37.5077 25.2734 33.7733 21.5391C30.0389 17.8047 29.6874 17.4375 29.6874 17.2031C29.6874 17.0312 29.7499 16.8828 29.8827 16.7578C30.0077 16.625 30.1561 16.5625 30.328 16.5625C30.5624 16.5625 30.9296 16.9141 34.6639 20.6484Z" fill="white"/>
</g>
<defs>
<clipPath id="clip0_559_14309">
<rect width="40" height="40" fill="white"/>
</clipPath>
</defs>
</svg>
