<svg width="40" height="40" viewBox="0 0 40 40" fill="none" xmlns="http://www.w3.org/2000/svg">
<path d="M10.1418 0.0782051C8.36056 0.398518 6.8215 1.53914 6.05588 3.09383C5.61056 4.00008 5.43869 4.79696 5.49338 5.82039C5.51681 6.28914 5.59494 6.86727 5.65744 7.08602L5.79025 7.49227L3.68088 10.0313C2.52463 11.4298 1.51681 12.672 1.45431 12.8048C1.12619 13.4298 1.36838 13.9063 2.34494 14.6016C2.75119 14.8985 3.16525 15.172 3.259 15.2266C3.47775 15.336 4.02463 15.336 4.23556 15.2266C4.3215 15.1798 5.61056 14.2266 7.09494 13.1016L9.79806 11.0626L13.2434 12.211L16.6965 13.3595L17.2746 14.1954C17.5949 14.6485 17.9621 15.0938 18.0871 15.172C18.4231 15.3751 18.9778 15.3595 19.3059 15.1329C19.634 14.9141 22.5481 10.9298 22.6731 10.5313C22.7903 10.1329 22.6965 9.73446 22.3996 9.42977C22.1653 9.17977 21.7278 9.00789 20.2199 8.57039C20.1965 8.56258 19.1106 7.11727 17.8137 5.35164C15.2903 1.91414 15.0246 1.59383 14.7199 1.51571C14.4231 1.43758 14.1106 1.70321 14.0793 2.05477C14.0559 2.28133 14.1028 2.39071 14.3215 2.63289C14.6106 2.96102 18.9856 8.89071 19.0324 9.02352C19.0715 9.12508 16.8996 12.1095 16.7903 12.1095C16.5637 12.1095 9.43869 9.71102 8.97775 9.47664C7.59494 8.78914 6.64963 7.21102 6.64181 5.60946C6.64181 4.87508 6.76681 4.35946 7.11056 3.63289C8.00119 1.78133 10.1028 0.81258 12.1418 1.32821C12.8293 1.50008 12.8371 1.50008 13.0403 1.34383C13.2668 1.17977 13.3449 0.81258 13.2043 0.554768C13.009 0.179768 11.1418 -0.109295 10.1418 0.0782051ZM7.06369 9.51571C7.22775 9.69539 7.61056 10.0079 7.90744 10.211C8.43088 10.5548 8.4465 10.5704 8.30588 10.7032C8.22775 10.7735 7.17306 11.586 5.95431 12.5001L3.74338 14.1641L3.33713 13.8829C3.11056 13.7266 2.83713 13.5157 2.72775 13.422L2.51681 13.2423L4.43088 10.9454L6.35275 8.65633L6.55588 8.91414C6.66525 9.06258 6.89181 9.32821 7.06369 9.51571ZM20.8059 9.96883C21.1809 10.086 21.4856 10.211 21.4856 10.2579C21.4856 10.3829 18.7278 14.1329 18.6653 14.0938C18.5871 14.047 17.8918 13.047 17.8371 12.9141C17.7981 12.8282 19.9699 9.76571 20.0715 9.76571C20.0949 9.76571 20.4231 9.85946 20.8059 9.96883Z" fill="white"/>
<path d="M10.1558 3.125C9.03862 3.53906 8.36674 4.57812 8.45268 5.77344C8.52299 6.72656 9.06205 7.53125 9.91362 7.94531C10.2964 8.13281 10.4449 8.16406 11.0542 8.16406C11.6246 8.16406 11.8277 8.125 12.1167 7.98438C12.7027 7.69531 13.0933 7.30469 13.3746 6.73438C13.8511 5.77344 13.6949 4.625 12.9761 3.80469C12.3511 3.10156 11.0621 2.78906 10.1558 3.125ZM11.7027 4.30469C12.6636 4.77344 12.7574 6.17969 11.8589 6.77344C10.8824 7.42188 9.60893 6.75 9.60893 5.58594C9.60893 4.5 10.7105 3.82812 11.7027 4.30469Z" fill="white"/>
<path d="M22.8681 11.4219C22.665 11.5859 22.5791 11.8984 22.6884 12.1172C22.7353 12.2188 23.0947 12.5391 23.4775 12.8281C24.0009 13.2266 24.2431 13.3594 24.4384 13.3594C24.9228 13.3594 25.1806 12.8047 24.8681 12.4375C24.79 12.3516 24.4306 12.0625 24.0791 11.8047C23.4072 11.3203 23.1259 11.2266 22.8681 11.4219Z" fill="white"/>
<path d="M22.5004 13.3046C22.2739 13.4218 22.1489 13.7265 22.2114 13.9921C22.266 14.1952 23.4379 15.1093 23.8442 15.2655C24.2817 15.4296 24.7348 14.9218 24.516 14.4999C24.3676 14.2187 22.9301 13.1874 22.7114 13.203C22.7035 13.203 22.6098 13.2499 22.5004 13.3046Z" fill="white"/>
<path d="M20.8535 14.3203C20.752 14.375 20.6191 14.5156 20.5488 14.6328C20.4473 14.8203 20.4473 14.8672 20.5488 15.0547C20.7129 15.3438 22.0801 16.3281 22.3223 16.3281C22.5566 16.3281 22.8926 16 22.8926 15.7812C22.8926 15.4922 22.752 15.3359 22.0801 14.8516C21.291 14.2812 21.1035 14.2031 20.8535 14.3203Z" fill="white"/>
<path d="M26.6278 15.4297C26.2216 15.6562 26.245 16.1172 26.6903 16.4531C26.8934 16.6094 26.9559 16.7188 26.9559 16.9062C26.9559 17.4297 26.3544 17.9922 25.4325 18.3281C24.9716 18.4922 24.7841 18.5156 23.6903 18.5156C21.8934 18.5156 20.9403 18.7188 19.9872 19.2969L19.5106 19.5859L18.7997 19.1719C17.7919 18.5859 17.3544 18.4844 15.8622 18.5312C14.7763 18.5703 14.5809 18.5938 13.9481 18.8125C12.3309 19.3594 11.1903 20.3672 10.4716 21.8906C10.1434 22.5859 10.0106 23.2734 9.89345 25.0234C9.77626 26.8047 9.82313 27.2422 10.1747 27.9062C10.6669 28.8359 11.5341 29.3828 12.62 29.4375C13.2138 29.4688 13.5809 29.3906 14.2294 29.1094C14.3466 29.0625 14.3622 29.1875 14.3934 30.3281C14.4325 31.4922 14.4559 31.6641 14.6747 32.3438C14.8075 32.75 15.0497 33.3125 15.2138 33.5938C15.5263 34.125 16.4716 35.1719 16.9169 35.4766C17.0888 35.5938 17.2294 35.7891 17.3153 36.0156C17.6122 36.8125 18.1044 37.4375 18.8153 37.9219C19.4872 38.375 20.1513 38.5938 20.9325 38.6172L21.5497 38.6328L21.9872 39.0469C23.3075 40.2969 25.2919 40.2969 26.6122 39.0469L27.0497 38.6328L27.6669 38.6172C28.3309 38.5938 29.0419 38.3984 29.5966 38.0781C30.2997 37.6719 31.0653 36.7188 31.3231 35.9375C31.3856 35.75 31.5575 35.5547 31.8856 35.3125C32.4091 34.9219 32.8075 34.4766 33.2684 33.7656C33.9481 32.7188 34.2216 31.6484 34.2216 30.0703C34.2216 29.125 34.2294 29.0469 34.3622 29.1016C35.3466 29.5312 36.2528 29.5625 37.0497 29.2031C37.9325 28.7969 38.5966 27.9453 38.7528 27.0234C38.8466 26.4375 38.6356 23.5781 38.4403 22.7891C38.2528 22.0391 37.7763 21.1094 37.2997 20.5625C36.9872 20.2031 36.9091 20.1562 36.6434 20.1562C36.4169 20.1562 36.3075 20.2031 36.2216 20.3281C36.0106 20.6172 36.0731 20.875 36.4481 21.3672C36.8466 21.875 37.2059 22.5938 37.3388 23.1406C37.4638 23.6719 37.6591 26.5625 37.5888 26.8828C37.495 27.2812 37.3075 27.6094 37.0184 27.8516C36.3544 28.4141 35.6513 28.4219 34.5809 27.8906C33.9481 27.5703 33.87 27.5078 33.7684 27.2266C33.5653 26.7031 30.6278 21.2344 30.3075 20.8047L30.0028 20.3984L30.6122 20.0625L31.2138 19.7266H32.4638C33.4481 19.7266 33.8075 19.7578 34.1747 19.8672C34.7216 20.0391 35.0106 19.9609 35.1591 19.6094C35.4403 18.9297 34.7138 18.6094 32.7372 18.5391C31.2997 18.4922 30.8309 18.5781 30.0028 19.0625C29.7059 19.2344 29.4481 19.375 29.4325 19.375C29.4091 19.375 29.4403 19.2422 29.5028 19.0781C29.8778 18.0312 29.2528 17.0469 28.5575 17.5938C28.3544 17.75 28.3466 17.7891 28.3934 18.1797C28.4872 18.9531 28.1513 19.3359 27.1825 19.5703C26.4091 19.7656 26.1513 20.1406 26.495 20.5781C26.6981 20.8359 27.1434 20.8516 27.8231 20.625L28.2919 20.4609L28.5184 20.625C29.1356 21.0625 29.5028 21.6406 31.1122 24.6641C32.0028 26.3281 32.7841 27.8906 32.8622 28.125C33.0653 28.7891 33.1044 30.75 32.9325 31.5234C32.7763 32.25 32.3075 33.2109 31.8622 33.7109L31.5341 34.0859L31.37 33.5469C31.1513 32.8281 30.8388 32.3203 30.3075 31.7969C29.6356 31.1328 28.8778 30.8047 27.7216 30.6641C27.3856 30.6172 27.3466 30.5938 27.3466 30.4219C27.3466 29.9453 26.8388 29.4141 26.1434 29.1484C25.1356 28.7734 23.4638 28.7734 22.4559 29.1484C21.8622 29.375 21.3544 29.8672 21.2841 30.2891C21.245 30.5625 21.2059 30.6172 21.0028 30.6562C20.87 30.6797 20.6513 30.7031 20.5184 30.7031C20.1122 30.7109 19.2528 31.0547 18.7372 31.4297C17.9794 31.9688 17.5106 32.625 17.2372 33.5312L17.0653 34.0859L16.7372 33.7109C16.2919 33.2109 15.8231 32.25 15.6669 31.5234C15.4638 30.6172 15.5341 28.7578 15.7997 28.0078C15.9872 27.4609 18.3856 22.8906 19.0419 21.8203C19.4716 21.1172 20.0809 20.5547 20.8075 20.1953C21.62 19.7969 22.245 19.6875 23.7606 19.6875C25.1903 19.6875 25.5341 19.625 26.4091 19.1797C27.8153 18.4688 28.4716 17.1719 27.9638 16.1094C27.6903 15.5469 27.0263 15.2109 26.6278 15.4297ZM17.3309 19.7578C17.4716 19.8047 17.8153 19.9609 18.0888 20.1172L18.5888 20.3906L18.2528 20.8828C17.9091 21.3828 15.5809 25.6797 14.9872 26.9141L14.6591 27.6016L13.995 27.9219C12.8153 28.4844 11.9559 28.3828 11.3544 27.5938C11.2216 27.4141 11.0809 27.1172 11.0341 26.9297C10.9481 26.4922 11.1278 23.7422 11.2919 23.0938C11.7138 21.4609 13.0497 20.1641 14.6981 19.8047C15.2763 19.6797 16.9559 19.6562 17.3309 19.7578ZM25.0028 30.0859C25.2841 30.125 25.6669 30.2344 25.8544 30.3203L26.1981 30.4688L26.1513 30.8594C26.0341 31.8516 25.2059 32.6562 24.2997 32.6562C23.3934 32.6562 22.5653 31.8516 22.4481 30.8594L22.4013 30.4688L22.7606 30.3125C23.3778 30.0391 24.2059 29.9531 25.0028 30.0859ZM21.6356 32.1484C22.1747 33.1641 23.2294 33.8281 24.3075 33.8281C24.8388 33.8281 25.6122 33.5625 26.0575 33.2188C26.3934 32.9688 27.0263 32.1641 27.1278 31.8672C27.1747 31.7188 28.3544 31.9062 28.8153 32.1406C29.8934 32.6875 30.5497 33.9844 30.3153 35.125C30.0575 36.3516 29.1747 37.2188 28.0028 37.4141C26.745 37.6094 25.5809 36.9844 24.9794 35.7734C24.5184 34.8594 24.0809 34.8594 23.62 35.7812C22.9325 37.1641 21.4325 37.7812 20.0419 37.2578C19.3934 37.0156 18.6825 36.3047 18.4403 35.6641C17.8231 33.9844 18.8622 32.1719 20.62 31.875C21.37 31.75 21.4325 31.7656 21.6356 32.1484ZM24.5341 37.2656C24.6278 37.3984 24.9481 37.6797 25.245 37.8906L25.7919 38.2656L25.5497 38.4375C25.245 38.6562 24.6825 38.8281 24.2919 38.8281C23.9325 38.8281 23.3231 38.6328 23.0263 38.4219L22.8153 38.2734L23.2841 37.9531C23.5497 37.7812 23.87 37.5 24.0028 37.3359C24.1356 37.1719 24.2763 37.0312 24.3075 37.0312C24.3388 37.0312 24.4403 37.1406 24.5341 37.2656Z" fill="white"/>
<path d="M19.2266 26.5703C18.75 26.7578 18.125 27.4296 18.125 27.7499C18.125 27.8359 18.2344 28.0078 18.3594 28.1406C18.6641 28.4374 18.9062 28.3906 19.3047 27.9609C19.4609 27.7968 19.6484 27.6562 19.7266 27.6562C19.8047 27.6562 19.9922 27.7968 20.1484 27.9609C20.4766 28.3203 20.6875 28.3984 20.9609 28.2734C21.2422 28.1406 21.375 27.7968 21.25 27.4999C21.1328 27.2109 20.6172 26.7421 20.2656 26.5937C19.9688 26.4687 19.5 26.4609 19.2266 26.5703Z" fill="white"/>
<path d="M28.3148 26.5938C27.9789 26.7423 27.557 27.1251 27.3851 27.4454C27.2601 27.6798 27.2523 27.7501 27.3382 27.9532C27.4476 28.2188 27.7601 28.3907 28.0023 28.3126C28.0882 28.2892 28.2914 28.1251 28.4476 27.961C28.6039 27.797 28.7914 27.6563 28.8695 27.6563C28.9476 27.6563 29.1351 27.797 29.2914 27.961C29.4476 28.1251 29.6507 28.2892 29.7367 28.3126C29.9789 28.3907 30.2914 28.2188 30.4007 27.9532C30.4867 27.7501 30.4789 27.6798 30.3539 27.4454C29.9398 26.6798 29.0101 26.297 28.3148 26.5938Z" fill="white"/>
</svg>
