<svg width="40" height="40" viewBox="0 0 40 40" fill="none" xmlns="http://www.w3.org/2000/svg">
<g clip-path="url(#clip0_559_14272)">
<path d="M14.5721 0.157832C13.9426 0.383308 13.1253 0.946999 12.7683 1.39795C11.7818 2.64747 11.4906 4.49825 12.0543 6.03901C12.5146 7.33549 13.7172 8.67896 16.8363 11.4035C18.2831 12.6718 18.7058 12.9442 19.2319 12.9536C19.7675 12.9536 20.1245 12.7281 21.7498 11.3095C25.752 7.80524 26.6821 6.50875 26.6915 4.39491C26.7009 3.07023 26.3345 2.10256 25.5265 1.23824C24.6528 0.317544 23.6945 -0.0582495 22.398 0.007514C21.3552 0.0638838 20.566 0.430283 19.7768 1.23824L19.2038 1.82072L18.6495 1.23824C18.2831 0.843656 17.9073 0.552416 17.4845 0.345729C16.9396 0.0732784 16.7611 0.0356989 15.9719 0.0169096C15.2767 -0.0112753 14.9573 0.0263042 14.5721 0.157832ZM16.902 1.71738C17.2121 1.86769 17.5503 2.2153 18.2831 3.11721L19.2413 4.31035L20.1245 3.21116C20.613 2.60049 21.0921 2.02741 21.1861 1.94285C21.778 1.41674 22.8959 1.32279 23.7133 1.72677C24.2958 2.00862 24.6434 2.37502 24.944 3.04205C25.5077 4.30096 25.2353 5.66321 24.1361 6.99728C23.5912 7.65492 19.4198 11.4504 19.2319 11.4504C19.1192 11.4504 16.0283 8.69775 15.0137 7.6925C14.2057 6.88454 13.952 6.56512 13.6514 5.95445C13.3038 5.24984 13.285 5.16529 13.285 4.36672C13.2944 3.69969 13.332 3.41784 13.4917 3.07963C14.1399 1.65161 15.5961 1.06913 16.902 1.71738Z" fill="white"/>
<path d="M6.2203 5.10856C4.90502 5.47495 4.05948 6.51778 3.95614 7.88004L3.90917 8.4907L3.31729 8.50949C2.58449 8.52828 2.0302 8.76315 1.45711 9.28926C-0.0742486 10.6985 0.245176 13.1599 2.11475 14.4188C3.15758 15.1235 4.37891 15.2456 7.84561 15.0107C10.2413 14.851 10.3446 14.7383 10.5043 12.1453C10.758 8.19007 10.5419 7.12845 9.27362 5.95409C8.4093 5.14614 7.23494 4.82671 6.2203 5.10856ZM7.8644 6.74326C8.29656 6.95934 8.55022 7.23179 8.83207 7.78609C9.04815 8.19007 9.05754 8.29341 9.04815 10.0878C9.04815 11.1213 9.01057 12.2862 8.97299 12.6808C8.90722 13.3666 8.88844 13.4042 8.65356 13.4606C8.51264 13.4888 7.42284 13.5451 6.23909 13.5733C3.75885 13.6485 3.37366 13.5827 2.68784 12.9626C1.68259 12.0607 1.75775 10.6797 2.83815 10.1442L3.28911 9.91872L4.47286 10.0784C5.1211 10.163 5.666 10.2194 5.6754 10.21C5.68479 10.1912 5.63782 9.69324 5.56266 9.10137C5.37476 7.51364 5.51569 7.07208 6.30485 6.6681C6.77459 6.42383 7.30071 6.45202 7.8644 6.74326Z" fill="white"/>
<path d="M32.2141 5.10851C31.5188 5.30581 31.0209 5.61584 30.5042 6.17013C29.4332 7.3163 29.2547 8.34974 29.499 12.1453C29.6681 14.7852 29.7338 14.851 32.3644 15.0201C35.6996 15.2362 36.9772 15.0858 38.0201 14.3343C40.4158 12.6244 39.8051 9.07314 37.0336 8.53763C36.7142 8.47187 36.3666 8.44369 36.2726 8.46248C36.1129 8.50945 36.0847 8.44369 36.0472 7.88939C35.9814 7.02506 35.6808 6.37682 35.0701 5.82252C34.2809 5.09912 33.2099 4.83606 32.2141 5.10851ZM33.6891 6.66806C34.4876 7.05325 34.6285 7.5042 34.4312 9.10133C34.3655 9.6932 34.3185 10.1911 34.3279 10.2099C34.3373 10.2193 34.8916 10.1629 35.5586 10.0878C36.7612 9.94686 36.7706 9.94686 37.1933 10.1629C37.6819 10.3978 38.0389 10.9897 38.0389 11.544C38.0295 12.3332 37.3343 13.1787 36.4323 13.4699C35.9814 13.6202 35.6996 13.6296 33.7642 13.5733C32.5805 13.5451 31.4907 13.4887 31.3497 13.4605C31.1149 13.4042 31.0961 13.3666 31.0303 12.6808C30.9927 12.2862 30.9552 11.1212 30.9552 10.0878C30.9458 8.50005 30.9739 8.15245 31.1055 7.8706C31.4249 7.19417 31.9134 6.76201 32.5899 6.55532C32.9938 6.43319 33.2663 6.46137 33.6891 6.66806Z" fill="white"/>
<path d="M18.3589 14.513C18.2556 14.5318 17.9361 14.5976 17.6543 14.654C16.8557 14.8137 15.8317 15.274 15.0801 15.8189L14.3849 16.3169H13.6333C12.1865 16.3262 11.0215 16.8336 9.95052 17.9234C9.28348 18.5998 9.18954 18.7501 8.04336 21.0331C6.69051 23.72 6.50261 24.2931 6.60595 25.5238C6.73748 27.1961 7.75212 28.8684 9.10498 29.6481C9.33985 29.7891 9.53714 29.9018 9.54654 29.9112C9.56533 29.9206 9.50896 30.2212 9.4338 30.5782C9.23651 31.5271 9.2553 33.0303 9.48078 33.9792C10.1948 36.9667 12.5623 39.2685 15.5498 39.8697C16.1981 40.0013 16.8275 40.0201 19.5896 39.9919C22.6242 39.9543 22.9154 39.9355 23.5261 39.7476C27.4249 38.5451 29.8112 34.6838 29.0784 30.7661C28.9845 30.3152 28.9281 29.93 28.9469 29.9206C28.9657 29.9112 29.2006 29.7609 29.4636 29.5918C30.497 28.9435 31.3896 27.7128 31.6996 26.5103C31.8781 25.815 31.8781 24.5092 31.6996 23.8139C31.6244 23.5133 31.0232 22.2074 30.3655 20.9109C29.2381 18.6844 29.1348 18.5059 28.5053 17.8858C27.4625 16.8524 26.2694 16.3356 24.8883 16.3356C24.2025 16.3356 24.1649 16.3262 23.667 15.9505C23.0375 15.4713 21.8444 14.8888 21.0834 14.6915C20.5291 14.5412 18.7347 14.4191 18.3589 14.513ZM21.0364 16.2323C22.5208 16.702 23.7797 17.7824 24.4656 19.1917C24.832 19.9433 25.0574 20.723 26.3069 25.7305L27.7256 31.4144L27.6786 32.4478C27.594 34.2046 27.0585 35.4166 25.7902 36.6755C24.4749 37.9908 23.1503 38.5075 21.1116 38.5075H20.003V35.5669V32.6357L20.5197 32.4102C21.2619 32.0908 21.9102 31.358 22.1638 30.55C22.4081 29.7421 22.3987 29.3475 22.1168 28.765C21.8538 28.2389 21.3934 27.8725 20.8016 27.7128C20.313 27.5813 18.3683 27.5813 17.7576 27.7128C16.6772 27.9383 16.0008 29.0281 16.2451 30.1367C16.4799 31.1983 17.1845 32.0908 18.0771 32.4666L18.4998 32.6357V35.5857V38.5263L17.1188 38.4887C15.8975 38.4511 15.6438 38.4135 15.0425 38.1881C13.3233 37.5492 12.1489 36.4876 11.4067 34.9186C10.9464 33.951 10.7961 33.2558 10.7961 32.1941C10.7961 31.1795 10.7209 31.4989 12.8253 23.3348C13.84 19.4265 14.0561 18.8629 14.9392 17.9046C15.8035 16.9557 16.9121 16.3169 18.171 16.0538C18.7911 15.9129 20.3506 16.0162 21.0364 16.2323ZM12.6656 18.6374C12.3838 19.2293 12.055 20.3566 11.1625 23.8515C10.533 26.3036 9.9881 28.3423 9.95052 28.3892C9.92233 28.4268 9.65928 28.2483 9.37743 27.9946C8.74798 27.431 8.31581 26.6512 8.1561 25.7963C7.95881 24.7252 8.09973 24.2555 9.39622 21.6813C10.5988 19.2762 10.9933 18.7407 11.8389 18.2992C12.1959 18.1207 12.9757 17.8388 13.0226 17.8764C13.032 17.8764 12.8723 18.224 12.6656 18.6374ZM26.4573 18.2146C27.4061 18.6844 27.8195 19.2293 28.9939 21.5028C30.1964 23.8515 30.3467 24.2555 30.3561 25.1856C30.3561 25.9654 30.1682 26.6042 29.7549 27.2618C29.4636 27.7128 28.7872 28.361 28.6087 28.361C28.5523 28.361 27.9886 26.3412 27.3686 23.8703C26.3257 19.7648 26.1003 19.0414 25.5648 17.9985C25.4896 17.8482 25.9218 17.9516 26.4573 18.2146ZM20.6419 29.263C20.8861 29.4321 20.9049 29.7327 20.7076 30.2118C20.4258 30.8883 19.956 31.1983 19.2326 31.1983C18.4529 31.1983 17.861 30.6628 17.6919 29.7891C17.6449 29.5824 17.6825 29.4602 17.8328 29.3099C18.0113 29.1314 18.1334 29.1126 19.2326 29.1126C20.1627 29.1126 20.4727 29.1408 20.6419 29.263Z" fill="white"/>
<path d="M15.5858 22.1507C15.1348 22.2446 14.7497 22.4607 14.3927 22.8365C13.9887 23.2593 13.8008 23.7384 13.8008 24.3679C13.8008 24.8 13.8384 24.9316 14.0357 25.1195C14.543 25.6362 15.304 25.2604 15.304 24.49C15.304 23.776 15.7737 23.419 16.328 23.7008C16.6474 23.87 16.7132 24.0203 16.7132 24.5182C16.7132 25.1289 17.2393 25.5047 17.7936 25.298C18.0097 25.2134 18.2164 24.7625 18.2164 24.3585C18.2164 22.9868 16.9105 21.8876 15.5858 22.1507Z" fill="white"/>
<path d="M22.0702 22.1507C21.0086 22.3668 20.2946 23.2499 20.2852 24.3491C20.2852 24.8 20.3227 24.9316 20.52 25.1195C21.0273 25.6362 21.7883 25.2604 21.7883 24.49C21.7883 24.0109 21.9668 23.7102 22.305 23.6257C22.803 23.5036 23.1882 23.8887 23.1976 24.5276C23.1976 24.8846 23.2445 24.9973 23.4418 25.157C23.9022 25.5234 24.5222 25.3074 24.6632 24.7343C24.8135 24.1424 24.494 23.1935 23.9773 22.705C23.517 22.2634 22.6996 22.0286 22.0702 22.1507Z" fill="white"/>
</g>
<defs>
<clipPath id="clip0_559_14272">
<rect width="40" height="40" fill="white"/>
</clipPath>
</defs>
</svg>
