<svg width="40" height="32" viewBox="0 0 40 32" fill="none" xmlns="http://www.w3.org/2000/svg">
<path d="M12.5937 0.421909C11.4141 0.734409 10.6406 1.46097 10.1094 2.74222C9.75781 3.57816 9.44531 3.89066 8.60937 4.23441C7.57031 4.6641 6.96094 5.21878 6.49219 6.13285C6.39844 6.32035 6.28906 6.46878 6.25 6.46878C6.21094 6.46878 5.8125 6.71097 5.36719 7.00785C4.22656 7.77347 3.32812 8.73441 2.85156 9.69535C2.52344 10.3672 2.42187 10.75 1.27344 15.6875L0.046875 20.961V22.0547C0.0546875 23.0157 0.078125 23.2344 0.265625 23.8516C0.84375 25.75 2.03125 27.1407 3.88281 28.0625C6.75 29.4922 10.6094 30.7344 13.8672 31.2735C15.8594 31.6016 17.0703 31.711 19.1797 31.7579C22.6562 31.836 25.6406 31.5079 28.9062 30.6875C30.5312 30.2813 32.5234 29.6328 32.6797 29.4532C32.8672 29.25 32.8437 28.8438 32.6484 28.6485C32.4375 28.4375 32.2891 28.461 30.8203 28.9219C26.9219 30.1563 23.1406 30.6875 19.1406 30.5782C14.1328 30.4454 9.48437 29.3672 5.04687 27.3125C3.61719 26.6563 3.02344 26.2344 2.35937 25.4063C1.5625 24.4063 1.21094 23.3828 1.21875 22.0157C1.21875 21.1407 1.25 21 2.36719 16.1563C2.99219 13.4297 3.57031 11.0157 3.64062 10.8047C3.9375 9.89066 4.75 8.85941 5.69531 8.19535L6.16406 7.86722L6.21094 8.08597C6.3125 8.59379 6.4375 8.95316 6.61719 9.30472L6.80469 9.68754L6.30469 10.1719C5.60156 10.8594 5.35156 11.3907 5.35156 12.211C5.35937 12.7422 5.39062 12.8985 5.57812 13.2657C5.82812 13.7344 6.53906 14.4766 6.97656 14.711C7.32031 14.8907 7.63281 14.8125 7.80469 14.5078C7.96875 14.2032 7.85937 13.9453 7.40625 13.586C7.1875 13.4063 6.89844 13.1172 6.76562 12.9375C6.5625 12.6641 6.52344 12.5313 6.52344 12.1719C6.52344 11.8125 6.5625 11.6797 6.76562 11.4063C6.89844 11.2266 7.16406 10.961 7.35156 10.8047L7.69531 10.5391L7.95312 10.6953C8.76562 11.1719 9.78125 11.2735 10.875 10.9922C11.9609 10.7188 12.125 10.8047 13.9844 12.6719L15.4297 14.125L14.5703 14.9844L13.7109 15.836L12.7422 15.6407C12.2109 15.5313 11.3281 15.3125 10.7891 15.1485C10.0078 14.9141 9.75781 14.8672 9.58594 14.9219C9.20312 15.0547 9.08594 15.5547 9.375 15.8438C9.64062 16.1094 11.6719 16.6563 13.5703 16.9766C15.8203 17.3594 16.875 17.4375 19.9219 17.4453C22.8281 17.4453 23.6641 17.3985 25.7578 17.0938C29.6719 16.5235 32.875 15.2657 34.0156 13.8672C34.5078 13.25 34.6406 12.8985 34.6484 12.211C34.6484 11.3907 34.3984 10.8594 33.6953 10.1719L33.1953 9.68754L33.3828 9.30472C33.5625 8.95316 33.6875 8.59379 33.7891 8.08597L33.8359 7.86722L34.3047 8.20316C34.5703 8.38285 35.0156 8.7891 35.3125 9.1016C36.2187 10.0703 36.2344 10.1094 37.5781 15.961C38.2266 18.7969 38.7812 21.3672 38.8047 21.6797C38.8906 22.75 38.5781 23.9766 38 24.8828C37.3437 25.9063 36.625 26.5235 35.3437 27.1407C34.2187 27.6797 34.0312 27.9219 34.3828 28.375C34.6328 28.6875 34.9219 28.6407 35.9844 28.1172C37.9609 27.1485 39.1484 25.7969 39.7344 23.8516C39.9219 23.2344 39.9453 23.0157 39.9531 22.0547V20.961L38.7266 15.6875C37.5703 10.711 37.4844 10.375 37.1406 9.67191C36.8203 9.02347 36.6719 8.82816 35.9453 8.10941C35.3594 7.53128 34.8984 7.15628 34.3672 6.83597C33.7812 6.4766 33.5859 6.31253 33.4766 6.09378C33.0703 5.24222 32.4297 4.6641 31.3828 4.23441C30.5547 3.89066 30.2344 3.57035 29.8906 2.74222C29.5547 1.92191 29.1641 1.39066 28.6172 1.00003C27.2031 -0.00777817 25.3672 0.0937843 24.1016 1.25003C23.4531 1.84378 23.0859 2.55472 22.9766 3.40628L22.9297 3.82035H20H17.0703L17.0234 3.40628C16.9141 2.55472 16.5469 1.84378 15.8984 1.25003C15 0.421909 13.7422 0.109409 12.5937 0.421909ZM14.3516 1.64066C14.9531 1.85941 15.5547 2.45316 15.7344 3.01566C15.8984 3.50785 15.9062 4.14847 15.7578 4.68753C15.5703 5.36722 15.5391 5.64066 15.625 6.07816C15.7734 6.87503 15.9609 7.13285 17.6094 8.79691L19.1719 10.3828L17.7109 11.8438L16.25 13.3047L14.6719 11.7266C12.8203 9.89066 12.5781 9.7266 11.5625 9.71879C11.1797 9.71097 10.8281 9.76566 10.5547 9.85941C9.60937 10.1875 8.49219 9.87504 7.88281 9.10941C7.5 8.62504 7.39062 8.27347 7.39062 7.6016C7.39062 6.64066 7.88281 5.88285 8.78906 5.44535C9.04687 5.32035 9.29687 5.21878 9.34375 5.21878C9.54687 5.21878 10.3984 4.56253 10.6562 4.21097C10.8125 4.00003 11.0625 3.53128 11.2187 3.1641C11.4453 2.61722 11.5781 2.4141 11.9141 2.10941C12.6016 1.4766 13.4766 1.31253 14.3516 1.64066ZM27.2734 1.6016C27.9141 1.81253 28.4531 2.36722 28.7812 3.1641C28.9297 3.52347 29.1797 3.98441 29.3359 4.19535C29.5937 4.55472 30.4531 5.21878 30.6562 5.21878C30.8672 5.21878 31.7031 5.69535 31.9687 5.96878C32.4219 6.44535 32.6172 6.94535 32.6094 7.64066C32.6016 8.93754 31.7109 9.88285 30.4219 9.96879C30.0078 9.99222 29.7578 9.96879 29.4453 9.85941C29.1641 9.76566 28.8203 9.71097 28.4219 9.71879C27.9141 9.7266 27.7422 9.76566 27.3281 9.96879C26.6719 10.2891 25.9141 11.0547 25.9141 11.3828C25.9141 11.7188 26.1328 11.9375 26.4766 11.9375C26.7187 11.9375 26.8281 11.875 27.1094 11.5782C27.7734 10.9063 28.2344 10.7657 29.1094 11C30.1875 11.2813 31.2344 11.1719 32.0469 10.6953L32.3047 10.5391L32.625 10.7891C33.3516 11.3516 33.6406 11.9922 33.4453 12.586C33.3125 12.9766 32.625 13.6328 31.9375 14.0313C30.8203 14.6719 29.1016 15.2578 27.2656 15.6407L26.2891 15.8438L25.4297 14.9844L24.5781 14.125L24.8203 13.875C25.1953 13.4844 25.2266 13.2422 24.9375 12.9532C24.8047 12.8282 24.6172 12.7188 24.5234 12.7188C24.3906 12.7188 23.8359 13.2266 22.5312 14.5235L20.7187 16.336L18.8906 16.2891C17.8906 16.2657 16.6406 16.2032 16.1094 16.1485L15.1484 16.0547L19.5547 11.6328C24.2578 6.90628 24.2266 6.94535 24.375 6.02347C24.4453 5.6016 24.4375 5.50003 24.1875 4.40628C23.7812 2.54691 25.4609 1.01566 27.2734 1.6016ZM22.8125 5.04691C23.125 5.09378 23.1641 5.12503 23.2109 5.36722C23.2969 5.76566 23.2109 6.13285 22.9375 6.53128L22.6953 6.88285H20H17.3047L17.0625 6.53128C16.7891 6.13285 16.7031 5.76566 16.7891 5.36722C16.8359 5.13285 16.875 5.09378 17.1484 5.05472C17.5781 4.99222 22.3828 4.98441 22.8125 5.04691ZM20.7578 8.7891L20 9.55472L19.2422 8.7891L18.4766 8.03129H20H21.5234L20.7578 8.7891ZM24.3203 15.5157L24.8516 16.0547L23.8516 16.1485C22.3047 16.2813 22.3672 16.3282 23.0859 15.6094C23.4297 15.2657 23.7266 14.9844 23.75 14.9844C23.7734 14.9844 24.0312 15.2266 24.3203 15.5157Z" fill="white"/>
<path d="M17.1953 18.8673C16.8594 19.0392 16.7266 19.172 16.5312 19.5158C16.3125 19.8986 16.2891 20.0158 16.2891 20.5704C16.2891 21.0783 16.3281 21.2736 16.4922 21.6251C16.8828 22.4689 17.5391 22.9142 18.2891 22.8595C18.9141 22.8126 19.2969 22.547 19.5859 21.9611C20.2422 20.6173 19.3828 18.8439 18 18.6876C17.6797 18.6486 17.5469 18.6798 17.1953 18.8673ZM18.1172 19.9454C18.7656 20.2736 18.7969 21.7033 18.1562 21.7033C17.9219 21.7033 17.5234 21.2345 17.4531 20.8829C17.3906 20.5314 17.4609 20.1564 17.6328 19.9689C17.7891 19.797 17.8359 19.797 18.1172 19.9454Z" fill="white"/>
<path d="M21.6094 18.7734C21.125 18.9453 20.7656 19.289 20.4688 19.8672C20.2266 20.3359 20.1953 20.4609 20.1953 20.9922C20.2031 21.5 20.2344 21.6484 20.4297 22.0078C20.7422 22.5781 21.125 22.8203 21.75 22.8594C22.1719 22.8828 22.2734 22.8515 22.6406 22.6406C24.0391 21.8281 24.125 19.5234 22.7891 18.8515C22.3438 18.6328 22.0547 18.6094 21.6094 18.7734ZM22.3672 19.9687C22.6797 20.3125 22.625 21.0078 22.25 21.4297C21.9844 21.7422 21.7344 21.7812 21.5234 21.5469C21.2031 21.1953 21.4219 20.1875 21.8672 19.9453C22.1406 19.7969 22.2188 19.8047 22.3672 19.9687Z" fill="white"/>
<path d="M14.1632 21.6172C13.6789 21.8437 13.4054 22.289 13.3742 22.9609C13.3429 23.3984 13.3742 23.5625 13.5304 23.9062C13.921 24.75 14.5539 25.2265 15.296 25.2344C17.132 25.2422 17.3039 22.5547 15.5304 21.6719C15.046 21.4297 14.6164 21.414 14.1632 21.6172ZM15.1554 22.7969C15.421 22.9844 15.6632 23.5703 15.5929 23.8515C15.5382 24.0625 15.2804 24.1172 14.9992 23.9687C14.632 23.7734 14.3898 22.9687 14.6242 22.7344C14.757 22.6015 14.9054 22.6172 15.1554 22.7969Z" fill="white"/>
<path d="M24.4672 21.6719C22.6937 22.5547 22.8656 25.2422 24.7015 25.2344C25.4437 25.2265 26.0765 24.75 26.4672 23.9062C26.7328 23.3281 26.6937 22.5781 26.3812 22.1015C25.9672 21.4765 25.2015 21.3047 24.4672 21.6719ZM25.3734 22.7344C25.5219 22.8828 25.4828 23.3359 25.3031 23.625C25.1156 23.9297 24.9359 24.0469 24.6547 24.0469C24.2484 24.0469 24.3344 23.2734 24.7875 22.8594C25.0297 22.625 25.225 22.5859 25.3734 22.7344Z" fill="white"/>
<path d="M19.0859 23.375C18.5391 23.5547 18.0313 23.9297 17.2344 24.75C16.2969 25.711 16.0625 26.1641 16.0625 26.9766C16.0625 27.9375 16.6016 28.7813 17.4531 29.1641C18.1016 29.4532 18.4375 29.4766 19.2656 29.2735L20 29.0938L20.7344 29.2735C21.5625 29.4766 21.8984 29.4532 22.5469 29.1641C23.75 28.6329 24.2813 27.1719 23.7266 25.9688C23.5625 25.6172 23.2969 25.2891 22.6328 24.6172C21.5234 23.5157 21.1641 23.3204 20.1172 23.2891C19.6719 23.2735 19.2891 23.3047 19.0859 23.375ZM20.8438 24.6407C21.3828 24.9063 22.625 26.2266 22.7422 26.6485C22.8516 27.0704 22.75 27.461 22.4453 27.8047C22.0547 28.2344 21.6797 28.3204 21.0156 28.1407C20.3672 27.961 19.6328 27.961 18.9844 28.1407C18.3203 28.3204 17.9453 28.2344 17.5547 27.8047C17.25 27.461 17.1484 27.0704 17.2578 26.6407C17.375 26.2188 18.6172 24.9063 19.1563 24.6407C19.7109 24.3672 20.2891 24.3672 20.8438 24.6407Z" fill="white"/>
</svg>
