<svg width="40" height="40" viewBox="0 0 40 40" fill="none" xmlns="http://www.w3.org/2000/svg">
<g clip-path="url(#clip0_559_14281)">
<path d="M15.7734 0.109467C15.3359 0.265717 15.0234 0.523529 14.7891 0.921967L14.5703 1.28915L14.5312 3.90634L14.4922 6.52353L13.25 9.16415C11.8125 12.2188 11.9219 11.7892 11.8359 15.047C11.7969 16.4532 11.8047 17.1407 11.8672 17.2501C11.9688 17.4454 12.3359 17.5782 12.5547 17.4923C12.9219 17.3595 12.9453 17.2188 13.0312 14.6407L13.1094 12.2188L14.2969 9.67978C14.9453 8.28915 15.5312 6.95322 15.5938 6.71884C15.6797 6.39853 15.7031 5.71884 15.7031 3.9454C15.7109 1.48447 15.7109 1.45322 16.0703 1.26572C16.1953 1.1954 18.6172 1.17197 25.5469 1.17197H34.8594L35.0859 1.39853L35.3125 1.62509V4.03915C35.3125 5.53134 35.3438 6.56259 35.3984 6.7579C35.4453 6.92978 36.0156 8.1954 36.6562 9.5704L37.8359 12.0704L37.8984 13.086C37.9375 13.6407 38.1328 19.3829 38.3281 25.8438L38.6875 37.586L38.5 37.9532C38.3906 38.1642 38.1719 38.4142 37.9766 38.5548L37.6406 38.7892L30.7969 38.8126L23.9453 38.8282L23.9688 38.3829C23.9844 38.086 23.8281 37.0001 23.5156 35.2345C23.2578 33.7579 23.0469 32.5235 23.0469 32.4923C23.0469 32.4688 23.2578 32.422 23.5156 32.3985C23.7656 32.3673 24.3203 32.2188 24.7344 32.0548L25.4922 31.7657L25.8516 31.9063C26.0469 31.9767 26.4062 32.1173 26.6406 32.211C27.2734 32.4532 28.6719 32.4532 29.3359 32.2032C30.7266 31.6798 31.7891 30.4142 32.0312 28.9845C32.3281 27.211 31.4062 25.4376 29.7578 24.6017C29.3906 24.422 29.25 24.2813 28.9453 23.836C27.7422 22.0235 25.4766 21.4376 23.5625 22.4454C23.0078 22.7345 22.2188 23.4845 21.9453 23.9845C21.7891 24.2735 21.6484 24.3907 21.1719 24.6485C20.4609 25.0313 19.7344 25.7345 19.4141 26.3438C19.2812 26.5938 19.1484 26.797 19.1172 26.797C19.0859 26.797 18.9297 26.7345 18.7656 26.6485C17.8594 26.1954 16.5234 26.1876 15.4688 26.6329L14.9219 26.8595L14.4531 26.672C14.1953 26.5626 13.6875 26.4376 13.3203 26.3907C12.7969 26.3282 12.6562 26.2813 12.6562 26.1798C12.6562 26.1095 12.7109 24.5704 12.7734 22.7501C12.8516 20.3751 12.8594 19.3907 12.7969 19.2579C12.6172 18.8673 12 18.8438 11.7969 19.2188C11.7422 19.3126 11.6719 20.6251 11.6016 22.6642C11.5469 24.4688 11.4766 25.9688 11.4609 25.9923C11.4375 26.0079 11.2891 25.961 11.1172 25.8751C10.0547 25.3438 8.34375 25.172 7.96094 25.5548C7.76562 25.7501 7.76562 26.1876 7.96875 26.3673C8.08594 26.4688 8.28125 26.5079 8.76562 26.5235C9.85156 26.5626 10.5078 26.7892 11.3516 27.4063L11.7344 27.6798L12.3281 27.5938C13.1172 27.4845 13.6953 27.586 14.3984 27.9454L14.9453 28.2267L15.5391 27.9063C16.5234 27.3829 17.5078 27.336 18.4062 27.7735C19.125 28.1251 19.8125 28.961 19.9609 29.6642L20.0156 29.922H12.375H4.74219L4.78906 29.6407C4.88281 29.0704 5.28125 28.3985 5.92969 27.711C6.28125 27.336 6.5625 26.9688 6.5625 26.8829C6.5625 26.6407 6.23438 26.3048 5.99219 26.3048C5.54688 26.3126 4.6875 27.1251 4.15625 28.0548C3.9375 28.4454 3.66406 29.1798 3.55469 29.7032C3.51562 29.9142 3.49219 29.922 3.0625 29.922C2.79688 29.922 2.48438 29.9845 2.29688 30.0704C1.94531 30.2345 1.52344 30.6954 1.40625 31.0548C1.28906 31.4454 0.15625 38.0157 0.15625 38.336C0.164062 38.9688 0.757812 39.7423 1.38281 39.9142C1.58594 39.9767 7.20312 40.0001 19.5781 40.0001C39.3125 40.0001 37.8594 40.0392 38.6406 39.5079C39.1562 39.1642 39.5703 38.5938 39.7266 38.0079C39.8516 37.547 39.8438 36.9688 39.5 25.8126C39.3047 19.3751 39.1094 13.5938 39.0703 12.9688L39.0078 11.836L37.7656 9.21884L36.5312 6.60165L36.4844 3.9454C36.4375 1.00009 36.4531 1.06259 35.8906 0.515717C35.3281 -0.0311584 35.9297 9.15527e-05 25.4766 9.15527e-05C17.9844 0.00790405 16 0.0313416 15.7734 0.109467ZM26.3984 23.2735C27.0312 23.4688 27.625 23.9298 27.9688 24.4845C28.4062 25.211 28.4844 25.2735 29.1328 25.6173C30.3047 26.2267 30.8828 27.1173 30.8828 28.3204C30.8828 29.4923 30.2969 30.4298 29.2344 30.9532C28.7578 31.1876 28.6562 31.211 27.9688 31.211C27.2891 31.211 27.1797 31.1876 26.6406 30.9454C25.8203 30.5704 25.2031 30.5626 24.375 30.9298C24.0078 31.0938 23.6172 31.2032 23.3203 31.2345L22.8438 31.2657L22.7031 30.9532C22.5 30.5079 22.1094 30.1563 21.6328 30.0001C21.2266 29.8595 21.2188 29.8517 21.0938 29.3985C20.9375 28.8282 20.6797 28.297 20.3828 27.922C20.1328 27.6017 20.1328 27.547 20.4453 26.922C20.6953 26.422 21.2344 25.9142 21.7812 25.6563C22.3125 25.4142 22.6875 25.0782 22.9062 24.6563C23.2344 24.0235 24.0781 23.3673 24.7969 23.1954C25.2422 23.0938 25.9219 23.1251 26.3984 23.2735ZM21.5156 31.2423C21.6172 31.3595 21.8047 32.2579 22.2344 34.7032C22.5547 36.5235 22.8125 38.1095 22.8125 38.2345C22.8125 38.3673 22.7344 38.547 22.6406 38.6485L22.4766 38.8282H12.0938H1.71094L1.52344 38.6329C1.41406 38.5313 1.32812 38.3751 1.32812 38.2892C1.32812 38.0001 2.49219 31.4845 2.57812 31.336C2.61719 31.2501 2.69531 31.1642 2.75 31.1485C2.80469 31.1251 7.02344 31.1017 12.1172 31.1017C21.1875 31.0938 21.3828 31.0938 21.5156 31.2423Z" fill="white"/>
<path d="M10.1483 32.0078C9.74205 32.0703 9.11705 32.5234 8.87486 32.9141C8.60142 33.3672 8.5233 34.0234 8.67173 34.5938C8.76548 34.9141 8.95298 35.1406 10.1952 36.3984L11.617 37.8359L12.0233 37.875L12.4295 37.9141L13.8749 36.4766C15.453 34.9062 15.5936 34.6953 15.578 33.9062C15.5624 33.3984 15.4217 33.0156 15.0858 32.6406C14.4061 31.8672 13.0467 31.7812 12.328 32.4766L12.1249 32.6719L11.8592 32.4766C11.3202 32.0703 10.7186 31.9062 10.1483 32.0078ZM11.2889 33.6016C11.9608 34.25 12.2108 34.2578 12.8045 33.6406C13.2655 33.1641 13.578 33.0625 13.9608 33.2578C14.3358 33.4375 14.5233 33.8672 14.3827 34.2031C14.328 34.3203 13.7889 34.9219 13.1795 35.5312L12.0624 36.6406L10.9139 35.4844C9.81236 34.3672 9.76548 34.3125 9.76548 34.0078C9.76548 33.7734 9.82017 33.6172 9.9608 33.4453C10.328 33.0156 10.7342 33.0625 11.2889 33.6016Z" fill="white"/>
<path d="M17.4751 3.41406C17.4126 3.49219 17.3267 3.64844 17.3032 3.76562C17.2563 3.9375 17.2954 4.02344 17.4829 4.21875L17.7173 4.45312H22.3813C26.311 4.45312 27.0688 4.4375 27.2563 4.33594C27.6157 4.15625 27.6782 3.82031 27.4126 3.48438L27.2563 3.28125H22.4282C17.9282 3.28125 17.5923 3.28906 17.4751 3.41406Z" fill="white"/>
<path d="M29.1387 3.4375C28.9278 3.64844 28.9356 4.07031 29.1465 4.26562C29.3028 4.40625 29.4512 4.41406 31.3262 4.41406C33.2012 4.41406 33.3497 4.40625 33.5059 4.26562C33.7169 4.07031 33.7247 3.64844 33.5137 3.4375C33.3653 3.28906 33.2559 3.28125 31.3262 3.28125C29.3965 3.28125 29.2872 3.28906 29.1387 3.4375Z" fill="white"/>
<path d="M22.0391 15.1328C21.8359 15.2031 21.5312 15.414 21.3203 15.625C20.8125 16.1328 20.7031 16.5312 20.7031 17.8906C20.7031 19.2578 20.8125 19.6406 21.3281 20.1562C21.5938 20.4297 21.8125 20.5703 22.1172 20.6562C22.625 20.8125 22.8359 20.8125 23.3281 20.664C23.8281 20.5156 24.25 20.1562 24.5156 19.6562C24.7188 19.2656 24.7266 19.2265 24.7266 17.8906C24.7266 16.5547 24.7188 16.5156 24.5156 16.125C24.0234 15.1953 23.0078 14.789 22.0391 15.1328ZM23.1328 16.2969C23.4922 16.4765 23.5938 16.8125 23.5938 17.8281C23.5938 18.9297 23.5078 19.2578 23.1797 19.4531C22.875 19.6406 22.6484 19.6484 22.3359 19.4844C21.9688 19.2969 21.875 18.9687 21.875 17.9062C21.875 16.8359 21.9531 16.5312 22.2969 16.3203C22.5938 16.1406 22.8203 16.1328 23.1328 16.2969Z" fill="white"/>
<path d="M27.7344 15.0703C27.0859 15.2734 26.5547 15.7969 26.375 16.4141C26.2031 16.9844 26.2031 18.8047 26.375 19.3672C26.5938 20.125 27.4688 20.7812 28.2422 20.7812C28.6406 20.7812 29.2344 20.5703 29.5469 20.3125C29.7031 20.1797 29.9297 19.875 30.0547 19.625C30.2656 19.1953 30.2734 19.1484 30.2734 17.8906C30.2734 16.6328 30.2656 16.5859 30.0547 16.1562C29.9297 15.9062 29.7031 15.6016 29.5469 15.4688C29.0781 15.0859 28.2734 14.9062 27.7344 15.0703ZM28.6562 16.2812C29.0391 16.4766 29.1016 16.7188 29.1016 17.8906C29.1016 19.0703 29.0391 19.3047 28.6562 19.5C28.3828 19.6406 28.1719 19.6406 27.8906 19.4922C27.5 19.2891 27.4219 19.0312 27.4219 17.8906C27.4219 16.7578 27.4922 16.5 27.875 16.2969C28.1406 16.1484 28.3906 16.1406 28.6562 16.2812Z" fill="white"/>
<path d="M17.8144 18.6798C17.2832 18.7814 16.7988 19.1251 16.5097 19.6017C16.1582 20.1876 16.1191 20.5626 16.3222 21.3907C16.8144 23.3595 17.0566 23.8048 17.8222 24.1407C18.6504 24.4923 19.5332 24.3126 20.1035 23.672C20.7207 22.9923 20.7675 22.4611 20.3535 20.922C20.041 19.7736 19.955 19.5704 19.5957 19.2111C19.1425 18.7657 18.4707 18.5626 17.8144 18.6798ZM18.7441 20.0548C18.9316 20.2345 19.0254 20.4454 19.2129 21.1876C19.5254 22.3595 19.5254 22.6017 19.2285 22.8986C19.041 23.0782 18.9316 23.1251 18.6504 23.1251C18.041 23.1251 17.9316 22.9454 17.5019 21.2657C17.3222 20.547 17.3457 20.3751 17.6425 20.0548C17.7988 19.8907 17.916 19.8439 18.1816 19.8439C18.4394 19.8439 18.5722 19.8907 18.7441 20.0548Z" fill="white"/>
<path d="M32.4454 18.6798C31.8282 18.7891 31.3204 19.1563 31.0626 19.672C30.7814 20.2345 30.3595 21.8516 30.3673 22.3595C30.3673 24.0157 32.2814 24.9063 33.6329 23.8751C34.0001 23.5938 34.2501 23.0313 34.5626 21.8204C34.8048 20.8516 34.8282 20.6563 34.7657 20.3126C34.672 19.8282 34.5392 19.5626 34.211 19.2345C33.7501 18.7657 33.1095 18.5704 32.4454 18.6798ZM33.3673 20.0704C33.6954 20.3985 33.6876 20.5704 33.3439 21.836C33.1876 22.422 33.047 22.7657 32.9142 22.8985C32.4376 23.4141 31.547 23.0626 31.5392 22.3673C31.5314 21.8673 32.0235 20.2657 32.2501 20.0391C32.5392 19.7501 33.0548 19.7657 33.3673 20.0704Z" fill="white"/>
<path d="M30.7981 35.6016C30.7435 35.625 30.6497 35.7422 30.5794 35.875C30.4778 36.0703 30.4778 36.1484 30.556 36.3359C30.6028 36.4688 30.7122 36.6016 30.7903 36.6406C30.8685 36.6875 31.8216 36.7188 32.9935 36.7188C35.0481 36.7188 35.056 36.7188 35.22 36.5391C35.4466 36.2969 35.4466 35.9141 35.22 35.7031C35.056 35.5547 34.9622 35.5469 32.9778 35.5547C31.8372 35.5547 30.8528 35.5781 30.7981 35.6016Z" fill="white"/>
</g>
<defs>
<clipPath id="clip0_559_14281">
<rect width="40" height="40" fill="white"/>
</clipPath>
</defs>
</svg>
