<svg width="40" height="40" viewBox="0 0 40 40" fill="none" xmlns="http://www.w3.org/2000/svg">
<g clip-path="url(#clip0_559_14293)">
<path d="M30.9029 0.106972C30.2304 0.322838 29.5163 0.928936 29.0348 1.70108C28.5781 2.42342 28.1381 3.89299 28.1381 4.69005C28.1381 4.95573 28.1132 4.98064 27.5403 5.24633C26.7848 5.59504 26.1704 6.0766 25.7137 6.68269L25.365 7.14764L25.2322 6.95668C23.8373 4.81459 21.5873 3.45295 19.1297 3.23708C15.2524 2.90497 11.7984 5.26293 10.6444 9.01574C10.4451 9.68826 10.4202 9.87092 10.4202 11.1993C10.4119 12.7603 10.47 13.1256 10.9267 14.2547C11.8732 16.6293 13.9654 18.4476 16.4728 19.0703L17.3363 19.2778L16.4313 20.2244C14.2062 22.5408 12.9276 25.3056 12.4876 28.7927C12.3713 29.6728 12.3547 30.2955 12.3879 31.7402C12.4294 33.5418 12.4876 33.9653 12.911 35.933L12.9691 36.2153L12.0641 36.1655C11.566 36.1323 10.9184 36.0576 10.6278 35.9828C7.82146 35.302 5.49671 33.0686 4.72456 30.2872C4.45887 29.3075 4.37585 27.9707 4.40906 24.8406L4.43397 21.9513L4.66644 21.4781C4.91552 20.9633 5.28914 20.598 5.81221 20.3323C6.11111 20.1745 6.23565 20.1662 6.90816 20.2078C7.61389 20.2576 7.69692 20.2493 8.04563 20.0666C8.52719 19.8009 8.91741 19.2862 9.03365 18.7548C9.28273 17.5924 8.60191 16.6708 7.30669 16.43C4.99025 15.9983 2.45793 17.3848 1.27895 19.7428C0.681158 20.9384 0.65625 21.1376 0.65625 25.4301C0.65625 29.4735 0.697763 30.0132 1.07138 31.3665C1.4367 32.6701 2.19224 34.1895 3.02251 35.2854C3.66182 36.124 4.95704 37.3611 5.80391 37.9257C7.18215 38.8473 8.47737 39.4035 10.1047 39.7772C10.9018 39.9598 10.9848 39.9598 19.495 39.9847C27.1667 40.0096 28.0966 40.0013 28.2709 39.8851C28.4536 39.7689 28.4702 39.7024 28.4702 39.0714C28.4702 37.8924 28.0966 37.0622 27.2995 36.481L26.8927 36.1738L27.2912 35.8666C28.1796 35.1609 28.9601 34.0649 29.3005 33.0354C29.4001 32.7365 29.4914 32.4874 29.4997 32.4708C29.5163 32.4625 30.2138 33.8906 31.0523 35.659C31.9241 37.4856 32.6963 39.005 32.854 39.1794C33.0035 39.362 33.3356 39.6028 33.6013 39.7356C34.0496 39.9598 34.1409 39.9681 35.4195 39.993C36.9638 40.0262 37.3126 39.9349 37.736 39.3786C37.9519 39.0963 37.9768 39.005 37.9685 38.4404C37.9602 37.5852 37.7277 36.9958 37.1299 36.3565C36.5985 35.7753 36.0256 35.4764 35.295 35.3767C34.5312 35.2688 34.4481 35.1609 34.0247 33.6166C33.7092 32.4874 33.6677 32.2217 33.6594 31.4579C33.6594 30.3785 33.7839 29.9883 34.4564 28.9588C35.8596 26.825 36.4491 24.9071 36.4491 22.491C36.4491 20.2161 35.8679 18.2234 34.664 16.347L34.3153 15.8073L34.9795 15.799C36.5902 15.7741 38.3006 14.6865 39.0395 13.192C39.4463 12.3783 39.463 11.8636 39.0893 11.3986C38.3836 10.5102 38.1926 9.88752 38.3919 9.08216C38.5497 8.45116 38.4832 8.11075 38.093 7.52126C37.6447 6.84044 36.8061 6.28416 34.4066 5.07197C32.7378 4.2251 32.8208 4.35794 32.4555 2.14943C32.2313 0.820999 32.1068 0.281326 31.9988 0.156788C31.8245 -0.0341759 31.4343 -0.0507812 30.9029 0.106972ZM31.5339 2.65589C31.675 3.52767 31.8494 4.34134 31.9158 4.47418C32.1483 4.92252 32.8125 5.37917 34.3734 6.18453C36.2581 7.14764 37.0137 7.6541 37.3126 8.16057C37.4869 8.46777 37.5118 8.5591 37.4371 8.75006C37.3126 9.08216 37.3043 9.92904 37.4288 10.4355C37.4869 10.6763 37.7194 11.1578 37.9519 11.5065C38.4417 12.2538 38.4417 12.4281 37.9436 13.1256C37.3624 13.9309 36.391 14.5785 35.4777 14.7695C34.9214 14.8857 33.9334 14.7695 33.2276 14.5038C32.8125 14.3544 32.7627 14.3461 32.58 14.4706C32.3808 14.6034 32.331 14.7363 32.3725 15.0186C32.3808 15.085 32.5634 15.3258 32.7793 15.5583C34.498 17.3765 35.4528 19.8507 35.4528 22.4827C35.4528 24.741 34.9131 26.4597 33.5597 28.527C32.8872 29.54 32.6963 30.1128 32.6465 31.2088C32.6132 32.0391 32.6215 32.147 32.9952 33.5668C33.2027 34.3887 33.4518 35.1941 33.5348 35.3601C33.842 35.9579 34.4813 36.3482 35.1539 36.3565C35.8015 36.3648 36.5736 36.9875 36.8559 37.743C37.0552 38.2827 37.0718 38.6563 36.8808 38.8639C36.7646 38.9967 36.6068 39.0133 35.5939 39.0133C34.3817 39.0133 34.0164 38.9303 33.6511 38.5899C33.3605 38.3159 29.5911 30.2623 29.4333 29.5898C29.3586 29.266 29.1427 28.6931 28.9518 28.3029C28.4619 27.3148 27.3244 26.1691 26.3364 25.6709C25.4729 25.2309 25.1159 25.1561 24.8918 25.3637C24.7838 25.4633 24.734 25.5962 24.7506 25.7622C24.7755 25.9947 24.8502 26.0528 25.6058 26.4265C27.4656 27.3397 28.6363 29.1331 28.6363 31.0843C28.6363 32.4293 28.1132 33.6498 27.1003 34.6544C26.5772 35.1858 26.2866 35.4016 25.722 35.6756C24.925 36.0659 24.7921 36.2485 25.0578 36.6055C25.174 36.7716 25.3152 36.8297 25.6971 36.8712C26.6436 36.9958 27.366 37.7098 27.4573 38.5982L27.4988 39.0216L19.2459 38.9884C11.7154 38.9635 10.935 38.9469 10.3704 38.814C8.09545 38.2827 6.37679 37.3528 4.8408 35.8168C3.18857 34.1645 2.17564 32.2217 1.77711 29.9053C1.66918 29.2743 1.65257 28.5021 1.66918 25.2558L1.69408 21.3701L1.91826 20.7474C2.6738 18.6884 4.69135 17.2354 6.63418 17.3682C7.47275 17.4181 7.85467 17.5841 8.01242 17.966C8.16187 18.323 8.06224 18.8046 7.78825 19.0537C7.6388 19.1865 7.48105 19.2114 6.68399 19.2114C5.82882 19.2114 5.72918 19.228 5.31405 19.4522C4.72456 19.7594 4.07695 20.4236 3.78636 21.0131C3.42104 21.777 3.37122 22.4744 3.42104 26.0528C3.45425 28.4606 3.49576 29.3988 3.58709 29.8389C3.97732 31.6405 4.72456 33.0852 5.92015 34.3472C6.7089 35.1775 7.42293 35.7005 8.50228 36.2319C9.8058 36.8795 10.7523 37.112 12.3381 37.1618C13.0272 37.1867 13.6914 37.1867 13.8077 37.1535C14.1813 37.0622 14.2394 36.7882 14.0236 36.1572C13.9239 35.85 13.7496 35.1277 13.6333 34.5465C13.3843 33.2429 13.2846 30.5695 13.4341 29.2078C13.8575 25.5298 15.1278 22.848 17.5605 20.4983C18.7063 19.3941 18.864 19.2862 19.4618 19.228C22.1104 18.954 24.7423 16.9614 25.8051 14.4042C26.544 12.6191 26.6519 10.8174 26.1206 8.97423L25.913 8.2768L26.1372 7.86997C26.6353 6.94838 27.4075 6.30077 28.3955 5.96866C28.6861 5.86903 28.9767 5.72788 29.0348 5.65316C29.0929 5.57843 29.1344 5.27954 29.1344 4.98064C29.1427 3.9179 29.4997 2.72231 30.0311 2.02489C30.3549 1.60145 30.9776 1.07008 31.1603 1.07008C31.235 1.07008 31.3512 1.57654 31.5339 2.65589ZM19.9102 4.36624C22.4591 4.89761 24.543 6.90686 25.2405 9.5056C25.4895 10.4272 25.4895 12.0462 25.2405 12.9844C24.5846 15.4752 22.6085 17.4513 20.126 18.0989C19.329 18.3064 17.7432 18.3479 16.971 18.1819C14.2228 17.5758 12.1305 15.4918 11.4829 12.7187C11.3003 11.9217 11.3252 10.4023 11.5328 9.58032C12.4793 5.83582 16.1158 3.56919 19.9102 4.36624Z" fill="white"/>
<path d="M15.6243 6.30878C15.3752 6.40011 14.985 6.6658 14.7359 6.88997C14.1298 7.43795 13.8392 8.03574 13.7894 8.82449C13.7396 9.63815 13.9139 10.1944 14.4287 10.9002C14.6529 11.2074 14.8604 11.5561 14.8854 11.6806C14.9186 11.8052 14.9684 12.486 15.0099 13.1917C15.1095 14.927 15.4084 15.8652 15.9813 16.2388C16.2719 16.4214 16.7535 16.4297 17.0357 16.2388C17.4509 15.9648 17.5339 15.6742 17.6003 14.1963C17.6501 13.0423 17.6834 12.8015 17.8245 12.6188C18.0404 12.3282 18.3476 12.2286 18.6465 12.3531C19.0533 12.5192 19.1114 12.7101 19.1695 14.1465C19.2277 15.5995 19.3273 15.9648 19.7341 16.2305C20.0662 16.4463 20.6142 16.4214 20.8799 16.1724C21.4362 15.6576 21.7268 14.653 21.7932 13.0672C21.8513 11.7304 21.9011 11.5146 22.2747 11.0164C22.6816 10.4933 22.8891 10.0284 22.9722 9.50531C23.1714 8.235 22.5404 6.9979 21.3946 6.41672C20.7636 6.09291 19.7839 6.0431 19.0782 6.30048C18.5302 6.49974 18.1898 6.49144 17.6335 6.27557C17.152 6.08461 16.164 6.10122 15.6243 6.30878ZM17.5505 7.2968C17.8162 7.38813 18.1981 7.46285 18.3974 7.46285C18.5966 7.46285 18.9703 7.38813 19.2277 7.2968C20.2406 6.93979 21.1539 7.18887 21.6852 7.96101C21.9094 8.27652 21.9509 8.42596 21.9758 8.92413C22.009 9.58004 21.9509 9.75439 21.3946 10.5265C20.9629 11.1326 20.8301 11.6391 20.8301 12.6437C20.8218 13.1087 20.7719 13.7646 20.7138 14.105C20.5893 14.7775 20.3568 15.4002 20.2655 15.3089C20.2323 15.284 20.1825 14.6696 20.1576 13.9555C20.116 12.8513 20.0828 12.6022 19.9334 12.3033C19.3605 11.1825 18.0653 10.95 17.2101 11.8135C16.7618 12.2535 16.6787 12.569 16.6206 13.9805C16.5957 14.6198 16.5459 15.1926 16.5127 15.2591C16.4712 15.3338 16.3881 15.2176 16.2636 14.8854C16.1225 14.5035 16.056 14.0552 15.9813 12.9011C15.8651 11.2904 15.7903 11.0413 15.259 10.3522C14.5865 9.50531 14.6031 8.45087 15.2922 7.72024C15.8485 7.13075 16.6455 6.9813 17.5505 7.2968Z" fill="white"/>
</g>
<defs>
<clipPath id="clip0_559_14293">
<rect width="40" height="40" fill="white"/>
</clipPath>
</defs>
</svg>
