<svg width="30" height="32" viewBox="0 0 30 32" fill="none" xmlns="http://www.w3.org/2000/svg">
<path d="M29.2052 4.82594V15.1013C29.2052 17.6446 28.0395 20.5966 25.9238 23.4135C23.4581 26.6955 19.8261 29.5925 15.4203 31.7914L15.0015 32.0001L14.5828 31.7914C10.177 29.5925 6.54495 26.6955 4.07923 23.4135C1.96352 20.5966 0.797852 17.6446 0.797852 15.1013V4.82594L7.70812 0.00012207H22.2949L29.2052 4.82594Z" fill="white"/>
<path d="M29.2037 4.82594V15.1013C29.2037 17.6446 28.038 20.5966 25.9223 23.4135C23.4566 26.6955 19.8246 29.5925 15.4188 31.7914L15 32.0001V0.00012207H22.2934L29.2037 4.82594Z" fill="white"/>
<path d="M21.1148 3.75037H8.88802L4.54785 6.78111V15.1014C4.54785 17.9609 7.36109 23.5486 15.0014 27.7757C22.6417 23.5486 25.4549 17.9609 25.4549 15.1014V6.78111L21.1148 3.75037Z" fill="white"/>
<path d="M25.4535 6.78087V15.1012C25.4535 17.9607 22.6403 23.5484 15 27.7754V3.75012H21.1134L25.4535 6.78087Z" fill="white"/>
<path d="M21.4098 2.81262H8.59305L3.61035 6.29213V15.1012C3.61035 16.9301 4.53664 19.2539 6.15108 21.4765C8.11678 24.1828 11.02 26.6448 14.5477 28.5961L15.0014 28.8474L15.4552 28.5961C18.9828 26.6448 21.8861 24.1828 23.8518 21.4765C25.4662 19.2539 26.3925 16.9301 26.3925 15.1012V6.29213L21.4098 2.81262ZM24.5174 15.1012C24.5174 17.5957 21.9729 22.689 15.0014 26.6992C8.0299 22.689 5.48542 17.5957 5.48542 15.1012V7.26967L9.18307 4.6877H20.8198L24.5174 7.26967V15.1012Z" fill="#4DC27E"/>
<path d="M26.3911 6.29213V15.1012C26.3911 16.9301 25.4648 19.2539 23.8503 21.4765C21.8846 24.1828 18.9814 26.6448 15.4538 28.5961L15 28.8474V26.6992C21.9715 22.689 24.516 17.5957 24.516 15.1012V7.26967L20.8184 4.6877H15V2.81262H21.4084L26.3911 6.29213Z" fill="#4DC27E"/>
<path d="M20.9861 10.8896L15.0009 17.0411L14.9884 17.0542L13.4664 18.618L9.01562 14.4553L10.2963 13.0859L13.4039 15.9929L14.9884 14.3653L15.0009 14.3522L19.6423 9.58203L20.9861 10.8896Z" fill="#4DC27E"/>
<path d="M20.9852 10.8896L15 17.0411V14.3522L19.6414 9.58203L20.9852 10.8896Z" fill="#4DC27E"/>
</svg>
