<svg width="25" height="25" viewBox="0 0 25 25" fill="none" xmlns="http://www.w3.org/2000/svg">
<path d="M12.8954 20.2584L12.4348 19.3708H12.4348L12.8954 20.2584ZM12.0992 20.2584L12.5599 19.3708H12.5599L12.0992 20.2584ZM18.4576 11.5056C18.4576 13.6361 17.3739 15.394 16.0202 16.7601C14.6675 18.1252 13.1287 19.0107 12.4348 19.3708L13.356 21.146C14.1397 20.7393 15.8819 19.7411 17.4409 18.1678C18.9989 16.5955 20.4576 14.3604 20.4576 11.5056H18.4576ZM12.4973 5.54541C15.7891 5.54541 18.4576 8.21389 18.4576 11.5056H20.4576C20.4576 7.10932 16.8936 3.54541 12.4973 3.54541V5.54541ZM6.53711 11.5056C6.53711 8.21389 9.20559 5.54541 12.4973 5.54541V3.54541C8.10102 3.54541 4.53711 7.10932 4.53711 11.5056H6.53711ZM12.5599 19.3708C11.866 19.0107 10.3272 18.1252 8.97443 16.7601C7.6208 15.394 6.53711 13.6361 6.53711 11.5056H4.53711C4.53711 14.3604 5.99572 16.5955 7.55378 18.1678C9.11274 19.7411 10.855 20.7393 11.6386 21.146L12.5599 19.3708ZM12.4348 19.3708C12.4487 19.3636 12.4706 19.3568 12.4973 19.3568C12.524 19.3568 12.5459 19.3636 12.5599 19.3708L11.6386 21.146C12.1803 21.427 12.8144 21.427 13.356 21.146L12.4348 19.3708ZM14.4796 11.5054C14.4796 12.6006 13.5918 13.4884 12.4966 13.4884V15.4884C14.6964 15.4884 16.4796 13.7051 16.4796 11.5054H14.4796ZM12.4966 9.52246C13.5918 9.52246 14.4796 10.4103 14.4796 11.5054H16.4796C16.4796 9.30569 14.6964 7.52246 12.4966 7.52246V9.52246ZM10.5137 11.5054C10.5137 10.4103 11.4015 9.52246 12.4966 9.52246V7.52246C10.2969 7.52246 8.51367 9.30569 8.51367 11.5054H10.5137ZM12.4966 13.4884C11.4015 13.4884 10.5137 12.6006 10.5137 11.5054H8.51367C8.51367 13.7051 10.2969 15.4884 12.4966 15.4884V13.4884Z" fill="white"/>
</svg>
