<svg width="30" height="32" viewBox="0 0 30 32" fill="none" xmlns="http://www.w3.org/2000/svg">
<path d="M14.9941 1C22.3 1 28.4941 7.04947 28.4941 14.3887C28.4941 21.8447 22.1991 27.0771 16.3846 30.6351C15.9609 30.8743 15.4816 31 14.9941 31C14.5066 31 14.0274 30.8743 13.6036 30.6351C7.79999 27.0424 1.49414 21.8706 1.49414 14.3887C1.49414 7.04947 7.6883 1 14.9941 1Z" fill="white" stroke="white" stroke-width="1.5"/>
<path d="M20.2422 14.501C20.2422 17.4005 17.8917 19.751 14.9922 19.751C12.0927 19.751 9.74219 17.4005 9.74219 14.501C9.74219 11.6015 12.0927 9.25098 14.9922 9.25098C17.8917 9.25098 20.2422 11.6015 20.2422 14.501Z" fill="#4DC27E"/>
</svg>
