<svg width="34" height="34" viewBox="0 0 34 34" fill="none" xmlns="http://www.w3.org/2000/svg">
<g clip-path="url(#clip0_518_83)">
<path d="M32.0609 0.32552C31.7223 0.504816 28.0367 2.42396 23.873 4.60208C19.7094 6.77357 12.75 10.4126 8.40039 12.6771C4.05742 14.9482 0.431641 16.874 0.345313 16.9536C0.146094 17.1329 0 17.465 0 17.7306C0 17.9962 0.225781 18.4279 0.425 18.5607C0.657422 18.7134 9.50274 21.7283 9.60234 21.6884C9.64883 21.6685 10.9238 20.5993 12.4313 19.3111C13.9387 18.0161 18.0758 14.4833 21.6152 11.4618C25.1613 8.43372 28.1297 5.897 28.2227 5.81732L28.382 5.67786L28.2227 5.87708C28.1297 5.98997 24.8758 9.91458 20.9844 14.6029C17.093 19.2845 13.9055 23.1427 13.8922 23.1626C13.8855 23.2025 28.143 28.1099 28.8668 28.3224C29.2055 28.4154 29.7898 28.1232 29.9758 27.7712C30.1086 27.5122 34.0266 1.10911 33.9734 0.830206C33.9203 0.544659 33.6414 0.205988 33.3559 0.0930977C32.9773 -0.0662785 32.7184 -0.0197926 32.0609 0.32552Z" fill="white"/>
<path d="M12.418 28.3889C12.418 32.1143 12.4113 32.0346 12.7899 32.3334C13.2281 32.6787 13.8191 32.6455 14.191 32.2604C14.4566 31.9748 18.1488 26.9545 18.109 26.9213C18.0824 26.8947 12.4977 24.969 12.4445 24.969C12.4313 24.969 12.418 26.5096 12.418 28.3889Z" fill="white"/>
</g>
<defs>
<clipPath id="clip0_518_83">
<rect width="34" height="34" fill="white"/>
</clipPath>
</defs>
</svg>
