<svg width="18" height="16" viewBox="0 0 18 16" fill="none" xmlns="http://www.w3.org/2000/svg">
<path fill-rule="evenodd" clip-rule="evenodd" d="M4.83854 0.289062C3.49273 0.289062 2.27575 0.625421 1.39242 1.44565C0.500725 2.27366 0.046875 3.50327 0.046875 5.08073V10.9141C0.046875 12.4916 0.500725 13.7211 1.39242 14.5491C2.27575 15.3694 3.49273 15.7057 4.83854 15.7057H13.1719C14.5177 15.7057 15.7347 15.3694 16.618 14.5491C17.5097 13.7211 17.9635 12.4916 17.9635 10.9141V5.08073C17.9635 3.50327 17.5097 2.27366 16.618 1.44565C15.7347 0.625421 14.5177 0.289062 13.1719 0.289062H4.83854ZM15.029 4.96598C15.302 4.75493 15.3524 4.36241 15.1413 4.08928C14.9303 3.81614 14.5378 3.76581 14.2646 3.97687L9.64204 7.54873C9.26696 7.83865 8.74337 7.83865 8.36821 7.54873L3.74571 3.97687C3.47257 3.76581 3.08006 3.81614 2.869 4.08928C2.65794 4.36241 2.70827 4.75493 2.98141 4.96598L7.60396 8.5379C8.42929 9.17556 9.58104 9.17556 10.4064 8.5379L15.029 4.96598Z" fill="white"/>
</svg>
