<svg width="36" height="35" viewBox="0 0 36 35" fill="none" xmlns="http://www.w3.org/2000/svg">
<path fill-rule="evenodd" clip-rule="evenodd" d="M9.33333 0C9.90724 0 10.4168 0.36724 10.5982 0.911696L12.3874 6.27924L17.755 8.06842C18.2994 8.24991 18.6667 8.75943 18.6667 9.33333C18.6667 9.90724 18.2994 10.4168 17.755 10.5982L12.3874 12.3874L10.5982 17.755C10.4168 18.2994 9.90724 18.6667 9.33333 18.6667C8.75943 18.6667 8.24991 18.2994 8.06842 17.755L6.27924 12.3874L0.911696 10.5982C0.36724 10.4168 0 9.90724 0 9.33333C0 8.75943 0.36724 8.24991 0.911696 8.06842L6.27924 6.27924L8.06842 0.911696C8.24991 0.36724 8.75943 0 9.33333 0ZM9.33333 5.5497L8.59824 7.75497C8.46553 8.15311 8.15311 8.46553 7.75497 8.59824L5.5497 9.33333L7.75497 10.0684C8.15311 10.2011 8.46553 10.5136 8.59824 10.9117L9.33333 13.117L10.0684 10.9117C10.2011 10.5136 10.5136 10.2011 10.9117 10.0684L13.117 9.33333L10.9117 8.59824C10.5136 8.46553 10.2011 8.15311 10.0684 7.75497L9.33333 5.5497Z" fill="#A86CEE"/>
<path fill-rule="evenodd" clip-rule="evenodd" d="M26.3905 9.05719C27.2794 8.1683 28.7206 8.1683 29.6095 9.05719C30.4984 9.94608 30.4984 11.3873 29.6095 12.2761L20.2761 21.6095C19.3873 22.4984 17.9461 22.4984 17.0572 21.6095C16.1683 20.7206 16.1683 19.2794 17.0572 18.3905L26.3905 9.05719Z" fill="#A86CEE"/>
<path fill-rule="evenodd" clip-rule="evenodd" d="M9.62673 27.7252C10.3376 28.0106 11.0833 28.0616 11.83 27.7575C12.7375 27.3878 13.0546 26.7855 13.1346 26.1207C13.1796 25.7468 13.1401 25.362 13.0436 25.0357C12.9462 24.7067 12.8296 24.5612 12.8197 24.5489C12.8192 24.5482 12.8196 24.5487 12.8197 24.5489C12.5326 24.2596 12.3445 24.1523 12.2247 24.1019C12.1078 24.0527 11.9205 24 11.5555 24C11.4632 24 11.2942 24.0146 11.0818 24.0631C10.8881 24.1072 10.7081 24.1682 10.5638 24.234C10.5546 24.3032 10.5456 24.3728 10.5363 24.4452C10.5167 24.5962 10.4956 24.759 10.4684 24.9535C10.409 25.3781 10.3249 25.908 10.1675 26.4443C10.0415 26.8738 9.86742 27.3078 9.62673 27.7252ZM7.60443 29.6768C8.99016 30.5186 10.8143 31.0506 12.836 30.2271C16.6667 28.6667 16.2366 24.2056 14.7116 22.6694C13.7652 21.7161 12.836 21.3334 11.5556 21.3333C10.2752 21.3333 8.20724 22.0342 8 23.3333C7.95496 23.6157 7.91914 23.8907 7.88447 24.1568C7.70484 25.5358 7.55653 26.6743 6.32025 27.3397C5.88876 27.5719 5.69927 28.1393 6.05352 28.4778C6.46341 28.8696 6.97364 29.2888 7.56512 29.6528C7.56512 29.6528 7.56512 29.6528 7.56512 29.6528C7.57815 29.6608 7.59133 29.6688 7.60443 29.6768C7.60447 29.6768 7.6044 29.6768 7.60443 29.6768Z" fill="#A86CEE"/>
<rect x="12" y="11" width="24" height="24" rx="4" fill="#A86CEE" fill-opacity="0.2"/>
</svg>
