<svg width="36" height="37" viewBox="0 0 36 37" fill="none" xmlns="http://www.w3.org/2000/svg">
<path fill-rule="evenodd" clip-rule="evenodd" d="M18.5028 7.36968C18.3862 7.34203 18.2474 7.33366 17.5405 7.33366H17.3333C16.597 7.33366 16 6.7367 16 6.00033C16 5.26395 16.597 4.66699 17.3333 4.66699H17.5405C17.5773 4.66699 17.6139 4.66696 17.6502 4.66692C18.1862 4.66643 18.6588 4.666 19.1184 4.77505C19.5222 4.87085 19.9086 5.02891 20.2638 5.24355C20.668 5.48786 21.0049 5.81939 21.3869 6.19539C21.4127 6.22084 21.4388 6.24648 21.4651 6.27231L22.5453 7.3336C22.5654 7.33359 22.5855 7.33357 22.6055 7.33356C23.8922 7.33272 24.8491 7.33209 25.6651 7.60024C27.275 8.12931 28.5377 9.39199 29.0667 11.0019C29.3349 11.8179 29.3343 12.7748 29.3334 14.0615C29.3334 14.1346 29.3333 14.2088 29.3333 14.2841V20.9888C29.3333 22.062 29.3334 22.9478 29.2744 23.6694C29.2132 24.4189 29.0817 25.1078 28.752 25.7549C28.2407 26.7585 27.4248 27.5744 26.4213 28.0857C25.7742 28.4154 25.0852 28.5468 24.3358 28.6081C23.6142 28.667 22.7284 28.667 21.6551 28.667H10.3449C9.27161 28.667 8.38581 28.667 7.66422 28.6081C6.91476 28.5468 6.22582 28.4154 5.57871 28.0857C4.57518 27.5744 3.75928 26.7585 3.24795 25.7549C2.91823 25.1078 2.78681 24.4189 2.72558 23.6694C2.66662 22.9478 2.66664 22.062 2.66666 20.9887L2.66666 18.0003C2.66666 17.2639 3.26361 16.667 3.99999 16.667C4.73637 16.667 5.33332 17.2639 5.33332 18.0003V20.9337C5.33332 22.0758 5.33436 22.8522 5.38339 23.4523C5.43115 24.0368 5.51772 24.3358 5.62397 24.5443C5.87963 25.0461 6.28758 25.454 6.78935 25.7097C6.99788 25.8159 7.29682 25.9025 7.88137 25.9503C8.48149 25.9993 9.25788 26.0003 10.4 26.0003H21.6C22.7421 26.0003 23.5185 25.9993 24.1186 25.9503C24.7032 25.9025 25.0021 25.8159 25.2106 25.7097C25.7124 25.454 26.1203 25.0461 26.376 24.5443C26.4823 24.3358 26.5688 24.0368 26.6166 23.4523C26.6656 22.8522 26.6667 22.0758 26.6667 20.9337V14.2841C26.6667 12.6741 26.6499 12.1889 26.5334 11.8345C26.2688 11.0295 25.6375 10.3982 24.8325 10.1336C24.4781 10.0171 23.9928 10.0003 22.3829 10.0003C22.3767 10.0003 22.3696 10.0004 22.3616 10.0004C22.2834 10.0008 22.1228 10.0015 21.96 9.97574C21.6541 9.92731 21.3635 9.80846 21.1113 9.62857C20.9771 9.53288 20.8631 9.41978 20.8076 9.36475C20.8019 9.35911 20.7968 9.35408 20.7924 9.34974L19.5962 8.17454C19.0919 7.67908 18.987 7.58778 18.8846 7.52585C18.7662 7.4543 18.6374 7.40161 18.5028 7.36968Z" fill="#7C58D3"/>
<path fill-rule="evenodd" clip-rule="evenodd" d="M7.33333 0.666992C7.90724 0.666992 8.41676 1.03423 8.59824 1.57869L9.88743 5.44623L13.755 6.73541C14.2994 6.9169 14.6667 7.42642 14.6667 8.00033C14.6667 8.57423 14.2994 9.08375 13.755 9.26524L9.88743 10.5544L8.59824 14.422C8.41676 14.9664 7.90724 15.3337 7.33333 15.3337C6.75943 15.3337 6.24991 14.9664 6.06842 14.422L4.77924 10.5544L0.911696 9.26524C0.36724 9.08375 0 8.57423 0 8.00033C0 7.42642 0.36724 6.9169 0.911696 6.73541L4.77924 5.44623L6.06842 1.57869C6.24991 1.03423 6.75943 0.666992 7.33333 0.666992ZM7.33333 6.2167L7.09824 6.92196C6.96553 7.3201 6.65311 7.63252 6.25497 7.76524L5.5497 8.00033L6.25497 8.23541C6.65311 8.36813 6.96553 8.68055 7.09824 9.07869L7.33333 9.78396L7.56842 9.07869C7.70114 8.68055 8.01356 8.36813 8.4117 8.23541L9.11696 8.00033L8.4117 7.76524C8.01356 7.63252 7.70114 7.3201 7.56842 6.92196L7.33333 6.2167Z" fill="#7C58D3"/>
<path fill-rule="evenodd" clip-rule="evenodd" d="M16 15.3337C14.5272 15.3337 13.3333 16.5276 13.3333 18.0003C13.3333 19.4731 14.5272 20.667 16 20.667C17.4728 20.667 18.6667 19.4731 18.6667 18.0003C18.6667 16.5276 17.4728 15.3337 16 15.3337ZM10.6667 18.0003C10.6667 15.0548 13.0545 12.667 16 12.667C18.9455 12.667 21.3333 15.0548 21.3333 18.0003C21.3333 20.9458 18.9455 23.3337 16 23.3337C13.0545 23.3337 10.6667 20.9458 10.6667 18.0003Z" fill="#7C58D3"/>
<rect x="12" y="13" width="24" height="24" rx="4" fill="#7C58D3" fill-opacity="0.2"/>
</svg>
