<svg width="36" height="35" viewBox="0 0 36 35" fill="none" xmlns="http://www.w3.org/2000/svg">
<path fill-rule="evenodd" clip-rule="evenodd" d="M19.8682 16.017L17.8853 17.9999L20.6663 20.7809L22.6492 18.798C22.5986 18.2848 22.4093 17.6284 21.7236 16.9427C21.0378 16.257 20.3814 16.0676 19.8682 16.017ZM24.9425 20.276C25.1898 20.0287 25.33 19.6941 25.333 19.3443C25.3394 18.5732 25.3252 16.7729 23.6091 15.057C21.8931 13.3412 20.0932 13.3268 19.3219 13.3332C18.9721 13.3362 18.6375 13.4764 18.3902 13.7237L8.3902 23.7237C8.0673 24.0466 7.93211 24.5123 8.03191 24.9579L9.33301 24.6665C8.03191 24.9579 8.03191 24.9579 8.03191 24.9579L8.03261 24.9611L8.03347 24.9648L8.03565 24.9743L8.04195 25.0007C8.04702 25.0216 8.05387 25.049 8.06263 25.0823C8.08015 25.1488 8.1054 25.2394 8.13954 25.3496C8.2076 25.5693 8.31214 25.8708 8.46289 26.2175C8.76025 26.9014 9.25923 27.8117 10.0569 28.6093C10.8545 29.407 11.7648 29.906 12.4487 30.2033C12.7954 30.3541 13.0969 30.4586 13.3166 30.5267C13.4268 30.5608 13.5174 30.5861 13.5839 30.6036C13.6172 30.6123 13.6446 30.6192 13.6655 30.6243L13.6919 30.6306L13.7014 30.6327L13.7052 30.6336L13.7068 30.634C13.7068 30.634 13.7083 30.6343 13.9997 29.3332L13.7083 30.6343C13.8039 30.6557 13.9017 30.6665 13.9997 30.6665H25.333C26.0694 30.6665 26.6663 30.0696 26.6663 29.3332C26.6663 28.5968 26.0694 27.9999 25.333 27.9999H17.2186L24.9425 20.276ZM18.7807 22.6665L15.9997 19.8855L10.8558 25.0294C10.8723 25.0698 10.8898 25.1114 10.9084 25.1542C11.1239 25.6498 11.4582 26.2395 11.9425 26.7237C12.4267 27.208 13.0164 27.5423 13.512 27.7578C13.5548 27.7764 13.5964 27.7939 13.6368 27.8104L18.7807 22.6665Z" fill="#00AAFF"/>
<path fill-rule="evenodd" clip-rule="evenodd" d="M9.33301 1.3332C9.90691 1.3332 10.4164 1.70044 10.5979 2.2449L12.0538 6.61244L16.4213 8.06829C16.9658 8.24978 17.333 8.7593 17.333 9.3332C17.333 9.90711 16.9658 10.4166 16.4213 10.5981L12.0538 12.054L10.5979 16.4215C10.4164 16.966 9.90691 17.3332 9.33301 17.3332C8.7591 17.3332 8.24958 16.966 8.0681 16.4215L6.61225 12.054L2.2447 10.5981C1.70025 10.4166 1.33301 9.90711 1.33301 9.3332C1.33301 8.7593 1.70025 8.24978 2.2447 8.06829L6.61225 6.61244L8.0681 2.2449C8.24958 1.70044 8.7591 1.3332 9.33301 1.3332ZM9.33301 6.88291L8.93125 8.08817C8.79854 8.48631 8.48612 8.79873 8.08798 8.93145L6.88271 9.3332L8.08798 9.73496C8.48612 9.86767 8.79854 10.1801 8.93125 10.5782L9.33301 11.7835L9.73476 10.5782C9.86748 10.1801 10.1799 9.86767 10.578 9.73496L11.7833 9.3332L10.578 8.93145C10.1799 8.79873 9.86748 8.48631 9.73476 8.08817L9.33301 6.88291Z" fill="#00AAFF"/>
<path fill-rule="evenodd" clip-rule="evenodd" d="M24.6663 0.533203C25.0107 0.533203 25.3164 0.753547 25.4253 1.08022L26.4655 4.20075L29.586 5.24092C29.9127 5.34981 30.133 5.65552 30.133 5.99987C30.133 6.34421 29.9127 6.64992 29.586 6.75882L26.4655 7.79899L25.4253 10.9195C25.3164 11.2462 25.0107 11.4665 24.6663 11.4665C24.322 11.4665 24.0163 11.2462 23.9074 10.9195L22.8672 7.79899L19.7467 6.75882C19.42 6.64992 19.1997 6.34421 19.1997 5.99987C19.1997 5.65552 19.42 5.34981 19.7467 5.24092L22.8672 4.20075L23.9074 1.08022C24.0163 0.753547 24.322 0.533203 24.6663 0.533203Z" fill="#00AAFF"/>
<rect x="12" y="11" width="24" height="24" rx="4" fill="#00AAFF" fill-opacity="0.2"/>
</svg>
