<svg width="36" height="35" viewBox="0 0 36 35" fill="none" xmlns="http://www.w3.org/2000/svg">
<path fill-rule="evenodd" clip-rule="evenodd" d="M12.667 8.0002C13.2409 8.0002 13.7504 8.36744 13.9319 8.91189L15.8878 14.7794L21.7553 16.7353C22.2998 16.9168 22.667 17.4263 22.667 18.0002C22.667 18.5741 22.2998 19.0836 21.7553 19.2651L15.8878 21.221L13.9319 27.0885C13.7504 27.633 13.2409 28.0002 12.667 28.0002C12.0931 28.0002 11.5836 27.633 11.4021 27.0885L9.44623 21.221L3.57869 19.2651C3.03423 19.0836 2.66699 18.5741 2.66699 18.0002C2.66699 17.4263 3.03423 16.9168 3.57869 16.7353L9.44623 14.7794L11.4021 8.91189C11.5836 8.36744 12.0931 8.0002 12.667 8.0002ZM12.667 13.5499L11.7652 16.2552C11.6325 16.6533 11.3201 16.9657 10.922 17.0984L8.2167 18.0002L10.922 18.902C11.3201 19.0347 11.6325 19.3471 11.7652 19.7452L12.667 22.4505L13.5687 19.7452C13.7015 19.3471 14.0139 19.0347 14.412 18.902L17.1173 18.0002L14.412 17.0984C14.0139 16.9657 13.7015 16.6533 13.5687 16.2552L12.667 13.5499Z" fill="#1DD692"/>
<path fill-rule="evenodd" clip-rule="evenodd" d="M23.3337 3.2002C23.678 3.2002 23.9837 3.42054 24.0926 3.74721L25.1328 6.86774L28.2533 7.90792C28.58 8.01681 28.8003 8.32252 28.8003 8.66686C28.8003 9.01121 28.58 9.31692 28.2533 9.42581L25.1328 10.466L24.0926 13.5865C23.9837 13.9132 23.678 14.1335 23.3337 14.1335C22.9893 14.1335 22.6836 13.9132 22.5747 13.5865L21.5345 10.466L18.414 9.42581C18.0873 9.31692 17.867 9.01121 17.867 8.66686C17.867 8.32252 18.0873 8.01681 18.414 7.90792L21.5345 6.86774L22.5747 3.74721C22.6836 3.42054 22.9893 3.2002 23.3337 3.2002Z" fill="#1DD692"/>
<rect x="12" y="11" width="24" height="24" rx="4" fill="#1DD692" fill-opacity="0.2"/>
</svg>
