<svg width="46" height="46" viewBox="0 0 46 46" fill="none" xmlns="http://www.w3.org/2000/svg">
<path d="M25.0934 2.62379C24.9496 2.69566 24.752 3.05504 24.4285 3.81871L23.9703 4.9148L23.2695 5.2023L22.5687 5.4898L21.4996 5.07652C20.9156 4.85191 20.3586 4.67223 20.2598 4.67223C20.0172 4.67223 17.4297 7.26871 17.4297 7.51129C17.4297 7.60113 17.6453 8.15816 17.9148 8.73316L18.391 9.79332L18.1125 10.4941L17.834 11.2039L16.7289 11.6351C16.091 11.8867 15.5609 12.1472 15.4891 12.255C15.3902 12.3988 15.3633 12.8211 15.3633 14.2046C15.3633 15.7589 15.3812 15.9925 15.525 16.1722C15.6059 16.28 16.1449 16.5586 16.702 16.7832L17.7262 17.2054L18.0227 17.9152L18.3191 18.625L17.8609 19.739C17.4926 20.6375 17.4207 20.898 17.4836 21.0777C17.5285 21.1945 18.1305 21.8593 18.8133 22.5511C19.7117 23.4496 20.125 23.8089 20.2777 23.8089C20.3945 23.8089 20.9426 23.6023 21.4906 23.3597C22.0387 23.1082 22.5418 22.9105 22.5957 22.9105C22.6496 22.9105 22.973 23.0273 23.3145 23.1711L23.9434 23.4316L24.3926 24.4648C24.6441 25.0308 24.8957 25.5609 24.9676 25.6418C25.0754 25.7675 25.327 25.7855 27.034 25.7675L28.9746 25.7406L29.1992 25.2914C29.325 25.0398 29.5586 24.5187 29.7113 24.1144C29.9988 23.4136 30.0168 23.3867 30.4301 23.2519C30.6727 23.1711 30.9871 23.0543 31.1398 22.9914C31.4004 22.8836 31.4992 22.9105 32.4336 23.2968C32.9906 23.5304 33.5477 23.7191 33.6824 23.7191C33.8711 23.7191 34.1945 23.4496 35.2008 22.4343C35.9016 21.7246 36.4855 21.0687 36.4855 20.9699C36.5035 20.6644 36.4676 20.5566 36.0184 19.5503L35.5781 18.5621L35.8027 17.9781C35.9285 17.6546 36.0633 17.3312 36.0992 17.2683C36.1352 17.1964 36.6562 16.9449 37.2492 16.6933C38.0848 16.3519 38.3633 16.1992 38.4441 16.0285C38.5969 15.6871 38.5789 12.273 38.4262 12.1382C38.3543 12.0843 37.8512 11.8507 37.2941 11.6171L36.2879 11.1859L36.0184 10.557C35.8746 10.2156 35.7578 9.88316 35.7578 9.82027C35.7578 9.75738 35.9645 9.24527 36.207 8.69722C36.4586 8.14918 36.6562 7.59215 36.6562 7.46636C36.6562 7.15191 34.1766 4.67223 33.8621 4.67223C33.7363 4.67223 33.1703 4.86988 32.5953 5.11246L31.5531 5.55269L30.8434 5.27418L30.1246 4.98668L29.7293 4.01637C29.4508 3.32457 29.2441 2.96519 29.0375 2.77652L28.741 2.51598L27.016 2.52496C25.9828 2.52496 25.2102 2.56988 25.0934 2.62379ZM28.5254 9.1734C29.6395 9.5148 30.8703 10.4851 31.4902 11.5003C32.4156 13.0277 32.4965 14.9683 31.6969 16.6125C31.2566 17.5199 30.2324 18.4992 29.2801 18.9484C27.7437 19.6671 26.2883 19.6761 24.8059 18.9933C23.6379 18.4543 22.7754 17.6097 22.2453 16.4867C21.841 15.6421 21.7332 15.13 21.7332 14.1418C21.7422 12.8031 22.1914 11.6441 23.1078 10.6468C24.4645 9.15543 26.6027 8.57144 28.5254 9.1734Z" fill="white"/>
<path d="M2.60547 25.0664C2.42578 25.2461 2.42578 25.3629 2.42578 32.3258V39.4145L2.63242 39.6031C2.83906 39.8008 2.88398 39.8008 5.71406 39.8008H8.59805L8.78672 39.5941L8.98437 39.3875V32.3168C8.98437 25.3629 8.98437 25.2461 8.80469 25.0664C8.63398 24.8957 8.5082 24.8867 5.70508 24.8867C2.90195 24.8867 2.77617 24.8957 2.60547 25.0664Z" fill="white"/>
<path d="M10.332 32.1373V36.9799L15.4801 39.8639C18.3012 41.4541 20.7809 42.8287 20.9875 42.9275C22.2543 43.5654 24.2488 43.5564 25.6504 42.9096C25.902 42.7928 29.7562 40.4029 34.2305 37.5998C38.7047 34.7967 42.559 32.3799 42.7926 32.2361C43.3586 31.8768 43.6102 31.4006 43.5562 30.7717C43.5023 30.1787 43.2238 29.7744 42.6937 29.5408C42.4062 29.415 42.2086 29.3791 41.966 29.424C41.7863 29.46 39.0191 30.4123 35.8027 31.5443C30.3762 33.458 29.9449 33.6197 29.7383 33.8893C29.3609 34.3924 28.9656 34.7338 28.5074 34.9584L28.0762 35.174L23.557 35.201L19.0469 35.2279L18.8223 35.0033C18.5527 34.7248 18.5348 34.4193 18.7863 34.1049L18.966 33.8713H23.2516C27.2406 33.8713 27.5641 33.8533 27.9055 33.7006C28.8848 33.2514 29.0375 31.8678 28.175 31.2209C27.9414 31.0502 27.7617 31.0412 25.0844 30.9963C22.443 30.9514 22.2094 30.9334 21.832 30.7627C21.3738 30.5471 20.9336 30.0889 20.4934 29.3342C19.9453 28.4088 18.8492 27.7978 17.1422 27.4834C16.8187 27.4295 15.2195 27.3576 13.4586 27.3396L10.332 27.2947V32.1373Z" fill="white"/>
</svg>
