<svg width="46" height="46" viewBox="0 0 46 46" fill="none" xmlns="http://www.w3.org/2000/svg">
<g clip-path="url(#clip0_427_8671)">
<path d="M11.2754 0.125781C10.5207 0.314453 9.95469 0.637891 9.37969 1.21289C8.7957 1.79688 8.43633 2.43477 8.27461 3.21641C8.21172 3.50391 8.17578 4.7168 8.17578 6.25313C8.17578 8.64297 8.18477 8.83164 8.35547 9.16406C8.56211 9.56836 9.07422 9.88281 9.52344 9.88281C9.97266 9.88281 10.4848 9.56836 10.6914 9.16406C10.8621 8.83164 10.8711 8.64297 10.8711 6.28906C10.8711 3.98906 10.8891 3.7375 11.0418 3.43203C11.3203 2.89297 11.7695 2.69531 12.7488 2.69531H13.5664V5.75C13.5664 8.64297 13.5754 8.83164 13.7461 9.16406C13.9527 9.56836 14.4648 9.88281 14.9141 9.88281C15.3633 9.88281 15.8754 9.56836 16.082 9.16406C16.2527 8.83164 16.2617 8.64297 16.2617 5.75V2.69531H17.6094H18.957V5.75C18.957 8.64297 18.966 8.83164 19.1367 9.16406C19.3434 9.56836 19.8555 9.88281 20.3047 9.88281C20.7539 9.88281 21.266 9.56836 21.4727 9.16406C21.6434 8.83164 21.6523 8.64297 21.6523 5.75V2.69531H23H24.3477V5.75C24.3477 8.64297 24.3566 8.83164 24.5273 9.16406C24.734 9.56836 25.2461 9.88281 25.6953 9.88281C26.1445 9.88281 26.6566 9.56836 26.8633 9.16406C27.034 8.83164 27.043 8.64297 27.043 5.75V2.69531H28.3906H29.7383V5.75C29.7383 8.64297 29.7473 8.83164 29.918 9.16406C30.1246 9.56836 30.6367 9.88281 31.0859 9.88281C31.5352 9.88281 32.0473 9.56836 32.2539 9.16406C32.4246 8.83164 32.4336 8.64297 32.4336 5.75V2.69531H33.2422C34.2484 2.69531 34.6707 2.875 34.9492 3.41406C35.1199 3.74648 35.1289 3.93516 35.1289 6.28906C35.1289 8.64297 35.1379 8.83164 35.3086 9.16406C35.5152 9.56836 36.0273 9.88281 36.4766 9.88281C36.9258 9.88281 37.4379 9.56836 37.6445 9.16406C37.8152 8.83164 37.8242 8.64297 37.8242 6.25313C37.8242 4.68086 37.7883 3.50391 37.7254 3.21641C37.393 1.67109 36.1441 0.422266 34.6078 0.0988283C33.8891 -0.0539064 11.8863 -0.0269527 11.2754 0.125781Z" fill="#0E081E"/>
<path d="M11.9042 13.827C10.4936 14.1773 9.0112 15.2914 8.39128 16.4863C7.97799 17.268 6.58542 21.1672 6.45963 21.8859C6.15417 23.6199 6.85495 25.6145 8.17565 26.8004C8.4362 27.034 8.67878 27.2227 8.71471 27.2227C8.75963 27.2227 8.83151 27.0879 8.88542 26.9262C8.93034 26.7734 9.47838 25.0754 10.1073 23.1617C11.3022 19.5051 11.6706 18.6156 12.587 17.2859C13.0721 16.5762 14.4378 15.1297 15.1745 14.5367C15.5608 14.2223 15.5698 14.2133 15.3721 14.1145C14.9768 13.8988 13.7909 13.6562 13.171 13.6652C12.8206 13.6652 12.2546 13.7371 11.9042 13.827Z" fill="#0E081E"/>
<path d="M31.4722 13.8359C31.1128 13.9258 30.7354 14.0516 30.6276 14.1145C30.43 14.2133 30.439 14.2223 30.8253 14.5367C31.544 15.1117 32.9186 16.5762 33.4128 17.2859C34.3202 18.6066 34.6976 19.4961 35.8925 23.1617C36.5214 25.0754 37.0694 26.7734 37.1144 26.9262C37.1683 27.0879 37.2401 27.2227 37.2851 27.2227C37.33 27.2227 37.5815 27.016 37.8601 26.7734C39.1538 25.5875 39.8366 23.593 39.5401 21.8859C39.4144 21.1672 38.0218 17.268 37.6085 16.4863C37.2222 15.7406 36.2339 14.7703 35.4253 14.348C34.1495 13.6832 32.7569 13.5035 31.4722 13.8359Z" fill="#0E081E"/>
<path d="M21.3826 14.6895C18.2111 15.1927 15.3631 17.331 13.9795 20.2419C13.6111 21.0235 9.9455 32.254 9.74784 33.2243C8.93027 37.1685 10.5205 41.3821 13.7369 43.8079C15.1744 44.886 16.8725 45.6138 18.5705 45.8653C19.8283 46.054 26.1713 46.054 27.4291 45.8653C28.9475 45.6407 30.4748 45.0388 31.8494 44.1224C32.667 43.5833 33.9787 42.2716 34.5717 41.3911C36.2158 38.9923 36.8268 36.0005 36.2518 33.2243C36.0541 32.245 32.3885 21.0235 32.0201 20.2419C31.1037 18.3103 29.5764 16.729 27.6896 15.7407C25.6951 14.6985 23.5748 14.3481 21.3826 14.6895ZM19.5857 24.1681C19.99 24.3747 20.3045 24.8868 20.3045 25.336C20.3045 26.0188 19.6396 26.6837 18.9478 26.6837C18.5346 26.6837 17.9775 26.3333 17.7799 25.947C17.4475 25.3001 17.6541 24.5903 18.292 24.204C18.7232 23.9435 19.1185 23.9345 19.5857 24.1681ZM27.6717 24.1681C28.076 24.3747 28.3904 24.8868 28.3904 25.336C28.3904 26.0188 27.7256 26.6837 27.0338 26.6837C26.6205 26.6837 26.0635 26.3333 25.8658 25.947C25.5334 25.3001 25.74 24.5903 26.3779 24.204C26.8092 23.9435 27.2045 23.9345 27.6717 24.1681ZM25.3178 30.0438C26.4767 30.3313 27.2404 30.8794 27.6447 31.697C27.8693 32.1462 27.8963 32.3079 27.8873 33.0177C27.8873 33.6645 27.8334 33.9431 27.6447 34.4282C27.1596 35.695 26.1084 36.854 24.9853 37.3931L24.3564 37.6896V39.0642C24.3475 40.6724 24.2396 41.0138 23.6287 41.3282C23.1705 41.5618 22.7932 41.5528 22.3529 41.3103C21.751 40.9688 21.6521 40.6634 21.6432 39.0642V37.6896L21.0143 37.3931C19.0287 36.4407 17.6631 33.9161 18.1842 32.1462C18.5346 30.9333 19.5768 30.1966 21.3377 29.9181C22.1193 29.8013 24.635 29.8821 25.3178 30.0438Z" fill="#0E081E"/>
<path d="M21.5535 32.6133C21.0145 32.7031 20.7539 32.8469 20.7539 33.0445C20.7539 33.2961 21.1582 34.0867 21.4637 34.4281C21.8141 34.8324 22.5687 35.2188 23 35.2188C23.4312 35.2188 24.1859 34.8324 24.5363 34.4281C24.8418 34.0777 25.2461 33.2961 25.2461 33.0355C25.2461 32.7301 24.6801 32.5863 23.2695 32.5594C22.5508 32.5414 21.7781 32.5684 21.5535 32.6133Z" fill="#0E081E"/>
</g>
<defs>
<clipPath id="clip0_427_8671">
<rect width="46" height="46" fill="white"/>
</clipPath>
</defs>
</svg>
