<svg width="44" height="44" viewBox="0 0 44 44" fill="none" xmlns="http://www.w3.org/2000/svg">
<g clip-path="url(#clip0_393_128946)">
<path d="M18.3807 0.131662C17.1115 0.363707 16.1713 0.827799 15.3816 1.61675C13.6329 3.3803 13.3978 6.52683 14.7611 9.98895C14.9115 10.3881 15.0807 10.7686 15.1277 10.8336C15.1747 10.9078 15.579 11.0285 16.0397 11.1028C17.6286 11.3627 19.5089 12.0588 21.0038 12.9313C22.7337 13.943 24.6046 15.688 25.714 17.3494C26.0619 17.8599 26.3816 18.259 26.4192 18.2126C26.4568 18.1755 26.673 17.8414 26.908 17.4887C29.014 14.2215 32.8123 11.7525 36.7516 11.0935C37.1841 11.0192 37.579 10.9078 37.6166 10.8336C37.7764 10.5923 38.2841 9.12574 38.5191 8.25325C38.867 6.95379 38.9234 5.14384 38.6507 4.07643C38.3593 2.92549 38.049 2.3593 37.2875 1.60747C36.1311 0.465807 34.9559 0.0481262 32.8593 0.0481262C31.3456 0.0481262 30.7627 0.168789 29.5499 0.744263C28.3371 1.31973 27.3499 2.1551 26.485 3.37101C26.3627 3.53809 26.3345 3.51952 26.0619 3.12969C25.6012 2.47068 24.661 1.59819 23.8995 1.1341C22.2918 0.140944 20.2987 -0.221046 18.3807 0.131662Z" fill="#0E081E"/>
<path d="M11.7333 12.0872C11.282 12.1521 10.8965 12.2264 10.8683 12.2449C10.8401 12.2728 10.9623 12.6348 11.1316 13.0525C12.8239 17.1272 16.7068 20.2459 21.1726 21.1091C22.0939 21.2854 24.5196 21.3968 25.0554 21.2762L25.4221 21.1926L22.9871 19.8096C21.6426 19.0578 20.4674 18.3709 20.3828 18.2967C20.035 18.009 20.2888 17.3499 20.7401 17.3499C20.8341 17.3499 22.0563 17.9997 23.4384 18.7886C24.8298 19.5776 25.9862 20.2273 26.0144 20.2273C26.0332 20.2273 25.817 19.7725 25.5255 19.2249C23.9366 16.199 21.0785 13.7857 17.7691 12.6812C16.0204 12.0964 13.4914 11.8458 11.7333 12.0872Z" fill="#0E081E"/>
<path d="M37.7096 12.0685C33.7891 12.5141 30.113 14.7324 27.9412 17.9439C27.4712 18.6493 26.672 20.1344 26.7284 20.1994C26.7472 20.218 27.1891 19.9859 27.6968 19.6982C30.9216 17.8233 31.8711 17.3313 32.1062 17.387C32.4164 17.4613 32.5951 17.8325 32.4634 18.111C32.3976 18.2502 31.4669 18.835 29.8216 19.7632C26.9353 21.406 26.9729 21.3225 28.9566 21.3318C33.46 21.3596 37.7942 19.0856 40.295 15.4007C40.9532 14.4075 41.7429 12.8482 41.7711 12.4584C41.7899 12.1985 41.7805 12.1985 40.9438 12.0871C39.966 11.9664 38.7062 11.9571 37.7096 12.0685Z" fill="#0E081E"/>
<path d="M25.7981 22.399C25.7699 22.4733 25.7605 23.2622 25.7793 24.1718C25.8075 25.6662 25.8263 25.824 25.9862 25.9447C26.24 26.121 26.5503 26.1117 26.7289 25.9075C26.8699 25.759 26.8887 25.4806 26.8887 24.0048V22.2691H26.3716C26.0144 22.2691 25.8357 22.3062 25.7981 22.399Z" fill="#0E081E"/>
<path d="M14.9957 28.5435C13.6042 28.7384 12.6453 29.0076 10.5205 29.7965C8.77178 30.4463 7.61538 30.7804 6.70341 30.9196L6.01709 31.0125V36.5166V42.0114L7.69059 42.0671C9.994 42.1506 12.241 42.4291 15.5504 43.0231C19.6495 43.7564 20.8529 43.9142 22.235 43.9327C23.3444 43.942 23.5042 43.9235 24.0213 43.7007C24.3316 43.5707 27.9042 41.4081 31.9657 38.8927C36.0273 36.3773 40.2674 33.7413 41.3956 33.0452C43.8024 31.5694 43.9999 31.4116 43.9999 30.9753C43.9999 30.5298 43.5016 29.7408 43.0033 29.3881C42.1665 28.7941 41.311 28.6363 40.5119 28.9148C40.2862 28.989 38.4247 30.0007 36.3845 31.161L32.6803 33.2679L32.5674 33.6949C32.2854 34.7994 31.5897 35.6534 30.5743 36.1267L29.9444 36.4237L25.2435 36.4516L20.5427 36.4794L20.3829 36.2752C20.176 36.0339 20.1666 35.8204 20.3453 35.5791C20.4769 35.412 20.6649 35.4028 25.1683 35.3563C30.4144 35.3007 30.1042 35.3471 30.8375 34.6045C31.4298 33.9919 31.6461 33.0452 31.3828 32.1634C31.3076 31.9314 31.082 31.5972 30.7905 31.3002C30.0478 30.5484 29.9256 30.5298 25.9392 30.5298H22.5828L21.7649 30.1028C19.9034 29.119 18.1077 28.5992 16.3589 28.5435C15.7666 28.5156 15.1555 28.5249 14.9957 28.5435Z" fill="#0E081E"/>
<path d="M0.159829 29.2118C0.00940168 29.3695 0 30.01 0 36.5444V43.7007L0.206837 43.8399C0.517092 44.0534 4.37178 44.0534 4.68204 43.8399L4.88887 43.7007V36.5258C4.88887 29.6944 4.87947 29.3417 4.71964 29.2025C4.56922 29.0632 4.26836 29.0447 2.42563 29.0447C0.498289 29.0447 0.300854 29.0632 0.159829 29.2118Z" fill="#0E081E"/>
</g>
<defs>
<clipPath id="clip0_393_128946">
<rect width="44" height="44" fill="white"/>
</clipPath>
</defs>
</svg>
