<svg width="22" height="24" viewBox="0 0 22 24" fill="none" xmlns="http://www.w3.org/2000/svg">
<path d="M6.01272 2.95538C3.39218 4.26788 1.18236 5.39288 1.10647 5.45538C0.874325 5.6518 0.852003 5.78127 0.883253 6.9777C0.981467 10.6875 1.91004 14.3081 3.48147 17.067C4.71807 19.2411 6.29843 20.9197 8.3029 22.1831C9.16004 22.7232 10.66 23.4286 10.9591 23.4286C11.3118 23.4286 12.977 22.6161 13.9234 21.9822C14.8074 21.3884 15.2136 21.0581 16.0083 20.2634C17.0529 19.2188 17.8118 18.2098 18.5484 16.8706C20.0886 14.0714 21.044 10.1206 21.0484 6.54466C21.0484 5.81698 21.0216 5.6652 20.8565 5.48663C20.8029 5.42859 18.5931 4.29913 15.9458 2.9777C12.0172 1.01341 11.102 0.571447 10.9591 0.571447C10.8163 0.571447 9.90557 1.00895 6.01272 2.95538ZM14.6109 5.32145C17.3699 6.70091 18.1466 7.10716 18.2136 7.20538C18.3341 7.39288 18.3431 7.65627 18.2583 8.47323C17.9591 11.4509 17.0975 14.1875 15.8208 16.2322C15.3252 17.0357 14.852 17.625 14.1333 18.3438C13.3565 19.1161 12.7583 19.5848 11.919 20.0759C11.1868 20.5045 11.0261 20.5581 10.7627 20.4732C10.4725 20.375 9.53057 19.8125 8.97254 19.3973C8.34308 18.9375 7.20022 17.7947 6.73593 17.1697C5.06629 14.9241 4.03057 12 3.66004 8.50002C3.57522 7.69645 3.58415 7.39288 3.70468 7.20984C3.77165 7.10716 4.53058 6.70984 7.30736 5.32145C9.55736 4.19645 10.8743 3.56252 10.9591 3.56252C11.044 3.56252 12.3609 4.19645 14.6109 5.32145Z" fill="white"/>
<path d="M7.96164 6.49109L4.97949 7.98216V8.15627C4.97949 8.68752 5.25181 10.2947 5.52414 11.3527C6.33664 14.5447 7.84556 16.9643 9.95717 18.4598C10.3723 18.7545 10.8857 19.0536 10.9661 19.0536C11.0688 19.0536 11.7295 18.6429 12.1893 18.2947C14.2429 16.7411 15.6848 14.317 16.4527 11.1295C16.7072 10.0938 16.9438 8.64734 16.9438 8.16073V7.98216L13.9527 6.48663C12.3098 5.6652 10.9572 4.99109 10.9527 4.99555C10.9438 4.99555 9.60003 5.66966 7.96164 6.49109Z" fill="white"/>
</svg>
