<svg width="23" height="24" viewBox="0 0 23 24" fill="none" xmlns="http://www.w3.org/2000/svg">
<g clip-path="url(#clip0_361_102567)">
<path d="M21.7197 4.01854V11.3581C21.7197 13.1747 20.8871 15.2833 19.3758 17.2954C17.6146 19.6397 15.0203 21.709 11.8733 23.2796L11.5742 23.4287L11.2751 23.2796C8.12808 21.709 5.53378 19.6397 3.77255 17.2954C2.26133 15.2833 1.42871 13.1747 1.42871 11.3581V4.01854L6.36462 0.571533H16.7838L21.7197 4.01854Z" fill="white"/>
<path d="M21.7187 4.01854V11.3581C21.7187 13.1747 20.8861 15.2833 19.3749 17.2954C17.6137 19.6397 15.0194 21.709 11.8724 23.2796L11.5732 23.4287V0.571533H16.7828L21.7187 4.01854Z" fill="white"/>
<path d="M15.9409 3.25024H7.20754L4.10742 5.41506V11.3582C4.10742 13.4006 6.11688 17.3919 11.5742 20.4112C17.0316 17.3919 19.041 13.4006 19.041 11.3582V5.41506L15.9409 3.25024Z" fill="white"/>
<path d="M19.0401 5.41494V11.358C19.0401 13.4005 17.0306 17.3917 11.5732 20.4111V3.25012H15.9399L19.0401 5.41494Z" fill="white"/>
<path d="M16.1514 2.58044H6.99657L3.4375 5.06581V11.358C3.4375 12.6643 4.09913 14.3242 5.2523 15.9118C6.65638 17.8449 8.73012 19.6034 11.2499 20.9972L11.574 21.1767L11.8981 20.9972C14.4178 19.6034 16.4916 17.8449 17.8957 15.9118C19.0488 14.3242 19.7105 12.6643 19.7105 11.358V5.06581L16.1514 2.58044ZM18.3711 11.358C18.3711 13.1398 16.5536 16.7779 11.574 19.6423C6.59432 16.7779 4.77684 13.1398 4.77684 11.358V5.76405L7.41801 3.91978H15.7299L18.3711 5.76405V11.358Z" fill="#4DC27E"/>
<path d="M19.7097 5.06581V11.358C19.7097 12.6643 19.0481 14.3242 17.8949 15.9118C16.4908 17.8449 14.4171 19.6034 11.8974 20.9972L11.5732 21.1767V19.6423C16.5529 16.7779 18.3704 13.1398 18.3704 11.358V5.76405L15.7292 3.91978H11.5732V2.58044H16.1507L19.7097 5.06581Z" fill="#4DC27E"/>
<path d="M15.8492 8.34974L11.574 12.7437L11.5651 12.753L10.478 13.87L7.29883 10.8967L8.2136 9.91855L10.4333 11.995L11.5651 10.8324L11.574 10.823L14.8893 7.41577L15.8492 8.34974Z" fill="#4DC27E"/>
<path d="M15.8484 8.34974L11.5732 12.7437V10.823L14.8886 7.41577L15.8484 8.34974Z" fill="#4DC27E"/>
</g>
<defs>
<clipPath id="clip0_361_102567">
<rect width="22.8571" height="22.8571" fill="white" transform="translate(0.144531 0.571411)"/>
</clipPath>
</defs>
</svg>
