<svg width="22" height="21" viewBox="0 0 22 21" fill="none" xmlns="http://www.w3.org/2000/svg">
<path d="M20.0404 12.7012C20.171 12.076 20.252 11.4107 20.252 10.7454C20.252 5.6773 16.114 1.57817 11.0078 1.57817C10.3369 1.57817 9.67044 1.65408 9.03555 1.78804C8.18002 1.13164 7.11735 0.743164 5.96013 0.743164C3.1774 0.743164 0.916992 2.98474 0.916992 5.74428C0.916992 6.89186 1.30874 7.94566 1.96615 8.7896C1.83556 9.41474 1.75451 10.0801 1.75451 10.7454C1.75451 15.8135 5.89259 19.9126 10.9988 19.9126C11.6697 19.9126 12.3361 19.8367 12.971 19.7028C13.8265 20.3547 14.8892 20.7432 16.0419 20.7432C18.8246 20.7432 21.0851 18.5016 21.0851 15.742C21.0896 14.5989 20.6978 13.5451 20.0404 12.7012V12.7012ZM11.2779 16.7869C8.32411 16.7869 5.85207 15.4831 5.85207 13.8845C5.85207 13.17 6.25732 12.5181 7.18039 12.5181C8.58527 12.5181 8.71585 14.523 11.1474 14.523C12.3046 14.523 13.0521 14.014 13.0521 13.3487C13.0521 12.5136 12.3316 12.3842 11.1609 12.0984C8.34662 11.4107 5.85657 11.116 5.85657 8.20465C5.85657 5.5612 8.49521 4.58331 10.7691 4.58331C13.2502 4.58331 15.7582 5.5612 15.7582 7.05707C15.7582 7.81171 15.2449 8.47703 14.3939 8.47703C13.1196 8.47703 13.0791 6.98116 11.0168 6.98116C9.85956 6.98116 9.12561 7.29373 9.12561 7.98585C9.12561 8.86998 10.0622 8.95928 12.237 9.45939C14.1012 9.87467 16.3211 10.6561 16.3211 12.9245C16.3211 15.5634 13.75 16.7869 11.2779 16.7869V16.7869Z" fill="#0E081E"/>
</svg>
