<svg width="11" height="9" viewBox="0 0 11 9" fill="none" xmlns="http://www.w3.org/2000/svg">
<path d="M5.1762 0.281679C5.26079 0.0164976 5.63601 0.0164981 5.7206 0.28168L6.60337 3.04912C6.64116 3.16758 6.75123 3.248 6.87557 3.248L9.74333 3.24801C10.0188 3.24801 10.1347 3.59949 9.91329 3.76338L7.58422 5.48703C7.48593 5.55978 7.44482 5.68701 7.48199 5.80352L8.36946 8.58571C8.45373 8.84987 8.15018 9.06714 7.9273 8.9022L5.61836 7.19345C5.51738 7.11871 5.37942 7.11871 5.27844 7.19345L2.9695 8.9022C2.74662 9.06714 2.44307 8.84987 2.52734 8.58571L3.41481 5.80352C3.45198 5.68701 3.41087 5.55978 3.31258 5.48703L0.983509 3.76338C0.762056 3.59949 0.877972 3.24801 1.15347 3.24801L4.02122 3.248C4.14557 3.248 4.25564 3.16758 4.29343 3.04912L5.1762 0.281679Z" fill="#4DC27E"/>
</svg>
