<svg width="26" height="24" viewBox="0 0 26 24" fill="none" xmlns="http://www.w3.org/2000/svg">
<path d="M11.3346 0.88384C11.7175 -0.294612 13.3847 -0.294614 13.7676 0.883838L15.8537 7.30398C16.0249 7.831 16.516 8.18782 17.0702 8.18782H23.8207C25.0598 8.18782 25.575 9.77342 24.5725 10.5017L19.1112 14.4696C18.6629 14.7953 18.4753 15.3727 18.6466 15.8997L20.7326 22.3198C21.1155 23.4983 19.7667 24.4782 18.7643 23.7499L13.303 19.782C12.8547 19.4563 12.2476 19.4563 11.7993 19.782L6.33799 23.7499C5.33554 24.4782 3.98675 23.4983 4.36965 22.3198L6.45568 15.8997C6.62692 15.3727 6.43933 14.7953 5.99102 14.4696L0.529718 10.5017C-0.472733 9.77342 0.0424566 8.18782 1.28155 8.18782H8.03209C8.58623 8.18782 9.07735 7.831 9.24859 7.30398L11.3346 0.88384Z" fill="#FFB72D"/>
</svg>
