<svg width="19" height="17" viewBox="0 0 19 17" fill="none" xmlns="http://www.w3.org/2000/svg">
<path d="M4.39475 16.9581L9.74225 14.1441L15.0898 16.9551C15.1145 16.968 15.1424 16.9738 15.1702 16.9718C15.198 16.9697 15.2247 16.96 15.2473 16.9437C15.2699 16.9273 15.2875 16.905 15.2981 16.8791C15.3087 16.8533 15.3119 16.8251 15.3073 16.7976L14.2873 10.8426L18.6117 6.62614C18.6315 6.60654 18.6455 6.58194 18.6521 6.55494C18.6586 6.52794 18.6576 6.49964 18.649 6.47314C18.6406 6.44674 18.6249 6.42314 18.6037 6.40514C18.5825 6.38714 18.5568 6.37534 18.5293 6.37114L12.5503 5.50111L9.87725 0.08461C9.86495 0.05925 9.84575 0.0378601 9.82195 0.0229001C9.79805 0.0079301 9.77045 0 9.74225 0C9.71405 0 9.68645 0.0079301 9.66255 0.0229001C9.63875 0.0378601 9.61955 0.05925 9.60725 0.08461L6.93425 5.50261L0.955251 6.37264C0.927781 6.37684 0.902031 6.38864 0.880871 6.40664C0.859701 6.42464 0.843971 6.44824 0.835411 6.47464C0.826851 6.50114 0.825811 6.52944 0.832411 6.55644C0.839001 6.58344 0.852971 6.60804 0.872751 6.62764L5.19725 10.8441L4.17575 16.7991C4.17118 16.8266 4.17437 16.8548 4.18497 16.8806C4.19557 16.9065 4.21315 16.9288 4.23575 16.9451C4.25834 16.9615 4.28505 16.9712 4.31288 16.9733C4.3407 16.9753 4.36853 16.9695 4.39325 16.9566L4.39475 16.9581Z" fill="#FFB72D"/>
</svg>
