<svg width="40" height="40" viewBox="0 0 40 40" fill="none" xmlns="http://www.w3.org/2000/svg">
<path d="M17.5002 0.117184C15.6408 0.492184 13.9923 1.80468 13.2033 3.54687C12.7033 4.64062 12.7111 4.60156 12.6798 8.80468L12.6486 12.6484L8.80484 12.6797C4.60172 12.7109 4.64078 12.7031 3.54703 13.2031C2.32047 13.7578 1.26578 14.7656 0.672032 15.9531C0.0939067 17.1172 0.0548442 17.3281 0.0157817 19.7109C-0.0154683 21.9844 0.0470317 22.6016 0.429844 23.5391C1.02359 25.0234 2.31266 26.3125 3.78141 26.9062C4.76578 27.2969 5.32828 27.3437 9.14859 27.3437H12.6486L12.6798 31.1953C12.7033 34.5859 12.7267 35.0937 12.8439 35.5078C13.5236 37.7891 15.2502 39.4062 17.5236 39.875C18.3673 40.0547 21.633 40.0547 22.4845 39.875C24.9298 39.375 26.8048 37.4609 27.2267 35.0391C27.3127 34.5391 27.3439 33.7891 27.3439 32.2266C27.3439 29.8125 27.2892 30 28.0314 30C28.5939 30.0078 29.1173 30.1953 29.758 30.6094C30.6017 31.1641 31.0001 31.2812 32.0314 31.2812C32.883 31.2891 32.9611 31.2734 33.4533 31.0391C34.6564 30.4687 35.3048 29.3125 35.3126 27.7266C35.3126 26.4687 34.8439 25.3203 33.8673 24.2187C33.2736 23.5469 33.0158 23.1953 32.0705 21.7266C30.9455 19.9766 29.8986 19.3672 28.008 19.3672C25.9767 19.3672 24.9533 20.0234 23.5939 22.2187C23.2267 22.8047 22.6017 23.6641 22.2111 24.125C21.1017 25.3984 20.7033 26.3516 20.7033 27.7187C20.7033 29.4687 21.4767 30.7109 22.8673 31.1641C23.7189 31.4453 24.8908 31.3516 25.7033 30.9375L26.0158 30.7812V32.5391C26.0158 34.5859 25.922 35.1875 25.4845 36.0937C24.9064 37.2812 23.6095 38.2812 22.3048 38.5547C21.5392 38.7109 18.4533 38.7109 17.6955 38.5547C16.8439 38.375 16.0783 37.9609 15.4298 37.3125C14.8283 36.7109 14.4923 36.1875 14.2111 35.3906C14.0314 34.8906 14.0314 34.7969 13.9923 30.8594C13.9377 26.3906 13.9689 26.6328 13.4064 26.2266C13.1642 26.0547 13.1408 26.0547 9.14078 26.0078C5.20328 25.9687 5.10953 25.9687 4.60953 25.7891C2.97672 25.2187 1.78141 23.8906 1.44547 22.3047C1.28922 21.5391 1.28922 18.4609 1.44547 17.6953C1.62516 16.8437 2.03922 16.0781 2.68766 15.4297C3.28922 14.8281 3.81266 14.4922 4.60953 14.2109C5.10953 14.0312 5.20328 14.0312 9.14078 13.9922C13.1408 13.9453 13.1642 13.9453 13.4064 13.7734C13.9689 13.3672 13.9377 13.6094 13.9923 9.14062C14.0314 5.20312 14.0314 5.10937 14.2111 4.60937C14.7814 2.97656 16.1095 1.78125 17.6955 1.44531C18.4611 1.28906 21.5392 1.28906 22.3048 1.44531C23.1564 1.625 23.922 2.03906 24.5705 2.6875C25.1798 3.28906 25.508 3.82031 25.7892 4.60937C25.9611 5.09375 25.9689 5.23437 26.0002 8.125L26.0236 11.1328L25.7267 10.8437C25.1095 10.25 24.0314 9.91406 23.2658 10.0781C22.7267 10.1875 22.008 10.5859 21.6798 10.9453C20.6408 12.0937 20.3205 14.3516 20.9767 15.9609C21.5783 17.4531 22.5548 18.375 23.7892 18.6016C24.9845 18.8203 26.2345 18.0937 26.8361 16.8359C27.3439 15.7812 27.3517 15.6172 27.3205 10C27.297 5.44531 27.2814 4.91406 27.1564 4.49218C26.4767 2.20312 24.7423 0.585934 22.4845 0.124996C21.7111 -0.0390663 18.2814 -0.0390663 17.5002 0.117184ZM24.4455 11.5625C24.7658 11.7187 25.1798 12.1484 25.4455 12.5781C25.9767 13.4531 26.1408 14.9687 25.797 15.8906C25.4377 16.875 24.9455 17.2969 24.1798 17.2969C23.6486 17.2969 23.2267 17.0547 22.8361 16.5469C22.1798 15.6875 21.9142 14.8359 21.9767 13.7891C22.047 12.6875 22.4611 11.8672 23.1408 11.5312C23.6095 11.2891 23.9377 11.2969 24.4455 11.5625ZM29.4689 20.9531C30.0783 21.2344 30.5001 21.6953 31.258 22.8984C31.9533 24.0078 32.3439 24.5391 32.8595 25.0781C33.6486 25.9062 34.0548 27 33.9533 28.0547C33.8986 28.6641 33.8205 28.9141 33.547 29.3047C33.2814 29.6953 32.8126 29.9297 32.2345 29.9766C31.5939 30.0312 31.0392 29.8672 30.3517 29.4219C29.5236 28.8828 28.9455 28.7109 28.008 28.7109C27.1095 28.7109 26.5548 28.8594 25.9142 29.2656C25.1173 29.7812 24.6877 29.9453 24.0861 29.9844C23.5861 30.0156 23.4689 29.9922 23.0861 29.8125C22.5783 29.5547 22.3283 29.2578 22.1564 28.6797C21.8127 27.4922 22.1564 26.1953 23.0939 25.1406C23.7345 24.4297 24.1252 23.9062 24.758 22.8906C25.4845 21.7422 25.7892 21.375 26.2189 21.125C26.8127 20.7734 27.1486 20.7031 28.1251 20.7266C28.9064 20.7422 29.0783 20.7734 29.4689 20.9531Z" fill="white"/>
<path d="M31.6406 10.1014C31.0078 10.2889 30.6718 10.492 30.1093 11.0467C28.0312 13.1092 28.2734 17.1639 30.539 18.3123C31.7578 18.9373 33 18.6639 34.0312 17.5545C34.8359 16.6795 35.2656 15.6405 35.3671 14.3358C35.4609 13.0858 34.9843 11.6327 34.2421 10.8905C33.5468 10.203 32.4531 9.86703 31.6406 10.1014ZM32.6015 11.4139C32.9687 11.5155 33.4765 11.9608 33.6796 12.3592C33.875 12.7342 34.0625 13.5389 34.0625 13.9842C34.0625 14.5077 33.8593 15.367 33.6171 15.8592C33.3203 16.4686 32.6328 17.1483 32.1953 17.2655C31.5 17.4452 30.7812 17.0936 30.4296 16.4061C30 15.5623 29.8984 14.6248 30.1171 13.6795C30.414 12.4452 31.3281 11.4217 32.2265 11.3358C32.2734 11.3358 32.4375 11.367 32.6015 11.4139Z" fill="white"/>
<path d="M5.27312 15.4219C4.6325 15.5781 4.1325 15.8594 3.66375 16.3203C3.17156 16.8203 2.85125 17.4141 2.72625 18.0781C2.57781 18.9141 2.77312 19.2969 3.36687 19.2969C3.71062 19.2969 3.98406 19.0156 3.98406 18.6719C3.98406 18.2812 4.21062 17.6875 4.49187 17.3672C4.81219 16.9922 5.29656 16.75 5.86687 16.6719C6.37469 16.6016 6.64031 16.375 6.64031 16C6.6325 15.3984 6.17156 15.2031 5.27312 15.4219Z" fill="white"/>
<path d="M8.35158 15.4297C8.12501 15.5547 7.94533 15.9453 8.02345 16.1562C8.04689 16.2266 8.14064 16.3672 8.22658 16.4609C8.3672 16.6172 8.46095 16.6406 9.00001 16.6406C9.54689 16.6406 9.64064 16.6172 9.8047 16.4453C10.0547 16.2031 10.0547 15.8594 9.81251 15.5703C9.64845 15.3828 9.56251 15.3516 9.09376 15.3359C8.71876 15.3203 8.4922 15.3437 8.35158 15.4297Z" fill="white"/>
<path d="M17.7812 16.9607C16.7656 17.2029 16.0156 18.3045 16.0156 19.5623C16.0156 20.9763 16.8906 22.4373 18.0703 22.992C20.5781 24.1795 22.5156 21.6638 21.1797 18.9451C20.6719 17.9217 19.8984 17.242 18.9453 16.9998C18.4297 16.8592 18.2344 16.8592 17.7812 16.9607ZM19.0938 18.4998C19.7656 18.867 20.25 19.742 20.2656 20.617C20.2734 21.4998 19.9219 21.9763 19.2578 21.9763C18.1719 21.9763 17.1328 20.3982 17.375 19.1092C17.4297 18.8045 17.75 18.3826 18 18.2732C18.2344 18.1795 18.6562 18.2654 19.0938 18.4998Z" fill="white"/>
<path d="M37.0629 16.9844C34.8989 17.5313 33.6645 20.5235 34.8676 22.3204C35.352 23.0469 36.227 23.4376 37.0395 23.2813C38.3207 23.0391 39.3286 22.1251 39.7582 20.836C40.5317 18.5157 39.0942 16.4688 37.0629 16.9844ZM38.1879 18.4141C38.2895 18.4766 38.4457 18.6876 38.5317 18.8907C39.0473 20.0547 37.9379 21.9766 36.7426 21.9766C36.0786 21.9766 35.7426 21.5313 35.7504 20.6641C35.7582 19.7813 36.1645 18.961 36.7661 18.586C37.3989 18.1954 37.7895 18.1485 38.1879 18.4141Z" fill="white"/>
</svg>
