<svg width="26" height="21" viewBox="0 0 26 21" fill="none" xmlns="http://www.w3.org/2000/svg">
<path d="M23.0195 5.72313C23.0352 5.94187 23.0352 6.16065 23.0352 6.37939C23.0352 13.0512 17.9571 20.7388 8.67579 20.7388C5.8164 20.7388 3.16017 19.9106 0.925781 18.4732C1.33205 18.52 1.72263 18.5356 2.14453 18.5356C4.50387 18.5356 6.67577 17.7388 8.41015 16.3794C6.1914 16.3325 4.33202 14.8794 3.69138 12.8794C4.00391 12.9262 4.31639 12.9575 4.64455 12.9575C5.09766 12.9575 5.55081 12.895 5.97266 12.7857C3.66017 12.3169 1.92574 10.2856 1.92574 7.83251V7.77003C2.59759 8.14504 3.37891 8.37941 4.20697 8.41062C2.84759 7.50435 1.957 5.9575 1.957 4.20748C1.957 3.27 2.20696 2.41063 2.64448 1.66062C5.12887 4.72312 8.86326 6.72309 13.0507 6.94187C12.9726 6.56687 12.9257 6.17628 12.9257 5.78565C12.9257 3.00437 15.1757 0.73877 17.9726 0.73877C19.4257 0.73877 20.7382 1.34814 21.6601 2.33252C22.8007 2.11378 23.8944 1.69188 24.8632 1.11377C24.4882 2.28567 23.6913 3.27005 22.6445 3.89501C23.6601 3.78568 24.6445 3.50437 25.5507 3.11379C24.8633 4.11375 24.0039 5.00433 23.0195 5.72313Z" fill="#0E081E"/>
</svg>
