<svg width="256" height="256" viewBox="0 0 256 256" fill="none" xmlns="http://www.w3.org/2000/svg">
<path d="M164.87 195.838C183.168 184.247 198.175 169.402 209.895 151.303C219.363 136.064 223.338 119.525 221.819 101.685C220.834 93.3414 218.367 85.4789 214.417 78.0964C207.449 84.8557 200.116 91.16 192.419 97.0081C185.895 101.862 178.768 105.659 171.038 108.395C158.981 111.786 149.181 108.6 141.638 98.8378C136.719 90.3909 134.937 81.307 136.293 71.5886C137.435 65.6675 138.943 59.8382 140.815 54.1006C145.018 43.887 148.993 33.5842 152.739 23.1909C153.757 19.5719 154.579 15.9115 155.206 12.2096C155.596 8.23623 155.392 4.30436 154.59 0.415208C149.662 0.0998034 144.728 -0.0359073 139.787 0.00807343C134.062 0.882661 128.304 1.89923 122.518 3.05781C111.4 6.2018 102.286 12.2347 95.1747 21.1565C91.131 27.1215 87.8419 33.4937 85.3062 40.2718C84.1933 41.737 82.7539 42.7548 80.9893 43.3215C64.1451 46.6615 47.2868 49.9149 30.4146 53.0827C29.7807 53.7248 29.3017 54.4713 28.9752 55.3195C29.2992 60.4438 30.4641 65.3923 32.4701 70.1649C34.7213 70.4225 36.914 70.1523 39.0495 69.3518C44.3293 66.7092 47.8242 62.5738 49.5342 56.9467C50.1262 59.0867 50.2634 61.2556 49.9458 63.4546C47.579 71.0181 42.439 75.2214 34.5269 76.062C40.109 96.694 53.6782 108.285 75.2332 110.836C87.0073 110.559 97.6977 113.677 107.304 120.19C123.294 133.997 130.215 151.417 128.069 172.451C126.145 186.035 119.292 196.338 107.51 203.361C108.436 201.25 109.396 199.08 110.389 196.853C115.255 177.88 109.155 163.509 92.0914 153.742C92.1791 154.759 92.5221 155.844 93.1191 156.995C96.2837 177.98 88.1278 192.826 68.6537 201.53C51.8603 207.236 36.6459 204.525 23.0132 193.396C7.38346 179.152 1.96899 161.867 6.77111 141.542C5.32921 143.58 4.09564 145.749 3.07043 148.05C-3.82913 169.355 0.899312 187.724 17.2558 203.159C30.5581 213.65 45.7712 219.615 62.8963 221.054C99.6922 223.615 133.683 215.209 164.87 195.838ZM122.313 46.3738C120.448 49.3607 117.775 50.3773 114.296 49.4235C110.221 47.2295 109.194 44.0441 111.212 39.8659C112.253 38.4887 113.555 37.54 115.119 37.0185C121.311 37.3527 123.709 40.4703 122.313 46.3738Z" fill="#7C58D3"/>
<path d="M148.303 59.0225C146.977 64.2311 146.223 69.5176 146.042 74.8845C145.653 81.8535 147.367 88.2257 151.182 93.9997C154.142 97.7997 158.048 99.6984 162.9 99.6933C169.874 99.0437 176.179 96.6712 181.814 92.576C196.855 81.6336 210.493 69.0928 222.726 54.9562C224.437 51.3736 223.889 48.1191 221.081 45.195C210.047 31.5697 199.014 17.9458 187.98 4.32053C178.716 2.77116 169.397 1.61886 160.02 0.863647C161.471 11.2167 160.58 21.385 157.347 31.3662C154.165 40.5431 151.149 49.7614 148.303 59.0225Z" fill="#7C58D3"/>
<path d="M224.804 74.8872C228.086 80.567 231.171 86.3963 234.055 92.3752C239.263 103.901 241.593 115.966 241.045 128.573C239.04 147.447 232.05 164.257 220.074 179.005C211.872 189.152 202.484 198.032 191.908 205.644C149.022 235.096 102.148 244.247 51.2856 233.097C59.4683 239.033 68.3764 243.71 78.0124 247.128C118.813 261.231 158.423 258.521 196.842 238.994C231.56 219.814 251.228 190.598 255.846 151.35C257.41 120.976 247.062 95.489 224.804 74.8872Z" fill="#4DC27E"/>
<path d="M28.292 165.175C36.2194 157.47 44.1683 149.743 52.1401 141.992C60.371 149.592 68.4571 157.319 76.3997 165.175C81.1307 165.714 85.9277 165.714 90.7908 165.175C90.6447 164.759 90.3703 164.488 89.9688 164.362C78.1376 152.729 66.2136 141.138 54.1969 129.589C52.9633 128.776 51.7297 128.776 50.4962 129.589C46.9886 132.922 43.6309 136.379 40.4219 139.959C40.2173 137.794 40.1475 135.625 40.2161 133.451C35.9678 133.451 31.7183 133.451 27.4701 133.451C27.5387 139.553 27.4701 145.654 27.2643 151.754C23.0161 155.956 18.7666 160.159 14.5183 164.361C14.3202 164.747 14.2516 165.153 14.3125 165.581C18.9813 165.717 23.6411 165.581 28.292 165.175Z" fill="#4DC27E"/>
<path d="M64.0477 168.866C60.759 168.866 57.4689 168.866 54.1802 168.866C54.1802 172.255 54.1802 175.644 54.1802 179.033C57.3317 179.033 60.4846 179.033 63.6361 179.033C64.0439 175.719 64.1811 172.33 64.0477 168.866Z" fill="#4DC27E"/>
<path d="M45.49 181.153C49.183 181.153 52.1768 177.934 52.1768 173.964C52.1768 169.993 49.183 166.775 45.49 166.775C41.797 166.775 38.8032 169.993 38.8032 173.964C38.8032 177.934 41.797 181.153 45.49 181.153Z" fill="#4DC27E"/>
<path d="M40.2095 193.241C43.6354 193.241 47.0614 193.241 50.4873 193.241C50.4873 190.124 50.4873 187.005 50.4873 183.887C47.3637 183.087 44.075 182.815 40.6198 183.074C40.2133 186.389 40.0761 189.778 40.2095 193.241Z" fill="#4DC27E"/>
<path d="M54.1814 192.809C57.333 192.809 60.4858 192.809 63.6374 192.809C63.6374 189.555 63.6374 186.301 63.6374 183.048C63.5002 183.048 63.363 183.048 63.2258 183.048C60.2115 183.048 57.1958 183.048 54.1802 183.048C54.1814 186.301 54.1814 189.555 54.1814 192.809Z" fill="#4DC27E"/>
</svg>
